{"glyphs":{"0":{"ha":713,"x_min":0,"x_max":0,"o":"m 350 994 b 614 844 450 994 550 938 b 685 539 674 757 685 643 b 349 -6 685 311 625 -6 b 104 117 251 -6 156 36 b 35 464 40 215 35 347 b 108 861 35 607 28 740 b 350 994 143 939 269 994 m 119 854 b 49 556 60 761 49 660 b 51 438 49 517 50 476 b 103 144 54 340 51 232 b 356 6 153 60 256 6 b 490 44 403 6 449 18 b 671 519 649 146 671 353 b 603 838 671 625 665 746 b 354 981 542 928 449 981 b 121 856 279 981 160 932 l 119 854 m 236 533 b 350 772 236 624 250 772 b 456 553 438 772 456 644 b 449 365 456 489 449 424 b 353 218 449 310 417 218 b 318 228 343 218 331 221 b 236 533 238 231 236 458 m 325 240 b 354 232 335 235 344 232 b 436 379 424 232 436 363 b 442 525 436 428 442 476 b 353 758 442 571 444 758 b 264 649 279 758 269 700 b 253 490 258 597 253 543 b 318 242 253 431 257 258 l 321 242 l 325 240 "},"1":{"ha":508,"x_min":0,"x_max":0,"o":"m 349 -10 b 208 11 292 -10 224 -4 b 225 690 208 238 225 463 b 161 622 207 638 189 622 b -4 683 149 622 -4 646 b 25 756 -4 707 17 739 b 167 994 49 806 126 956 b 333 999 222 994 276 999 b 450 986 360 999 436 1000 b 456 842 454 939 456 889 b 439 117 456 600 439 358 b 443 25 439 86 440 56 b 349 -10 443 -3 403 -10 m 425 117 b 444 765 425 333 444 549 b 439 883 444 807 439 844 b 438 979 439 918 440 947 b 310 985 394 979 350 985 b 174 982 264 985 218 982 b 107 875 147 950 128 911 b 10 685 69 813 33 754 l 10 679 b 169 633 26 667 132 633 b 231 711 196 633 203 711 b 238 704 232 708 235 707 l 238 701 b 242 656 240 696 242 676 b 222 15 242 428 222 232 b 300 7 247 10 274 7 b 429 24 340 7 429 7 b 425 117 426 54 425 86 "},"2":{"ha":692,"x_min":0,"x_max":0,"o":"m 43 -8 b 39 -7 42 -8 40 -7 l 38 -6 l 35 1 l 35 4 b 32 6 33 4 32 6 l 35 6 b 86 353 35 83 28 289 b 308 515 149 421 228 468 b 426 654 361 546 426 579 b 357 753 426 703 399 753 b 267 588 278 753 267 650 b 138 569 253 574 168 569 b 51 574 108 569 79 574 b 35 682 40 585 35 654 b 142 936 35 776 71 872 b 361 994 197 986 307 994 b 665 631 635 994 665 808 b 296 256 665 374 368 408 b 285 210 296 243 285 225 b 342 203 285 203 315 203 b 626 208 436 203 532 208 b 647 94 642 193 647 138 b 642 47 647 75 646 58 b 646 10 642 35 640 21 b 644 3 644 7 644 4 l 643 1 b 638 -1 640 0 639 0 b 106 -8 460 -1 282 -6 l 43 -8 m 629 13 b 626 33 626 18 626 26 b 631 121 626 63 631 92 b 621 194 631 146 629 171 b 439 190 560 194 499 190 l 301 190 b 271 211 278 190 271 199 b 521 426 271 321 396 354 b 650 642 617 482 650 542 b 375 982 650 890 544 982 b 150 925 329 982 211 979 b 50 676 79 863 50 769 b 58 588 50 647 57 615 b 126 583 81 586 103 583 b 253 594 167 583 210 593 b 356 768 253 660 271 768 b 442 650 407 768 442 707 b 315 503 442 575 368 533 b 96 343 238 457 156 413 b 51 96 47 288 51 165 l 51 40 b 49 6 51 29 50 11 l 106 6 b 629 13 279 8 454 13 "},"3":{"ha":683,"x_min":0,"x_max":0,"o":"m 639 532 b 640 406 639 499 640 454 b 586 97 640 296 633 164 b 339 -8 528 14 433 -8 b 93 54 269 -8 151 -6 b 38 213 51 96 38 156 b 32 303 38 242 38 285 l 39 311 b 224 324 100 311 161 324 b 238 303 232 314 232 313 b 342 232 257 260 311 232 b 417 313 388 232 417 272 b 299 401 417 356 382 401 b 238 394 278 401 257 399 b 217 472 218 404 217 447 b 224 571 217 508 224 542 l 222 593 l 226 601 b 418 685 290 621 418 583 b 349 756 418 731 381 756 b 229 676 300 756 247 715 b 174 667 221 668 196 667 b 39 669 128 667 82 669 b 29 714 31 676 29 696 b 31 746 29 726 31 738 b 344 993 31 900 179 993 b 640 761 490 993 640 925 b 639 694 640 738 639 713 m 335 4 b 626 414 606 4 626 169 b 625 533 626 463 625 504 l 625 690 l 625 749 b 351 979 625 910 506 979 b 44 746 181 979 44 889 b 46 683 44 726 46 706 b 154 681 81 683 117 681 b 218 685 175 681 197 682 b 350 769 239 728 297 769 b 432 685 390 769 432 740 b 236 589 432 574 310 607 b 238 567 236 582 238 575 b 229 464 238 533 229 499 b 239 410 229 444 232 426 b 299 415 257 413 279 415 b 431 300 383 415 431 367 b 343 221 431 256 404 221 b 218 310 294 221 232 263 b 71 296 168 308 118 296 b 47 297 63 296 56 296 b 103 65 60 217 40 128 l 103 63 b 335 4 157 24 249 4 "},"4":{"ha":651,"x_min":0,"x_max":0,"o":"m 563 467 b 635 456 582 467 624 467 l 626 254 b 596 243 621 243 606 243 b 556 246 582 243 569 246 b 540 244 550 246 546 246 b 531 108 532 200 533 153 b 522 6 528 74 522 40 b 414 -14 522 -10 463 -14 b 315 -11 369 -14 326 -11 b 311 -10 314 -11 313 -10 l 310 -8 l 307 -1 l 307 1 b 306 3 306 1 306 3 l 307 3 b 318 190 307 65 314 128 b 322 256 319 210 317 238 b 107 258 251 256 178 258 b 64 257 100 258 82 257 b 31 261 51 257 38 257 l 28 267 l 28 265 b 10 419 15 290 10 365 b 69 572 10 469 29 517 b 321 985 146 714 231 851 l 315 975 l 315 974 l 322 982 b 544 985 396 982 469 985 b 551 978 546 982 549 981 b 547 849 547 935 549 892 b 538 513 544 736 538 625 b 540 465 538 497 538 481 l 543 465 b 563 467 549 467 556 467 m 536 450 b 524 496 525 456 524 476 b 533 850 524 628 531 731 b 536 971 535 889 533 931 b 326 968 467 971 397 968 b 125 644 256 863 189 754 b 26 468 92 586 64 524 b 25 419 25 460 25 442 b 39 274 25 368 28 294 b 99 268 57 269 78 268 b 257 274 156 268 210 274 b 338 263 289 274 328 272 b 321 3 338 175 321 89 b 426 -1 350 1 389 -1 b 508 8 458 -1 488 1 b 517 110 508 42 514 76 b 528 251 519 156 518 206 b 554 260 536 260 543 260 b 581 256 564 260 572 258 b 613 260 593 256 601 256 l 621 449 b 544 451 594 449 571 451 b 536 450 542 451 539 450 m 375 454 b 301 442 369 443 333 442 b 178 457 263 442 197 438 b 215 519 182 478 204 503 b 338 722 249 575 296 681 b 371 761 342 731 357 761 b 376 758 372 760 374 760 l 378 757 b 379 753 378 756 379 754 l 379 751 l 375 454 m 365 740 b 294 629 340 714 303 643 b 194 461 260 574 226 517 b 290 456 222 457 257 456 b 361 460 318 456 343 457 l 365 740 "},"5":{"ha":699,"x_min":0,"x_max":0,"o":"m 264 304 b 333 224 274 285 264 224 b 433 356 396 224 433 283 b 289 488 433 436 389 488 b 97 476 214 488 142 476 b 46 488 75 476 54 479 b 43 965 46 647 43 806 l 50 974 b 643 982 247 974 444 982 b 650 975 644 979 647 978 l 650 974 b 653 926 651 969 653 951 b 646 797 653 878 650 808 l 646 769 b 582 756 640 757 606 756 b 504 757 556 756 528 757 b 267 753 425 757 344 753 b 274 708 267 739 268 721 b 358 717 301 714 329 717 b 668 278 617 717 668 476 b 629 111 668 221 664 153 b 335 -21 560 26 464 -21 b 46 194 197 -21 46 49 b 58 307 46 229 47 307 b 257 314 124 307 190 311 l 264 307 m 250 300 b 67 293 189 297 128 296 b 60 196 65 260 60 228 b 328 -6 60 56 201 -6 b 585 82 425 -6 526 28 b 654 311 651 143 654 224 b 357 703 654 485 600 703 b 271 694 328 703 299 694 b 251 754 254 694 251 742 l 251 758 l 258 767 b 501 771 339 767 419 771 b 569 769 524 771 547 769 b 632 775 592 769 613 771 b 638 968 632 839 638 901 b 57 960 444 968 250 960 b 60 493 57 803 60 649 b 300 499 140 493 218 499 b 446 346 406 499 446 431 b 329 211 446 279 404 211 b 251 297 282 211 258 250 b 250 300 251 297 250 299 "},"6":{"ha":699,"x_min":0,"x_max":0,"o":"m 676 254 b 331 -12 676 71 514 -12 b 38 482 56 -12 38 281 b 42 611 38 528 39 568 b 60 804 44 656 42 767 b 249 965 74 881 181 943 b 397 990 296 981 347 990 b 653 735 560 990 653 872 b 640 667 653 715 654 681 b 453 657 579 657 514 657 l 446 665 b 368 772 446 713 425 772 b 285 613 297 772 285 688 b 290 464 285 522 290 496 b 458 506 340 489 400 506 b 639 418 528 506 596 481 b 675 282 667 378 671 328 b 676 254 675 272 676 263 m 628 411 b 449 490 600 463 510 490 b 288 446 392 490 335 475 b 276 453 283 447 281 450 b 268 619 276 493 268 558 b 371 788 268 742 325 788 b 460 671 417 788 457 739 b 633 679 517 671 576 669 b 642 742 639 700 642 722 b 386 978 642 878 531 978 b 63 747 243 978 76 897 b 50 479 57 658 50 569 b 332 1 50 285 76 1 b 663 253 506 1 663 78 b 661 281 663 263 661 271 b 628 411 657 328 650 368 m 418 201 b 333 276 381 201 333 224 b 443 353 333 321 393 353 b 510 283 486 353 510 332 b 418 201 510 231 463 201 m 496 293 b 443 343 481 322 474 343 b 350 271 396 343 350 300 b 417 215 350 243 372 215 b 496 282 456 215 496 238 l 496 293 "},"7":{"ha":661,"x_min":0,"x_max":0,"o":"m 24 793 b 29 889 28 825 29 857 l 29 956 l 31 982 b 31 981 31 982 31 982 l 38 989 b 419 996 164 989 293 996 b 643 986 494 996 568 993 b 649 979 644 983 647 982 l 650 782 b 240 7 538 513 371 268 b 233 3 238 6 235 4 b 89 -7 188 3 138 -7 b 17 13 69 -7 17 -7 b 378 772 133 267 263 515 b 31 785 261 772 146 785 l 24 793 m 39 799 b 383 786 153 797 268 786 l 388 794 l 388 786 b 394 776 389 783 392 781 b 32 14 282 519 151 269 b 90 6 50 8 69 6 b 229 17 136 6 186 17 b 636 786 358 276 521 519 b 635 972 636 849 635 910 b 415 981 561 979 488 981 b 44 975 290 981 168 975 b 39 799 40 915 46 857 "},"8":{"ha":681,"x_min":0,"x_max":0,"o":"m 546 479 b 643 257 617 425 643 350 b 338 -26 643 90 533 -26 b 25 271 131 -26 25 114 b 111 489 25 350 54 432 b 38 689 60 540 38 622 b 182 965 38 794 85 922 b 364 992 240 990 299 992 b 650 713 522 992 650 926 b 651 690 650 708 651 699 b 546 479 651 606 607 533 m 339 -12 b 631 257 526 -12 631 100 b 529 479 631 361 593 415 l 532 486 b 619 607 571 518 604 558 b 636 679 621 610 632 671 l 636 732 b 617 832 635 735 617 799 b 344 981 582 940 482 981 b 53 696 140 981 53 861 b 126 493 53 618 76 542 l 126 485 b 39 269 69 428 39 351 b 339 -12 39 76 178 -12 m 338 600 b 263 682 296 600 263 632 b 264 703 263 689 264 694 l 265 704 l 267 706 b 340 747 267 729 325 747 b 411 669 381 747 411 708 b 338 600 411 631 376 600 m 278 701 b 276 683 278 694 276 689 b 340 614 276 657 296 614 b 396 669 374 614 396 640 b 347 729 396 690 383 729 b 281 704 318 729 303 718 l 278 701 m 267 706 l 267 707 m 267 706 l 265 704 l 265 706 m 336 390 b 426 307 386 390 426 360 b 425 297 426 304 426 300 l 425 293 l 422 289 b 340 231 422 251 382 231 b 250 308 296 231 250 254 b 336 390 250 365 293 390 m 413 313 b 411 318 411 314 411 315 b 315 378 386 364 374 378 b 264 311 283 368 274 339 b 335 246 264 265 297 246 b 393 260 354 246 375 250 l 396 263 b 413 299 403 276 407 290 l 411 297 b 413 303 411 299 411 301 l 413 313 "},"9":{"ha":713,"x_min":0,"x_max":0,"o":"m 668 449 b 669 342 668 414 669 378 b 372 -12 669 185 635 -12 b 74 114 253 -12 125 33 b 35 294 35 174 35 226 b 42 315 35 301 35 308 b 200 322 94 315 147 322 b 267 314 217 322 257 324 b 324 253 274 283 294 264 l 351 253 b 414 408 415 274 414 351 b 314 389 381 394 346 389 b 32 678 164 389 32 515 b 61 844 32 733 33 793 b 364 990 118 951 249 990 b 593 940 444 990 525 992 b 660 765 642 903 656 822 b 668 449 668 660 667 554 m 376 0 b 656 342 626 0 656 189 b 654 447 656 378 654 414 b 646 764 653 553 654 660 b 426 976 635 907 569 976 b 125 903 325 976 206 975 b 46 707 67 851 46 786 b 317 404 46 522 154 404 b 414 424 350 404 383 411 b 417 425 415 424 415 425 b 425 422 419 424 422 424 l 426 421 b 428 417 426 419 428 418 b 343 236 428 363 426 236 b 254 304 304 236 263 267 b 196 308 235 307 215 308 b 49 301 147 308 99 301 b 46 256 46 286 46 271 b 376 0 46 88 201 0 m 361 767 b 458 689 399 767 458 746 b 454 672 458 683 457 678 l 454 667 b 451 661 453 665 453 663 b 365 597 451 622 417 597 b 272 690 296 597 272 639 b 361 767 272 738 313 767 m 440 671 b 442 678 440 674 440 676 b 360 757 442 728 401 757 b 285 701 333 757 285 738 b 363 608 285 647 310 608 b 431 643 390 608 419 621 b 442 672 431 649 439 668 "},"A":{"ha":603,"x_min":0,"x_max":0,"o":"m 614 0 b 531 -14 607 -14 553 -14 b 414 3 514 -14 428 -12 b 350 225 385 74 385 157 b 303 228 335 225 318 228 b 289 225 300 226 294 225 b 272 226 282 225 275 226 b 213 -3 242 156 256 63 l 210 -4 b 204 -7 208 -6 206 -6 l 206 -7 l 193 -8 b 3 -4 142 -8 69 -4 l 1 -3 l -1 4 b 14 97 7 33 8 67 b 211 974 60 390 121 689 b 218 979 214 975 215 978 l 225 979 b 389 986 239 986 353 982 b 426 853 406 967 418 885 b 614 4 492 571 553 286 l 614 0 m 532 0 b 599 6 553 0 576 1 b 413 849 538 286 474 567 b 383 972 404 889 389 931 b 224 965 331 967 276 965 b 28 93 135 682 71 381 b 14 8 24 65 21 35 b 144 4 44 7 99 4 b 201 7 167 4 188 4 b 263 236 240 68 232 167 b 268 240 264 238 265 239 l 297 240 b 314 243 301 243 307 243 b 361 235 329 243 351 239 b 424 13 394 165 397 85 b 489 3 446 11 468 6 b 532 0 503 1 517 0 m 361 390 b 278 389 332 390 304 389 b 251 399 268 389 260 390 b 306 694 260 492 279 694 l 311 694 b 368 397 353 646 357 490 l 361 390 m 292 401 b 353 404 313 401 332 403 b 324 618 344 476 336 547 b 308 678 321 631 319 664 b 265 403 279 590 275 493 b 292 401 274 401 283 401 "},"Á":{"ha":603,"x_min":0,"x_max":0,"o":"m 517 1172 b 376 1039 482 1138 393 1075 b 290 1029 369 1032 342 1029 b 179 1042 242 1029 188 1033 l 179 1053 b 411 1279 261 1122 326 1210 b 517 1181 449 1260 485 1213 l 517 1172 m 501 1176 b 415 1264 472 1206 443 1235 b 197 1050 336 1200 272 1119 b 297 1042 228 1044 263 1042 b 364 1047 321 1042 343 1043 b 501 1176 382 1082 463 1139 m 614 0 b 531 -14 607 -14 553 -14 b 414 3 514 -14 428 -12 b 350 225 385 74 385 157 b 289 225 329 229 310 225 b 272 226 282 225 275 226 b 213 -3 242 156 256 63 l 210 -4 b 204 -7 208 -6 206 -6 l 206 -7 l 193 -8 b 3 -4 142 -8 69 -4 l 1 -3 l -1 4 b 11 76 -1 28 7 53 b 211 974 68 378 119 679 b 218 979 214 975 215 978 l 225 979 b 389 986 239 986 353 982 b 415 903 401 972 411 925 b 510 490 443 764 479 628 l 614 4 l 614 0 m 532 0 b 599 6 553 0 576 1 b 401 899 535 303 463 600 b 383 972 396 924 386 947 b 224 965 331 967 276 965 b 25 72 132 672 82 375 b 13 8 21 51 13 29 b 143 4 42 7 97 4 b 201 7 165 4 186 4 b 263 236 240 68 232 167 b 268 240 264 238 265 239 l 314 243 b 361 235 329 243 351 239 b 424 13 394 165 397 85 b 489 3 446 11 468 6 b 532 0 503 1 517 0 m 361 390 b 278 389 332 390 304 389 b 251 399 268 389 260 390 b 306 694 260 492 279 694 l 311 694 b 368 397 353 646 357 490 l 361 390 m 292 401 b 353 404 313 401 332 403 b 324 618 344 476 336 547 b 308 678 321 631 319 664 b 265 403 279 590 275 493 b 292 401 274 401 283 401 "},"Â":{"ha":603,"x_min":0,"x_max":0,"o":"m 533 1043 b 422 1031 497 1043 479 1031 b 314 1092 360 1031 332 1056 l 303 1103 b 182 1033 247 1063 263 1033 b 82 1042 153 1033 113 1036 l 78 1054 b 303 1281 143 1139 224 1207 b 313 1279 306 1279 308 1279 l 539 1054 l 533 1043 m 517 1056 b 307 1265 446 1125 376 1196 b 94 1054 233 1196 157 1133 b 190 1049 106 1053 153 1049 b 299 1117 264 1049 257 1089 l 307 1117 b 361 1058 328 1103 343 1076 l 374 1050 b 457 1047 401 1049 429 1047 b 517 1056 476 1049 496 1054 m 614 0 b 531 -14 607 -14 553 -14 b 414 3 514 -14 428 -12 b 350 225 385 74 385 157 b 289 225 329 229 310 225 b 272 226 282 225 275 226 b 213 -3 242 156 256 63 l 210 -4 b 204 -7 208 -6 206 -6 l 206 -7 l 193 -8 b 3 -4 142 -8 69 -4 l 1 -3 l -1 4 b 14 97 7 33 8 67 b 211 974 60 390 121 689 b 218 979 214 975 215 978 l 225 979 b 389 986 239 986 353 982 b 426 853 406 967 418 885 b 614 4 492 571 553 286 l 614 0 m 532 0 b 599 6 553 0 576 1 b 413 849 538 286 474 567 b 383 972 404 889 389 931 b 224 965 331 967 276 965 b 28 93 135 682 71 381 b 14 8 24 65 21 35 b 144 4 44 7 99 4 b 201 7 167 4 188 4 b 263 236 240 68 232 167 b 268 240 264 238 265 239 l 314 243 b 361 235 329 243 351 239 b 424 13 394 165 397 85 b 489 3 446 11 468 6 b 532 0 503 1 517 0 m 361 390 b 278 389 332 390 304 389 b 251 399 268 389 260 390 b 306 694 260 492 279 694 l 311 694 b 368 397 353 646 357 490 l 361 390 m 292 401 b 353 404 313 401 332 403 b 324 618 344 476 336 547 b 308 678 321 631 319 664 b 265 403 279 590 275 493 b 292 401 274 401 283 401 "},"Ä":{"ha":603,"x_min":0,"x_max":0,"o":"m 96 1047 b 81 1100 82 1054 81 1081 b 88 1193 81 1132 88 1167 l 92 1201 b 172 1214 108 1208 140 1214 b 253 1193 208 1214 244 1210 b 238 1046 244 1150 254 1081 b 100 1047 192 1046 146 1047 l 96 1047 m 338 1047 b 322 1100 324 1054 322 1081 b 329 1193 322 1132 329 1167 l 333 1201 b 414 1214 350 1208 382 1214 b 494 1193 450 1214 486 1210 b 479 1046 486 1150 496 1081 b 342 1047 433 1046 388 1047 l 338 1047 m 231 1060 b 238 1192 231 1101 231 1149 b 185 1200 222 1197 204 1200 b 101 1190 156 1200 124 1194 b 94 1097 101 1164 94 1128 b 100 1061 94 1083 96 1071 b 231 1060 143 1061 186 1060 m 472 1060 b 479 1192 472 1101 472 1149 b 426 1200 464 1197 446 1200 b 343 1190 397 1200 365 1194 b 336 1097 343 1164 336 1128 b 342 1061 336 1083 338 1071 b 472 1060 385 1061 428 1060 m 614 0 b 531 -14 607 -14 553 -14 b 414 3 514 -14 428 -12 b 350 225 385 74 385 157 b 303 228 335 225 318 228 b 289 225 300 226 294 225 b 272 226 282 225 275 226 b 213 -3 242 156 256 63 l 210 -4 b 204 -7 208 -6 206 -6 l 206 -7 l 193 -8 b 3 -4 142 -8 69 -4 l 1 -3 l -1 4 b 14 97 7 33 8 67 b 211 974 60 390 121 689 b 218 979 214 975 215 978 l 225 979 b 389 986 239 986 353 982 b 426 853 406 967 418 885 b 614 4 492 571 553 286 l 614 0 m 532 0 b 599 6 553 0 576 1 b 413 849 538 286 474 567 b 383 972 404 889 389 931 b 224 965 331 967 276 965 b 28 93 135 682 71 381 b 14 8 24 65 21 35 b 144 4 44 7 99 4 b 201 7 167 4 188 4 b 263 236 240 68 232 167 b 268 240 264 238 265 239 l 297 240 b 314 243 301 243 307 243 b 361 235 329 243 351 239 b 424 13 394 165 397 85 b 489 3 446 11 468 6 b 532 0 503 1 517 0 m 361 390 b 278 389 332 390 304 389 b 251 399 268 389 260 390 b 306 694 260 492 279 694 l 311 694 b 368 397 353 646 357 490 l 361 390 m 292 401 b 353 404 313 401 332 403 b 324 618 344 476 336 547 b 308 678 321 631 319 664 b 265 403 279 590 275 493 b 292 401 274 401 283 401 "},"À":{"ha":603,"x_min":0,"x_max":0,"o":"m 172 1288 b 349 1111 236 1240 294 1169 b 407 1053 367 1092 385 1069 l 407 1042 b 294 1029 389 1032 339 1029 b 211 1039 253 1029 211 1031 b 65 1178 190 1078 49 1165 l 71 1182 b 167 1279 103 1214 135 1246 l 172 1288 m 83 1176 b 221 1047 114 1149 206 1078 b 289 1042 231 1044 258 1042 b 388 1050 324 1042 365 1044 b 339 1101 369 1065 354 1083 b 171 1264 286 1158 232 1218 m 614 0 b 531 -14 607 -14 553 -14 b 414 3 514 -14 428 -12 b 350 225 385 74 385 157 b 272 226 325 229 299 224 b 213 -3 242 156 256 63 l 210 -4 b 204 -7 208 -6 206 -6 l 206 -7 l 193 -8 b 3 -4 142 -8 69 -4 l 1 -3 l -1 4 b 11 76 -1 28 7 53 b 211 974 68 378 119 679 b 218 979 214 975 215 978 l 225 979 b 389 986 239 986 353 982 b 415 903 401 972 411 925 b 510 490 443 764 479 628 l 614 4 l 614 0 m 532 0 b 599 6 553 0 576 1 b 401 899 535 303 463 600 b 383 972 396 924 386 947 b 224 965 331 967 276 965 b 25 72 132 672 82 375 b 13 8 21 51 13 29 b 143 4 42 7 97 4 b 201 7 165 4 186 4 b 263 236 240 68 232 167 b 268 240 264 238 265 239 l 361 235 b 424 13 394 165 397 85 b 489 3 446 11 468 6 b 532 0 503 1 517 0 m 361 390 b 278 389 332 390 304 389 b 251 399 268 389 260 390 b 306 694 260 492 279 694 l 311 694 b 368 397 353 646 357 490 l 361 390 m 292 401 b 353 404 313 401 332 403 b 324 618 344 476 336 547 b 308 678 321 631 319 664 b 265 403 279 590 275 493 b 292 401 274 401 283 401 "},"Å":{"ha":603,"x_min":0,"x_max":0,"o":"m 411 1075 b 289 1035 386 1038 325 1035 b 165 1165 176 1035 165 1079 b 306 1306 165 1239 165 1306 b 432 1190 404 1306 432 1269 b 413 1076 432 1151 424 1111 l 411 1075 m 399 1081 b 418 1203 407 1104 418 1158 b 297 1293 418 1274 369 1293 b 178 1161 211 1293 178 1267 b 290 1047 178 1065 207 1047 b 400 1082 338 1047 385 1058 l 399 1081 m 256 1236 b 299 1246 268 1242 283 1246 b 371 1188 333 1246 371 1228 b 308 1097 371 1143 371 1097 b 228 1179 236 1097 228 1118 b 254 1235 228 1201 235 1219 l 256 1236 m 239 1165 b 293 1111 239 1119 265 1111 b 357 1175 354 1111 357 1139 b 299 1232 357 1215 335 1232 b 263 1224 286 1232 272 1229 b 239 1165 244 1206 239 1190 m 614 0 b 531 -14 607 -14 553 -14 b 414 3 514 -14 428 -12 b 350 225 385 74 385 157 b 303 228 335 225 318 228 b 289 225 300 226 294 225 b 272 226 282 225 275 226 b 213 -3 242 156 256 63 l 210 -4 b 204 -7 208 -6 206 -6 l 206 -7 l 193 -8 b 3 -4 142 -8 69 -4 l 1 -3 l -1 4 b 14 97 7 33 8 67 b 211 974 60 390 121 689 b 218 979 214 975 215 978 l 225 979 b 389 986 239 986 353 982 b 426 853 406 967 418 885 b 614 4 492 571 553 286 l 614 0 m 532 0 b 599 6 553 0 576 1 b 413 849 538 286 474 567 b 383 972 404 889 389 931 b 224 965 331 967 276 965 b 28 93 135 682 71 381 b 14 8 24 65 21 35 b 144 4 44 7 99 4 b 201 7 167 4 188 4 b 263 236 240 68 232 167 b 268 240 264 238 265 239 l 297 240 b 314 243 301 243 307 243 b 361 235 329 243 351 239 b 424 13 394 165 397 85 b 489 3 446 11 468 6 b 532 0 503 1 517 0 m 361 390 b 278 389 332 390 304 389 b 251 399 268 389 260 390 b 306 694 260 492 279 694 l 311 694 b 368 397 353 646 357 490 l 361 390 m 292 401 b 353 404 313 401 332 403 b 324 618 344 476 336 547 b 308 678 321 631 319 664 b 265 403 279 590 275 493 b 292 401 274 401 283 401 "},"Ã":{"ha":603,"x_min":0,"x_max":0,"o":"m 186 1040 b 118 1046 164 1044 139 1039 b 24 1044 86 1046 56 1044 l 17 1053 b 214 1288 42 1151 104 1288 b 390 1182 319 1288 325 1194 b 460 1265 428 1189 451 1231 b 521 1275 476 1274 499 1275 b 560 1274 535 1275 547 1274 b 581 1275 567 1274 574 1275 b 586 1272 582 1274 583 1274 l 588 1271 b 590 1265 588 1268 589 1265 b 424 1033 590 1142 540 1033 b 251 1135 311 1033 329 1135 b 188 1079 221 1135 188 1118 b 193 1047 188 1068 193 1058 l 186 1040 m 176 1056 b 174 1074 175 1061 174 1068 b 253 1151 174 1117 208 1151 b 424 1047 343 1151 307 1047 b 576 1260 528 1047 576 1144 b 472 1257 540 1258 479 1258 b 390 1168 461 1200 410 1168 b 299 1246 351 1168 331 1221 b 213 1272 274 1265 242 1272 b 33 1058 100 1272 61 1143 b 96 1063 53 1058 75 1063 b 125 1058 106 1063 115 1061 b 176 1056 142 1058 158 1058 m 614 0 b 531 -14 607 -14 553 -14 b 414 3 514 -14 428 -12 b 350 225 385 74 385 157 b 289 225 329 229 310 225 b 272 226 282 225 275 226 b 213 -3 242 156 256 63 l 210 -4 b 204 -7 208 -6 206 -6 l 206 -7 l 193 -8 b 3 -4 142 -8 69 -4 l 1 -3 l -1 4 b 14 97 7 33 8 67 b 211 974 60 390 121 689 b 218 979 214 975 215 978 l 225 979 b 389 986 239 986 353 982 b 415 903 401 972 411 925 b 510 490 443 764 479 628 l 614 4 l 614 0 m 532 0 b 599 6 553 0 576 1 b 401 899 535 303 463 600 b 383 972 396 924 386 947 b 224 965 331 967 276 965 b 28 93 135 682 71 381 b 14 8 24 65 21 35 b 144 4 44 7 99 4 b 201 7 167 4 188 4 b 263 236 240 68 232 167 b 268 240 264 238 265 239 l 297 240 b 361 235 315 247 347 240 b 424 13 394 165 397 85 b 489 3 446 11 468 6 b 532 0 503 1 517 0 m 361 390 b 278 389 332 390 304 389 b 251 399 268 389 260 390 b 306 694 260 492 279 694 l 311 694 b 368 397 353 646 357 490 l 361 390 m 292 401 b 353 404 313 401 332 403 b 324 618 344 476 336 547 b 308 678 321 631 319 664 b 265 403 279 590 275 493 b 292 401 274 401 283 401 "},"Æ":{"ha":994,"x_min":0,"x_max":0,"o":"m 978 119 b 958 -1 978 58 972 13 b 599 -6 838 -1 718 -6 b 389 0 528 -6 458 -4 b 343 154 375 7 344 121 b 313 153 333 153 324 153 b 279 157 300 153 289 154 l 256 157 b 210 -1 242 122 218 7 l 207 -1 l 203 -4 b 6 -7 138 -7 71 -7 b -4 0 3 -4 0 -3 b 206 964 43 325 126 644 b 213 969 208 965 210 968 b 965 981 461 983 715 981 b 972 974 967 978 969 976 l 972 771 b 858 751 963 753 899 751 b 701 753 804 751 753 753 b 601 747 668 753 635 751 b 594 647 601 715 594 681 b 603 596 594 629 596 613 b 768 589 656 585 713 597 b 779 518 778 568 779 542 b 776 389 779 475 776 433 b 714 374 769 375 732 374 b 649 376 692 374 669 376 b 608 372 635 372 621 376 b 600 286 604 350 600 318 b 614 206 600 256 604 226 b 747 201 658 201 703 201 b 897 203 799 201 824 203 b 976 190 933 203 971 200 l 976 186 b 978 119 976 181 978 153 m 964 132 b 963 183 964 149 964 167 b 610 192 844 192 726 192 b 588 269 592 200 588 246 b 592 329 588 289 590 311 b 674 392 594 390 588 392 b 722 390 693 392 714 390 b 763 394 731 390 765 394 b 765 508 763 432 765 469 b 761 576 765 531 764 553 b 714 579 746 579 729 579 b 656 578 694 579 675 578 b 599 583 636 578 618 579 b 581 650 582 592 581 631 b 588 751 581 685 588 719 b 667 767 601 765 636 767 b 829 764 724 767 774 764 b 958 775 872 764 915 767 l 958 967 b 218 956 711 967 464 969 b 10 8 139 642 57 329 b 72 14 25 13 47 14 b 199 8 117 14 168 10 b 246 167 208 53 226 129 b 271 172 251 172 263 172 b 286 169 276 172 281 171 l 310 169 b 357 161 328 169 349 168 b 394 14 357 111 388 63 b 611 8 467 10 539 8 b 954 13 725 8 840 11 b 964 132 961 53 964 92 m 357 393 b 317 383 346 385 332 383 b 251 396 293 383 263 385 b 296 583 251 461 269 522 l 296 585 b 297 588 296 585 296 586 l 310 588 b 360 401 329 528 349 463 l 357 393 m 279 404 b 339 399 299 404 322 399 b 344 401 340 399 343 400 b 301 564 336 456 318 511 b 265 403 282 513 269 458 b 279 404 269 404 274 404 "},"B":{"ha":667,"x_min":0,"x_max":0,"o":"m 617 86 b 336 -15 540 1 440 -15 b 247 -12 307 -15 278 -14 b 56 4 207 -11 65 -15 b 53 247 53 85 53 167 b 54 690 53 394 54 542 b 51 963 54 781 54 871 b 300 1003 82 993 221 1003 b 492 957 374 1003 443 992 b 586 864 560 908 538 931 b 617 724 615 824 617 771 b 496 503 617 631 593 553 b 481 493 490 499 485 497 b 483 490 481 492 482 490 b 654 222 613 431 654 360 l 654 201 b 617 86 647 164 642 114 m 638 224 b 553 435 638 306 622 382 b 463 492 526 454 478 461 b 575 599 463 514 549 554 b 606 718 596 635 606 676 b 292 988 606 888 468 988 b 68 957 215 988 139 974 b 71 689 71 868 71 778 b 69 251 71 543 69 397 b 72 13 69 172 69 92 b 92 10 78 11 85 10 b 119 11 101 10 111 11 b 342 1 194 8 260 1 b 603 96 440 1 549 15 b 638 203 629 135 628 157 l 638 224 m 451 686 b 268 568 451 607 351 568 b 222 639 215 568 222 599 b 226 747 222 675 226 711 b 225 778 226 758 225 768 b 301 801 233 796 274 801 b 440 735 357 801 418 779 b 451 686 447 717 451 700 m 299 785 b 242 774 276 785 257 781 b 243 742 242 763 243 753 b 239 635 243 706 239 671 b 269 588 239 610 229 588 b 435 685 340 588 435 615 b 425 728 435 699 432 713 b 299 785 407 765 349 785 m 443 274 b 296 176 443 193 378 176 b 236 179 276 176 257 178 b 215 325 217 217 215 279 b 232 419 215 360 217 390 b 433 335 317 419 399 425 b 443 274 440 311 443 290 m 240 403 b 232 325 235 378 232 351 b 244 196 232 281 239 236 b 315 192 265 194 290 192 b 424 279 371 192 424 203 b 417 331 424 296 422 313 b 240 403 388 408 315 403 "},"C":{"ha":678,"x_min":0,"x_max":0,"o":"m 267 735 b 265 731 267 733 265 732 l 264 729 b 256 658 258 711 256 685 b 258 581 256 631 258 601 b 253 426 258 532 253 479 b 350 217 253 346 264 217 b 424 257 378 217 407 231 b 451 404 444 290 429 393 b 478 400 460 401 469 400 b 547 407 500 400 524 407 b 638 396 567 407 611 406 b 657 293 656 376 657 321 b 314 -25 657 118 535 -25 b 94 51 235 -25 150 -7 b 39 272 36 113 40 193 b 36 396 38 313 36 354 l 36 549 b 39 744 36 614 39 679 b 36 767 36 751 36 758 b 56 842 36 793 46 818 b 322 1018 103 961 168 1018 b 660 679 504 1018 660 858 b 644 582 660 647 656 614 b 563 568 631 568 585 568 b 428 589 521 568 463 572 b 339 768 411 656 443 768 b 274 749 317 761 292 767 b 267 733 271 743 268 739 m 264 758 b 332 783 281 775 306 783 b 440 596 454 783 429 653 b 563 582 479 589 521 582 b 632 590 586 582 610 583 b 647 683 642 621 647 653 b 307 1003 647 853 493 1003 b 51 751 168 1003 51 911 b 56 713 54 742 56 728 b 49 526 56 593 49 588 b 53 274 49 442 51 358 b 104 61 54 199 49 119 b 311 -11 156 6 238 -11 b 643 292 521 -11 643 117 b 631 383 643 322 639 354 b 567 390 607 390 585 383 b 486 388 540 390 513 388 b 456 389 475 388 465 388 b 444 269 447 349 457 308 b 356 203 429 225 392 203 b 240 439 265 203 240 307 b 244 582 240 494 243 547 b 243 643 244 588 243 614 b 263 756 243 701 249 738 l 264 758 "},"Ç":{"ha":661,"x_min":0,"x_max":0,"o":"m 257 972 b 340 969 288 972 315 969 b 639 657 542 964 639 819 b 622 561 639 636 636 561 l 624 561 b 621 560 622 560 622 560 l 619 560 b 547 549 619 558 571 549 b 424 567 515 549 447 554 b 388 724 407 619 419 676 b 347 743 375 735 361 736 b 254 611 258 743 256 681 b 250 426 253 544 250 514 b 347 208 250 349 261 208 b 422 269 379 208 410 229 b 432 382 433 306 425 344 b 529 393 456 393 493 393 b 621 382 554 393 594 392 b 639 283 639 364 639 311 b 381 -21 639 133 543 -18 b 342 -175 369 -71 360 -126 l 342 -176 b 235 -187 333 -185 278 -187 b 203 -175 213 -187 208 -186 b 236 -18 203 -143 226 -54 b 39 358 42 -18 39 207 l 39 567 b 46 729 40 621 43 675 b 257 972 46 850 106 972 m 51 496 b 53 357 51 450 53 403 b 221 -4 53 233 53 -4 b 246 -3 229 -4 238 -4 b 253 -10 247 -6 250 -7 b 228 -117 253 -46 236 -82 b 217 -171 222 -132 218 -164 b 239 -174 224 -172 232 -174 b 328 -168 267 -174 299 -168 b 369 -11 332 -132 361 -44 b 381 -8 374 -11 376 -10 b 376 -7 379 -8 378 -7 b 626 283 532 -7 626 140 b 614 369 626 313 622 342 b 550 376 590 376 568 369 l 503 376 b 474 372 494 374 483 372 b 444 374 464 372 453 374 b 442 332 442 360 442 346 b 347 194 442 239 400 194 b 235 446 250 194 235 321 b 240 613 235 504 239 563 b 339 758 242 671 242 758 b 435 575 435 758 418 640 b 543 563 471 575 507 563 b 614 572 567 563 590 571 b 625 660 621 600 625 631 b 494 918 625 760 582 861 b 293 957 438 956 360 957 b 174 946 254 957 211 958 b 60 728 93 919 60 801 b 51 496 56 650 51 574 "},"D":{"ha":669,"x_min":0,"x_max":0,"o":"m 551 861 b 646 529 629 722 646 647 b 643 419 646 497 644 461 b 629 303 642 381 629 340 l 628 301 b 601 233 626 282 608 249 b 446 0 565 153 508 63 b 264 -6 385 -4 325 -6 b 85 -4 204 -6 144 -4 b 86 -14 85 -7 85 -10 l 81 -4 l 49 -4 b 79 -1 58 -3 68 -3 l 78 -1 b 71 0 75 0 74 0 b 47 475 51 158 47 317 b 50 833 47 594 50 714 b 49 953 50 874 49 913 b 51 958 49 954 50 957 b 50 957 50 958 50 958 b 213 982 54 981 165 982 b 551 861 367 982 458 1001 m 629 421 b 632 533 631 464 632 500 b 540 854 632 646 617 719 b 393 967 504 907 454 946 b 63 953 282 960 172 975 l 63 951 b 64 825 63 910 64 867 b 61 479 64 710 61 594 b 83 10 61 322 65 165 b 274 8 146 10 210 8 b 440 14 329 8 385 10 b 614 303 510 101 579 196 l 614 301 b 617 304 615 303 615 304 l 615 304 b 629 421 615 342 628 382 m 329 686 b 464 472 433 686 464 554 b 424 349 464 428 446 386 l 425 350 b 354 292 413 326 376 292 b 349 293 353 292 350 292 b 297 289 332 289 314 289 b 243 344 251 289 243 313 b 246 404 243 363 246 383 l 246 672 b 329 686 258 685 303 686 m 413 356 b 450 483 436 394 450 436 b 328 674 450 560 410 674 b 260 667 306 674 281 668 b 263 561 260 631 263 596 b 257 393 263 506 257 449 b 283 303 257 361 250 311 b 343 307 293 303 325 307 b 354 306 349 307 351 307 l 356 306 b 413 356 364 306 404 340 "},"Ð":{"ha":669,"x_min":0,"x_max":0,"o":"m 65 575 b 67 790 65 646 67 718 b 64 953 67 844 65 899 l 71 961 b 301 988 142 971 222 988 b 646 494 575 988 646 706 b 614 251 646 414 635 332 b 499 29 594 176 563 78 b 351 -7 458 -1 400 -7 b 78 -1 260 -7 168 -1 b 63 108 65 4 63 56 b 65 369 63 256 65 282 b 36 368 57 369 46 368 b -8 379 18 368 0 371 b -15 556 -8 438 -15 496 b -7 576 -15 564 -14 572 b 65 575 17 576 40 575 m 72 561 b 0 563 47 561 24 563 b -1 538 0 554 -1 546 b 6 385 -1 486 6 436 l 31 385 b 79 376 50 385 71 383 b 85 13 79 256 75 133 b 351 7 174 13 261 7 b 490 40 396 7 453 11 b 600 256 551 88 582 183 b 633 450 615 318 633 385 b 303 974 633 656 588 974 b 78 949 226 974 146 957 b 81 785 79 893 81 839 b 79 568 81 713 79 640 l 72 561 m 281 219 b 228 239 244 219 235 225 b 225 385 228 286 225 336 l 232 393 b 313 392 258 393 286 392 b 307 528 313 438 307 483 b 308 556 307 538 308 547 b 275 554 299 556 286 554 b 226 565 256 554 235 557 b 228 663 226 597 228 631 b 225 726 228 683 226 706 l 229 735 b 301 753 253 746 278 753 b 469 458 425 753 469 615 b 431 281 469 392 458 326 b 281 219 400 240 367 219 m 456 458 b 299 735 456 621 415 735 b 239 724 281 735 257 731 b 242 663 240 703 242 682 b 240 571 242 632 240 601 l 275 571 b 322 563 294 571 314 569 l 322 515 b 328 451 326 503 328 478 b 319 378 328 418 328 394 b 239 379 292 378 265 379 b 238 303 239 354 238 328 b 242 240 238 282 239 260 l 243 239 b 294 236 260 239 278 236 b 419 288 342 236 386 242 b 456 458 444 331 456 394 "},"E":{"ha":668,"x_min":0,"x_max":0,"o":"m 651 122 b 632 -3 651 89 654 19 b 278 -8 514 -3 396 -8 b 63 0 206 -8 133 -6 l 56 8 b 49 625 56 214 49 419 b 57 958 49 736 50 847 b 64 964 60 960 61 963 b 407 974 178 971 292 969 b 550 981 453 975 503 981 b 640 972 582 981 611 978 b 650 914 649 954 650 933 b 646 767 650 864 646 814 b 515 746 636 747 561 746 b 397 747 472 746 438 747 b 276 743 356 747 315 743 b 271 643 275 711 271 676 b 276 592 271 626 272 608 b 360 586 303 588 332 586 b 443 588 388 586 415 588 b 454 522 451 569 454 544 b 451 418 454 488 451 453 b 453 386 451 407 451 396 b 383 371 444 371 403 371 b 325 372 364 371 344 372 b 285 367 311 368 299 369 b 276 279 279 339 276 308 b 283 203 276 253 279 226 b 561 193 375 201 468 193 b 643 196 589 193 615 194 b 650 189 644 193 647 192 l 650 186 b 651 122 651 164 651 143 m 626 11 b 638 119 635 47 638 83 b 636 181 638 140 638 160 b 569 179 614 179 592 179 b 279 189 472 179 375 189 b 264 301 260 189 264 283 b 349 389 264 385 275 389 b 407 386 368 389 388 386 b 439 390 418 386 428 386 b 440 508 439 429 440 469 b 436 574 440 531 439 551 b 357 575 410 574 383 575 b 307 572 347 575 328 572 b 254 621 261 572 254 599 b 265 754 254 628 251 725 l 267 756 b 413 761 314 756 364 761 b 494 760 440 761 467 760 b 632 771 540 760 586 763 b 636 904 632 814 636 860 b 633 960 636 922 636 942 b 551 965 608 964 581 965 b 407 960 501 965 450 961 b 71 950 294 956 182 957 b 63 621 64 840 63 731 b 69 14 63 418 69 217 b 281 6 140 8 210 6 b 626 11 396 6 511 11 "},"É":{"ha":668,"x_min":0,"x_max":0,"o":"m 415 1039 b 329 1029 408 1032 381 1029 b 218 1042 281 1029 226 1033 l 218 1053 b 450 1279 300 1122 365 1210 b 556 1181 488 1260 524 1213 l 556 1172 b 415 1039 521 1138 432 1075 m 454 1264 b 236 1050 375 1200 311 1119 b 336 1042 267 1044 301 1042 b 403 1047 360 1042 382 1043 b 540 1176 421 1082 501 1139 b 454 1264 511 1206 482 1235 m 651 122 b 632 -3 651 89 654 19 b 278 -8 514 -3 396 -8 b 63 0 206 -8 133 -6 l 56 8 b 49 625 56 214 49 419 b 57 958 49 736 50 847 b 64 964 60 960 61 963 b 407 974 178 971 292 969 b 550 981 453 975 503 981 b 640 972 582 981 611 978 b 650 914 649 954 650 933 b 646 767 650 864 646 814 b 515 746 636 747 561 746 b 397 747 472 746 438 747 b 276 743 356 747 315 743 b 271 643 275 711 271 676 b 276 592 271 626 272 608 b 360 586 303 588 332 586 b 443 588 388 586 415 588 b 454 522 451 569 454 544 b 451 418 454 488 451 453 b 453 386 451 407 451 396 b 383 371 444 371 403 371 b 325 372 364 371 344 372 b 285 367 311 368 299 369 b 276 279 279 339 276 308 b 283 203 276 253 279 226 b 561 193 375 201 468 193 b 643 196 589 193 615 194 b 650 189 644 193 647 192 l 650 186 b 651 122 651 164 651 143 m 626 11 b 638 119 635 47 638 83 b 636 181 638 140 638 160 b 569 179 614 179 592 179 b 279 189 472 179 375 189 b 264 301 260 189 264 283 b 349 389 264 385 275 389 b 407 386 368 389 388 386 b 439 390 418 386 428 386 b 440 508 439 429 440 469 b 436 574 440 531 439 551 b 357 575 410 574 383 575 b 307 572 347 575 328 572 b 254 621 261 572 254 599 b 265 754 254 628 251 725 l 267 756 b 413 761 314 756 364 761 b 494 760 440 761 467 760 b 632 771 540 760 586 763 b 636 904 632 814 636 860 b 633 960 636 922 636 942 b 551 965 608 964 581 965 b 407 960 501 965 450 961 b 71 950 294 956 182 957 b 63 621 64 840 63 731 b 69 14 63 418 69 217 b 281 6 140 8 210 6 b 626 11 396 6 511 11 "},"Ê":{"ha":668,"x_min":0,"x_max":0,"o":"m 225 1033 b 125 1042 196 1033 156 1036 l 121 1054 b 346 1281 186 1139 267 1207 b 356 1279 349 1279 351 1279 l 582 1054 l 576 1043 b 465 1031 540 1043 522 1031 b 357 1092 403 1031 375 1056 l 346 1103 b 225 1033 290 1063 306 1033 m 350 1265 b 138 1054 276 1196 200 1133 b 233 1049 149 1053 196 1049 b 342 1117 307 1049 300 1089 l 350 1117 b 404 1058 371 1103 386 1076 l 417 1050 b 500 1047 444 1049 472 1047 b 560 1056 519 1049 539 1054 b 350 1265 489 1125 419 1196 m 651 122 b 632 -3 651 89 654 19 b 278 -8 514 -3 396 -8 b 63 0 206 -8 133 -6 l 56 8 b 49 625 56 214 49 419 b 57 958 49 736 50 847 b 64 964 60 960 61 963 b 407 974 178 971 292 969 b 550 981 453 975 503 981 b 640 972 582 981 611 978 b 650 914 649 954 650 933 b 646 767 650 864 646 814 b 515 746 636 747 561 746 b 397 747 472 746 438 747 b 276 743 356 747 315 743 b 271 643 275 711 271 676 b 276 592 271 626 272 608 b 360 586 303 588 332 586 b 443 588 388 586 415 588 b 454 522 451 569 454 544 b 451 418 454 488 451 453 b 453 386 451 407 451 396 b 383 371 444 371 403 371 b 325 372 364 371 344 372 b 285 367 311 368 299 369 b 276 279 279 339 276 308 b 283 203 276 253 279 226 b 561 193 375 201 468 193 b 643 196 589 193 615 194 b 650 189 644 193 647 192 l 650 186 b 651 122 651 164 651 143 m 626 11 b 638 119 635 47 638 83 b 636 181 638 140 638 160 b 569 179 614 179 592 179 b 279 189 472 179 375 189 b 264 301 260 189 264 283 b 349 389 264 385 275 389 b 407 386 368 389 388 386 b 439 390 418 386 428 386 b 440 508 439 429 440 469 b 436 574 440 531 439 551 b 357 575 410 574 383 575 b 307 572 347 575 328 572 b 254 621 261 572 254 599 b 265 754 254 628 251 725 l 267 756 b 413 761 314 756 364 761 b 494 760 440 761 467 760 b 632 771 540 760 586 763 b 636 904 632 814 636 860 b 633 960 636 922 636 942 b 551 965 608 964 581 965 b 407 960 501 965 450 961 b 71 950 294 956 182 957 b 63 621 64 840 63 731 b 69 14 63 418 69 217 b 281 6 140 8 210 6 b 626 11 396 6 511 11 "},"Ë":{"ha":668,"x_min":0,"x_max":0,"o":"m 150 1047 b 135 1100 136 1054 135 1081 b 142 1193 135 1132 142 1167 l 146 1201 b 226 1214 163 1208 194 1214 b 307 1193 263 1214 299 1210 b 292 1046 299 1150 308 1081 b 154 1047 246 1046 200 1047 l 150 1047 m 392 1047 b 376 1100 378 1054 376 1081 b 383 1193 376 1132 383 1167 l 388 1201 b 468 1214 404 1208 436 1214 b 549 1193 504 1214 540 1210 b 533 1046 540 1150 550 1081 b 396 1047 488 1046 442 1047 l 392 1047 m 156 1190 b 149 1097 156 1164 149 1128 b 154 1061 149 1083 150 1071 b 285 1060 197 1061 240 1060 b 292 1192 285 1101 285 1149 b 239 1200 276 1197 258 1200 b 156 1190 210 1200 178 1194 m 397 1190 b 390 1097 397 1164 390 1128 b 396 1061 390 1083 392 1071 b 526 1060 439 1061 482 1060 b 533 1192 526 1101 526 1149 b 481 1200 518 1197 500 1200 b 397 1190 451 1200 419 1194 m 651 122 b 632 -3 651 89 654 19 b 278 -8 514 -3 396 -8 b 63 0 206 -8 133 -6 l 56 8 b 49 625 56 214 49 419 b 57 958 49 736 50 847 b 64 964 60 960 61 963 b 407 974 178 971 292 969 b 550 981 453 975 503 981 b 640 972 582 981 611 978 b 650 914 649 954 650 933 b 646 767 650 864 646 814 b 515 746 636 747 561 746 b 397 747 472 746 438 747 b 276 743 356 747 315 743 b 271 643 275 711 271 676 b 276 592 271 626 272 608 b 360 586 303 588 332 586 b 443 588 388 586 415 588 b 454 522 451 569 454 544 b 451 418 454 488 451 453 b 453 386 451 407 451 396 b 383 371 444 371 403 371 b 325 372 364 371 344 372 b 285 367 311 368 299 369 b 276 279 279 339 276 308 b 283 203 276 253 279 226 b 561 193 375 201 468 193 b 643 196 589 193 615 194 b 650 189 644 193 647 192 l 650 186 b 651 122 651 164 651 143 m 626 11 b 638 119 635 47 638 83 b 636 181 638 140 638 160 b 569 179 614 179 592 179 b 279 189 472 179 375 189 b 264 301 260 189 264 283 b 349 389 264 385 275 389 b 407 386 368 389 388 386 b 439 390 418 386 428 386 b 440 508 439 429 440 469 b 436 574 440 531 439 551 b 357 575 410 574 383 575 b 307 572 347 575 328 572 b 254 621 261 572 254 599 b 265 754 254 628 251 725 l 267 756 b 413 761 314 756 364 761 b 494 760 440 761 467 760 b 632 771 540 760 586 763 b 636 904 632 814 636 860 b 633 960 636 922 636 942 b 551 965 608 964 581 965 b 407 960 501 965 450 961 b 71 950 294 956 182 957 b 63 621 64 840 63 731 b 69 14 63 418 69 217 b 281 6 140 8 210 6 b 626 11 396 6 511 11 "},"È":{"ha":668,"x_min":0,"x_max":0,"o":"m 290 1039 b 150 1171 269 1078 150 1150 l 150 1182 b 246 1279 182 1214 214 1246 l 254 1279 b 428 1111 318 1232 374 1169 b 486 1053 446 1092 464 1069 l 486 1042 b 374 1029 468 1032 418 1029 b 290 1039 332 1029 290 1031 m 163 1176 b 300 1047 193 1149 285 1078 b 368 1042 310 1044 338 1042 b 467 1050 403 1042 444 1044 b 418 1101 449 1065 433 1083 b 250 1264 365 1158 311 1218 m 651 122 b 632 -3 651 89 654 19 b 278 -8 514 -3 396 -8 b 63 0 206 -8 133 -6 l 56 8 b 49 625 56 214 49 419 b 57 958 49 736 50 847 b 64 964 60 960 61 963 b 407 974 178 971 292 969 b 550 981 453 975 503 981 b 640 972 582 981 611 978 b 650 914 649 954 650 933 b 646 767 650 864 646 814 b 515 746 636 747 561 746 b 397 747 472 746 438 747 b 276 743 356 747 315 743 b 271 643 275 711 271 676 b 276 592 271 626 272 608 b 360 586 303 588 332 586 b 443 588 388 586 415 588 b 454 522 451 569 454 544 b 451 418 454 488 451 453 b 453 386 451 407 451 396 b 383 371 444 371 403 371 b 325 372 364 371 344 372 b 285 367 311 368 299 369 b 276 279 279 339 276 308 b 283 203 276 253 279 226 b 561 193 375 201 468 193 b 643 196 589 193 615 194 b 650 189 644 193 647 192 l 650 186 b 651 122 651 164 651 143 m 626 11 b 638 119 635 47 638 83 b 636 181 638 140 638 160 b 569 179 614 179 592 179 b 279 189 472 179 375 189 b 264 301 260 189 264 283 b 349 389 264 385 275 389 b 407 386 368 389 388 386 b 439 390 418 386 428 386 b 440 508 439 429 440 469 b 436 574 440 531 439 551 b 357 575 410 574 383 575 b 307 572 347 575 328 572 b 254 621 261 572 254 599 b 265 754 254 628 251 725 l 267 756 b 413 761 314 756 364 761 b 494 760 440 761 467 760 b 632 771 540 760 586 763 b 636 904 632 814 636 860 b 633 960 636 922 636 942 b 551 965 608 964 581 965 b 407 960 501 965 450 961 b 71 950 294 956 182 957 b 63 621 64 840 63 731 b 69 14 63 418 69 217 b 281 6 140 8 210 6 b 626 11 396 6 511 11 "},"F":{"ha":686,"x_min":0,"x_max":0,"o":"m 492 356 b 318 335 436 346 375 340 b 307 1 310 224 307 113 b 229 -11 301 -10 263 -11 b 117 -10 176 -11 154 -12 b 85 -11 108 -10 97 -11 b 50 4 67 -11 57 -10 b 49 371 50 126 49 249 b 53 747 49 496 53 621 l 53 943 l 57 951 b 228 968 108 968 174 964 b 438 978 296 974 367 978 b 682 954 519 978 603 972 b 692 810 690 936 692 860 b 688 756 692 786 692 767 l 688 742 b 629 729 682 731 654 729 l 608 729 b 315 714 514 729 408 728 b 303 653 308 696 303 674 b 392 592 303 593 331 592 b 490 600 428 592 467 596 b 504 543 503 586 504 571 b 499 425 504 503 499 454 b 501 378 499 422 501 396 b 493 356 501 363 501 364 l 492 356 m 486 368 b 482 407 483 379 482 392 b 490 540 482 447 490 500 b 485 585 490 558 489 574 b 392 578 460 581 425 578 b 289 649 324 578 289 581 b 310 726 289 674 296 719 b 596 743 403 740 501 738 b 674 747 621 744 649 742 b 675 763 674 753 674 757 b 674 942 675 822 674 882 b 421 965 597 958 510 965 b 67 939 299 965 174 953 b 64 7 67 628 64 317 b 168 0 97 3 133 0 b 293 7 210 0 253 3 b 304 343 293 119 296 232 b 311 349 307 344 308 347 l 317 349 l 319 353 l 319 349 b 364 356 333 350 349 354 b 486 368 404 360 444 363 "},"G":{"ha":668,"x_min":0,"x_max":0,"o":"m 435 508 b 625 496 499 508 571 496 b 631 493 626 494 628 494 b 644 331 642 482 644 360 b 596 69 644 247 646 139 b 308 -28 536 -14 394 -28 b 117 49 238 -28 168 -10 b 29 589 21 156 29 456 b 156 943 29 715 42 878 b 358 981 217 978 288 981 b 635 708 521 981 635 861 b 628 654 635 692 628 672 b 583 646 615 647 600 646 b 561 647 575 646 567 647 b 519 643 551 644 536 643 b 446 651 493 643 461 646 b 361 767 425 693 414 750 b 301 768 342 767 321 768 b 232 389 244 747 232 579 b 317 190 232 306 242 213 b 439 324 390 190 439 204 l 404 324 b 376 318 397 319 388 318 b 325 389 331 318 325 336 b 329 422 325 404 326 417 b 326 481 329 442 326 463 l 335 490 b 435 508 363 504 397 508 m 340 475 b 346 438 343 467 346 451 b 340 358 346 410 340 390 b 364 333 340 344 342 333 b 417 339 383 333 397 339 b 456 308 450 339 456 328 b 335 175 456 224 406 175 b 219 428 222 175 219 324 b 222 540 219 465 221 504 b 317 781 226 619 221 781 b 454 664 400 781 435 739 b 554 660 488 664 521 660 b 571 663 560 661 565 663 b 593 661 578 663 586 661 b 603 663 596 663 599 663 b 621 718 624 663 621 693 b 314 967 621 886 478 967 b 117 896 242 967 169 946 b 53 714 69 851 58 775 b 44 485 46 638 44 582 b 126 58 44 343 56 144 b 308 -14 172 3 239 -14 b 601 103 401 -14 557 3 b 633 286 626 158 633 222 b 619 482 633 354 625 421 b 435 493 569 482 497 493 b 342 478 399 493 367 490 b 340 476 340 478 340 476 "},"H":{"ha":693,"x_min":0,"x_max":0,"o":"m 658 8 l 653 1 b 565 -7 625 -6 594 -7 b 476 -6 535 -7 504 -6 b 465 -7 472 -7 469 -7 b 449 -1 456 -7 456 -6 b 428 378 429 125 444 251 b 358 385 404 382 381 385 b 278 376 332 385 306 382 b 272 288 274 347 272 317 b 278 107 272 228 278 167 b 271 7 278 74 276 40 b 268 4 269 7 268 6 b 217 -8 253 -6 235 -8 b 114 3 182 -8 144 3 b 79 -4 100 3 89 0 b 56 153 58 3 56 82 l 56 233 b 44 804 56 424 44 613 b 49 971 44 831 46 971 l 49 969 b 56 978 51 972 53 975 b 111 975 74 978 92 975 b 193 979 138 975 165 979 b 243 967 208 979 236 979 b 268 629 260 854 250 740 l 267 629 b 271 607 268 621 269 614 b 335 601 292 603 313 601 b 411 608 361 601 388 604 b 421 832 417 682 421 757 b 417 964 421 876 419 919 b 557 993 435 982 515 993 b 597 988 572 993 586 992 l 614 988 b 621 981 615 985 618 983 m 597 10 b 644 14 614 10 629 11 l 607 974 b 590 975 599 974 597 974 b 431 960 535 975 486 971 b 435 835 433 918 435 876 b 425 603 435 757 431 679 b 418 596 422 600 419 599 l 421 596 b 318 588 410 596 351 588 b 258 600 297 588 272 593 b 229 961 239 721 247 842 b 200 963 219 963 210 963 b 103 957 168 963 133 957 b 63 963 89 957 75 958 b 58 764 60 896 58 829 b 76 94 58 542 60 317 b 81 11 78 67 76 39 b 110 15 90 14 100 15 b 214 4 143 15 181 4 b 257 14 229 4 244 7 b 264 117 263 47 264 82 b 260 292 264 175 260 233 b 265 383 260 322 261 353 b 381 400 279 390 332 400 b 439 389 406 400 428 397 b 449 290 446 383 449 303 b 461 7 449 196 449 100 l 469 7 b 518 13 483 11 500 13 b 597 10 543 13 571 10 "},"I":{"ha":361,"x_min":0,"x_max":0,"o":"m 315 976 b 306 315 315 756 306 536 b 314 7 306 213 307 110 b 233 -15 296 -11 269 -15 b 90 -6 185 -15 128 -6 b 60 -10 76 -6 67 -7 l 47 -4 b 53 232 51 75 53 153 b 44 724 53 394 44 558 b 49 864 44 771 46 817 b 65 990 50 896 53 978 b 222 982 117 990 169 982 b 308 983 250 982 279 983 l 315 976 m 292 314 b 301 969 292 532 301 750 b 221 968 274 969 247 968 b 72 976 171 968 122 976 b 60 732 63 894 60 814 b 68 288 60 583 68 436 b 61 3 68 193 65 99 b 96 6 71 4 82 6 b 228 0 133 6 183 0 b 300 10 256 0 281 10 b 292 314 293 111 292 213 "},"Í":{"ha":360,"x_min":0,"x_max":0,"o":"m 275 1039 b 189 1029 268 1032 240 1029 b 65 1043 140 1029 74 1035 l 78 1053 b 310 1279 160 1122 225 1210 b 418 1176 347 1260 386 1208 l 275 1039 m 400 1176 b 314 1264 371 1206 342 1235 b 96 1050 235 1200 171 1119 b 196 1042 126 1044 161 1042 b 263 1047 219 1042 242 1043 b 400 1176 281 1082 361 1139 m 319 985 b 306 315 319 764 306 536 b 314 7 306 213 307 110 b 233 -15 296 -11 269 -15 b 46 -12 171 -15 110 -7 b 53 232 50 67 53 153 b 44 724 53 394 44 558 b 49 864 44 771 46 817 b 65 990 50 896 53 978 b 222 982 117 990 169 982 b 308 983 250 982 279 983 l 319 985 m 292 314 b 301 969 292 532 301 750 b 221 968 274 969 247 968 b 72 976 171 968 122 976 b 60 732 63 894 60 814 b 68 288 60 583 68 436 b 61 3 68 193 65 99 b 96 6 71 4 82 6 b 228 0 133 6 183 0 b 300 10 256 0 281 10 b 292 314 293 111 292 213 "},"Î":{"ha":361,"x_min":0,"x_max":0,"o":"m 444 1043 b 315 1031 408 1043 372 1031 b 196 1103 253 1031 225 1056 b 75 1033 140 1063 156 1033 b -25 1042 46 1033 6 1036 l -46 1044 b 203 1288 19 1129 124 1214 b 432 1054 271 1207 357 1132 l 444 1043 m 410 1056 b 200 1265 339 1125 269 1196 b -12 1054 126 1196 50 1133 b 83 1049 -1 1053 46 1049 b 196 1124 157 1049 154 1096 b 350 1047 231 1078 282 1028 b 410 1056 369 1049 389 1054 m 315 976 b 306 315 315 756 306 536 b 314 7 306 213 307 110 b 233 -15 296 -11 269 -15 b 90 -6 185 -15 128 -6 b 47 -7 76 -6 67 -10 b 53 232 51 72 53 153 b 44 724 53 394 44 558 b 49 864 44 771 46 817 b 65 990 50 896 53 978 b 222 982 117 990 169 982 b 308 983 250 982 279 983 l 315 976 m 292 314 b 301 969 292 532 301 750 b 221 968 274 969 247 968 b 72 976 171 968 122 976 b 60 732 63 894 60 814 b 68 288 60 583 68 436 b 61 3 68 193 65 99 b 96 6 71 4 82 6 b 228 0 133 6 183 0 b 300 10 256 0 281 10 b 292 314 293 111 292 213 "},"Ï":{"ha":361,"x_min":0,"x_max":0,"o":"m 3 1047 b -12 1100 -11 1054 -12 1081 b -6 1193 -12 1132 -6 1167 l -6 1201 b 79 1214 11 1208 47 1214 b 160 1193 115 1214 151 1210 b 144 1046 151 1150 161 1081 b 7 1047 99 1046 53 1047 l 3 1047 m 244 1047 b 229 1100 231 1054 229 1081 b 236 1193 229 1132 236 1167 l 236 1201 b 321 1214 253 1208 289 1214 b 401 1193 357 1214 393 1210 b 386 1046 393 1150 403 1081 b 249 1047 340 1046 294 1047 l 244 1047 m 138 1060 b 144 1192 138 1101 138 1149 b 92 1200 129 1197 111 1200 b 8 1190 63 1200 31 1194 b 1 1097 8 1164 1 1128 b 7 1061 1 1083 3 1071 b 138 1060 50 1061 93 1060 m 379 1060 b 386 1192 379 1101 379 1149 b 333 1200 371 1197 353 1200 b 250 1190 304 1200 272 1194 b 243 1097 250 1164 243 1128 b 249 1061 243 1083 244 1071 b 379 1060 292 1061 335 1060 m 314 983 b 306 315 314 763 306 536 b 314 7 306 213 307 110 b 233 -15 296 -11 269 -15 b 90 -6 185 -15 128 -6 b 47 -4 76 -6 67 -7 b 53 232 51 75 53 153 b 44 724 53 394 44 558 b 49 864 44 771 46 817 b 65 990 50 896 53 978 b 222 982 117 990 169 982 b 308 983 250 982 279 983 l 314 983 m 292 314 b 301 969 292 532 301 750 b 221 968 274 969 247 968 b 72 976 171 968 122 976 b 60 732 63 894 60 814 b 68 288 60 583 68 436 b 61 3 68 193 65 99 b 96 6 71 4 82 6 b 228 0 133 6 183 0 b 300 10 256 0 281 10 b 292 314 293 111 292 213 "},"Ì":{"ha":361,"x_min":0,"x_max":0,"o":"m 74 1283 b 251 1111 138 1236 197 1169 b 310 1053 269 1092 288 1069 l 319 1044 b 197 1029 301 1035 242 1029 b 114 1039 156 1029 114 1031 b -26 1171 93 1078 -26 1150 l -26 1182 b 69 1279 6 1214 38 1246 l 74 1283 m -14 1176 b 124 1047 17 1149 108 1078 b 192 1042 133 1044 161 1042 b 290 1050 226 1042 268 1044 b 242 1101 272 1065 257 1083 b 74 1264 189 1158 135 1218 m 318 985 b 306 315 318 764 306 536 b 314 7 306 213 307 110 b 233 -15 296 -11 269 -15 b 47 -11 163 -15 107 3 b 53 232 51 68 53 153 b 44 724 53 394 44 558 b 49 864 44 771 46 817 b 65 990 50 896 53 978 b 222 982 117 990 169 982 b 308 983 250 982 279 983 l 318 985 m 292 314 b 301 969 292 532 301 750 b 221 968 274 969 247 968 b 72 976 171 968 122 976 b 60 732 63 894 60 814 b 68 288 60 583 68 436 b 61 3 68 193 65 99 b 96 6 71 4 82 6 b 228 0 133 6 183 0 b 300 10 256 0 281 10 b 292 314 293 111 292 213 "},"J":{"ha":643,"x_min":0,"x_max":0,"o":"m 596 919 b 603 644 596 828 603 736 b 599 385 603 553 600 472 b 543 101 597 293 597 181 b 267 -19 489 22 392 -19 b -7 372 33 -19 -7 194 b 85 415 -7 400 4 415 b 228 397 142 415 221 411 b 282 243 228 349 233 271 b 310 236 292 238 300 239 l 329 236 b 382 349 374 254 382 301 b 378 561 382 431 378 489 b 381 985 378 703 381 844 l 388 993 b 590 996 454 994 522 994 l 597 989 b 596 919 597 965 596 943 m 586 422 b 588 518 588 454 588 486 b 579 885 588 640 579 763 b 582 982 579 918 581 950 b 394 979 519 981 457 981 b 389 731 394 896 389 814 b 396 346 389 601 396 475 b 319 221 396 296 383 221 b 214 392 229 221 214 325 b 96 401 176 397 136 401 b 11 394 68 401 39 399 b 8 346 10 381 8 364 b 118 35 8 242 39 89 b 269 -3 161 4 214 -3 b 532 108 367 -3 479 18 b 586 422 588 203 582 315 "},"K":{"ha":638,"x_min":0,"x_max":0,"o":"m 644 -1 b 543 -8 611 -7 578 -8 b 446 -3 511 -8 478 -3 b 264 340 364 99 321 224 b 263 282 263 321 263 301 b 269 7 263 190 269 99 b 150 -12 263 -8 200 -12 b 53 6 107 -12 67 -8 b 44 299 47 103 44 201 b 56 969 44 522 56 746 l 63 978 b 249 975 124 978 186 975 b 256 968 250 972 253 971 b 258 660 258 865 258 763 b 319 747 276 688 303 719 b 447 972 363 824 399 900 b 454 976 449 974 451 975 b 504 972 471 974 488 972 b 610 975 539 972 575 975 b 649 963 626 975 644 974 b 413 499 599 794 479 660 l 650 8 l 644 -1 m 543 6 b 633 11 572 6 603 7 l 400 496 l 400 501 b 633 960 464 660 585 794 b 592 963 619 961 606 963 b 496 958 560 963 528 958 b 456 961 482 958 468 960 b 379 833 426 919 403 879 b 260 635 346 768 313 688 b 258 631 260 633 258 632 l 244 635 b 244 633 244 633 244 633 b 242 751 242 633 242 718 b 243 872 242 792 243 832 b 242 961 243 901 243 932 b 69 964 185 961 126 964 b 58 283 69 738 58 511 b 65 11 58 193 60 101 b 149 3 82 4 114 3 b 256 13 192 3 236 6 b 249 281 256 101 249 190 b 251 364 249 308 250 336 b 249 369 250 365 249 368 l 265 368 b 454 10 328 249 369 115 b 543 6 483 7 513 6 "},"L":{"ha":640,"x_min":0,"x_max":0,"o":"m 642 126 b 646 50 642 111 646 78 b 556 -10 646 1 651 -10 b 358 -12 478 -10 425 -12 b 50 -8 256 -12 151 -8 l 43 0 b 54 521 43 174 54 347 b 47 975 54 672 47 822 l 51 983 b 142 997 74 993 107 997 b 283 972 189 997 274 990 b 279 838 279 928 279 882 b 285 228 279 633 285 431 b 608 215 393 228 501 215 b 638 218 618 215 628 217 b 644 200 640 211 644 210 b 639 146 644 182 639 163 b 642 129 639 140 640 135 l 642 126 m 625 156 b 631 197 625 171 626 186 l 631 203 b 603 201 621 201 613 201 b 306 214 510 201 399 214 b 279 213 297 214 288 214 l 271 221 b 265 833 271 425 265 629 b 269 968 265 878 265 924 b 167 982 236 978 201 982 b 61 971 132 982 96 978 b 68 518 61 819 68 669 b 57 6 68 347 57 175 b 624 7 246 6 435 7 b 633 53 631 21 633 36 b 628 125 633 76 628 103 b 625 156 626 133 625 144 "},"M":{"ha":696,"x_min":0,"x_max":0,"o":"m 579 -4 b 488 -8 547 -4 518 -8 b 438 63 435 -8 438 3 b 439 174 438 101 439 136 b 426 517 439 286 438 403 b 344 331 401 456 388 374 b 274 458 315 331 282 433 b 260 497 268 472 265 485 b 254 340 256 444 254 393 b 268 4 254 229 261 117 b 200 -8 263 -7 225 -8 b 132 -7 179 -8 153 -7 b 79 -8 108 -7 92 -8 b 50 94 50 -8 50 35 l 50 379 b 54 951 50 569 54 761 l 58 960 b 139 969 75 968 106 969 b 251 967 181 969 225 967 b 350 753 304 914 303 804 b 435 969 385 819 378 913 b 458 967 442 968 450 967 b 639 975 518 967 576 975 b 646 968 640 972 643 971 b 643 844 643 926 643 885 b 647 547 643 744 647 646 b 640 -1 647 365 642 179 l 633 -8 m 553 11 b 626 7 578 11 606 10 b 633 522 626 176 633 350 b 629 839 633 628 629 733 b 632 961 629 881 629 921 b 468 951 593 961 518 951 b 436 954 456 951 444 953 b 358 742 399 908 386 769 b 353 739 356 740 354 740 b 249 953 306 739 306 889 b 164 954 221 953 192 954 b 68 947 132 954 99 953 b 60 163 68 686 60 426 b 68 10 60 111 63 60 l 68 7 b 175 6 103 7 139 6 b 254 10 201 6 228 6 b 240 336 247 119 240 228 b 250 529 240 400 243 465 l 250 532 b 254 531 251 532 253 531 l 264 535 b 263 531 264 533 263 532 l 264 531 b 342 344 264 515 325 344 b 426 546 379 390 389 508 b 438 540 429 543 433 542 b 453 175 453 421 453 296 b 451 83 453 144 451 114 b 456 7 451 58 453 32 l 507 7 b 553 11 518 10 535 11 "},"N":{"ha":692,"x_min":0,"x_max":0,"o":"m 461 -7 b 456 -3 458 -6 457 -4 b 329 272 414 89 367 179 b 264 446 306 329 288 388 b 256 208 257 369 256 289 b 260 0 256 140 253 67 b 172 -18 242 -18 197 -18 b 51 3 138 -18 64 -10 b 46 557 51 188 46 372 b 60 974 46 696 49 835 b 125 986 79 983 101 986 b 143 983 132 986 139 985 b 251 965 169 983 240 986 b 324 808 251 932 324 840 b 364 729 333 781 351 756 b 432 592 385 682 410 638 b 438 692 436 625 438 658 b 431 903 438 763 431 832 b 435 979 431 928 432 954 b 542 993 464 993 508 993 b 640 978 564 993 632 993 b 642 0 640 651 642 326 b 635 -7 639 -3 636 -4 l 633 -7 b 589 -14 618 -14 606 -14 b 461 -7 546 -14 504 -7 m 628 7 b 626 972 628 329 626 649 b 540 979 597 976 569 979 b 449 972 510 979 479 976 b 444 882 446 942 444 913 b 451 638 444 800 451 722 b 435 569 451 611 450 585 l 433 569 b 351 724 413 569 364 697 b 310 806 342 742 313 782 b 238 960 294 842 244 924 b 138 971 210 967 150 964 l 114 971 b 99 968 110 968 104 968 l 88 968 b 74 967 82 968 78 968 b 60 557 63 831 60 693 b 65 8 60 374 65 190 b 201 0 128 8 144 0 b 244 4 215 4 231 0 b 240 114 242 40 240 78 b 247 351 240 193 246 272 b 246 392 247 356 246 372 b 261 475 246 429 249 475 l 263 475 b 269 471 264 474 267 472 b 342 278 296 407 315 340 b 465 7 379 186 425 97 b 589 0 526 7 540 0 b 628 7 601 0 614 6 "},"Ñ":{"ha":717,"x_min":0,"x_max":0,"o":"m 244 1038 b 71 1039 189 1042 126 1042 b 272 1285 97 1138 157 1285 b 449 1179 378 1285 383 1192 b 518 1263 486 1186 510 1228 b 579 1272 535 1271 557 1272 b 647 1271 599 1272 624 1272 b 650 1233 647 1260 650 1244 b 486 1031 650 1138 592 1031 b 361 1106 432 1031 374 1056 b 322 1132 354 1118 339 1132 b 267 1121 304 1132 278 1126 l 260 1114 b 249 1081 251 1097 249 1092 b 256 1038 249 1069 256 1053 l 244 1038 m 271 1269 b 92 1056 158 1269 119 1140 l 235 1053 b 232 1076 233 1060 232 1068 b 318 1150 232 1125 282 1150 b 483 1044 376 1150 381 1044 b 638 1229 578 1044 638 1140 b 635 1258 638 1239 636 1249 b 531 1254 606 1256 533 1256 b 449 1165 519 1197 468 1165 b 357 1243 410 1165 389 1218 b 271 1269 332 1263 300 1269 m 664 742 b 669 83 664 522 669 314 b 667 4 669 57 668 29 l 667 1 b 607 -19 658 -15 633 -19 b 506 -11 564 -19 517 -11 b 454 -14 489 -11 471 -14 b 449 -10 451 -12 450 -11 b 292 375 386 113 338 246 b 283 143 286 297 283 221 b 288 0 283 96 285 47 b 247 -14 288 -12 260 -14 b 58 -7 183 -14 121 -7 l 51 1 b 44 564 51 189 44 376 b 60 967 44 699 49 833 b 125 983 74 981 100 983 b 276 956 167 983 269 969 l 276 953 b 336 840 290 913 317 876 l 333 846 b 436 676 367 790 399 731 b 438 726 438 693 438 710 b 428 847 438 767 428 807 b 435 969 428 889 435 929 b 563 988 461 996 539 988 b 665 975 603 988 654 986 b 664 742 665 897 664 819 m 653 6 b 654 83 654 31 654 56 b 651 278 654 150 651 219 l 651 968 b 521 975 613 968 565 975 b 449 965 496 975 471 972 b 440 875 443 936 440 906 b 453 713 440 821 453 769 b 446 656 453 693 451 674 l 433 656 b 308 864 386 722 349 793 b 263 950 294 886 265 917 b 129 969 219 957 174 969 b 74 961 110 969 92 967 b 58 568 61 831 58 699 b 65 7 58 381 65 193 b 97 10 75 7 86 10 b 229 -3 139 10 185 -3 b 272 3 243 -3 258 -1 b 269 128 269 44 269 86 b 281 410 269 222 274 317 b 294 411 285 410 290 410 b 457 1 343 272 393 133 b 489 6 467 4 478 6 b 606 -6 526 6 568 -6 b 650 3 621 -6 636 -4 l 653 6 "},"O":{"ha":671,"x_min":0,"x_max":0,"o":"m 639 676 b 636 554 639 639 636 597 b 574 76 636 440 651 185 b 297 -29 525 8 406 -29 b 39 340 13 -29 46 189 b 32 619 33 433 32 522 b 88 879 32 706 38 806 b 324 981 133 949 226 981 b 563 906 411 981 507 953 b 614 825 586 885 601 853 b 639 676 635 776 639 729 m 336 967 b 99 872 239 967 140 936 b 46 628 53 804 46 711 b 53 342 46 525 47 438 b 82 96 57 263 46 169 b 296 -14 115 17 189 -14 b 563 85 401 -14 517 21 b 624 421 615 158 624 301 b 622 540 624 465 622 507 b 626 675 622 583 626 629 b 601 819 626 725 621 774 b 336 967 557 919 471 967 m 463 578 b 464 501 463 551 464 526 b 460 282 464 428 460 357 b 328 168 460 207 386 168 b 183 442 189 168 192 319 b 181 521 182 467 181 494 b 342 786 181 632 214 786 b 463 581 456 786 446 667 l 463 578 m 422 725 b 338 774 400 758 369 774 b 194 526 229 774 194 638 b 206 372 194 475 201 422 b 232 224 210 322 208 269 b 335 182 258 197 297 182 b 446 283 386 182 446 213 b 450 501 446 358 450 429 b 449 576 450 526 449 551 b 422 725 439 626 451 679 "},"Ó":{"ha":674,"x_min":0,"x_max":0,"o":"m 564 1172 b 424 1039 529 1138 440 1075 b 338 1029 417 1032 389 1029 b 226 1042 289 1029 235 1033 l 226 1053 b 458 1279 308 1122 374 1210 b 564 1181 496 1260 532 1213 l 564 1172 m 549 1176 b 463 1264 519 1206 490 1235 b 244 1050 383 1200 319 1119 b 344 1042 275 1044 310 1042 b 411 1047 368 1042 390 1043 b 549 1176 429 1082 510 1139 m 640 683 b 638 561 640 646 638 604 b 575 83 638 447 653 192 b 299 -22 526 15 407 -22 b 40 347 14 -22 47 196 b 33 626 35 440 33 529 b 89 886 33 713 39 813 b 325 988 135 956 228 988 b 564 913 413 988 508 960 b 615 832 588 892 603 860 b 640 683 636 783 640 736 m 338 974 b 100 879 240 974 142 943 b 47 635 54 811 47 718 b 54 349 47 532 49 444 b 83 103 58 269 47 176 b 299 -8 117 24 192 -8 b 564 92 403 -8 518 28 b 625 428 617 165 625 308 b 624 547 625 472 624 514 b 628 682 624 590 628 636 b 603 826 628 732 622 781 b 338 974 558 926 472 974 m 464 585 b 465 508 464 558 465 533 b 461 289 465 435 461 364 b 329 175 461 214 388 175 b 185 449 190 175 193 326 b 182 528 183 474 182 501 b 343 793 182 639 215 793 b 464 588 457 793 447 674 l 464 585 m 424 732 b 339 781 401 765 371 781 b 196 533 231 781 196 644 b 207 379 196 482 203 429 b 233 231 211 329 210 276 b 336 189 260 204 299 189 b 447 290 388 189 447 219 b 451 508 447 365 451 436 b 450 583 451 533 450 558 b 424 732 440 633 453 686 "},"Ô":{"ha":672,"x_min":0,"x_max":0,"o":"m 569 1043 b 458 1031 533 1043 515 1031 b 350 1092 396 1031 368 1056 l 339 1103 b 218 1033 283 1063 299 1033 b 118 1042 189 1033 149 1036 l 114 1054 b 339 1281 179 1139 260 1207 b 349 1279 342 1279 344 1279 l 575 1054 l 569 1043 m 553 1056 b 343 1265 482 1125 413 1196 b 131 1054 269 1196 193 1133 b 226 1049 142 1053 189 1049 b 335 1117 300 1049 293 1089 l 343 1117 b 397 1058 364 1103 379 1076 l 410 1050 b 493 1047 438 1049 465 1047 b 553 1056 513 1049 532 1054 m 639 683 b 636 561 639 646 636 604 b 574 83 636 447 651 192 b 297 -22 525 15 406 -22 b 39 347 13 -22 46 196 b 32 626 33 440 32 529 b 88 886 32 713 38 813 b 324 988 133 956 226 988 b 563 913 411 988 507 960 b 614 832 586 892 601 860 b 639 683 635 783 639 736 m 336 974 b 99 879 239 974 140 943 b 46 635 53 811 46 718 b 53 349 46 532 47 444 b 82 103 57 269 46 176 b 297 -8 115 24 190 -8 b 563 92 401 -8 517 28 b 624 428 615 165 624 308 b 622 547 624 472 622 514 b 626 682 622 590 626 636 b 601 826 626 732 621 781 b 336 974 557 926 471 974 m 463 585 b 464 508 463 558 464 533 b 460 289 464 435 460 364 b 328 175 460 214 386 175 b 183 449 189 175 192 326 b 181 528 182 474 181 501 b 342 793 181 639 214 793 b 463 588 456 793 446 674 l 463 585 m 422 732 b 338 781 400 765 369 781 b 194 533 229 781 194 644 b 206 379 194 482 201 429 b 232 231 210 329 208 276 b 335 189 258 204 297 189 b 446 290 386 189 446 219 b 450 508 446 365 450 436 b 449 583 450 533 449 558 b 422 732 439 633 451 686 "},"Ö":{"ha":672,"x_min":0,"x_max":0,"o":"m 147 1047 b 132 1100 133 1054 132 1081 b 139 1193 132 1132 139 1167 l 143 1201 b 224 1214 160 1208 192 1214 b 304 1193 260 1214 296 1210 b 289 1046 296 1150 306 1081 b 151 1047 243 1046 197 1047 l 147 1047 m 389 1047 b 374 1100 375 1054 374 1081 b 381 1193 374 1132 381 1167 l 385 1201 b 465 1214 401 1208 433 1214 b 546 1193 501 1214 538 1210 b 531 1046 538 1150 547 1081 b 393 1047 485 1046 439 1047 l 389 1047 m 282 1060 b 289 1192 282 1101 282 1149 b 236 1200 274 1197 256 1200 b 153 1190 207 1200 175 1194 b 146 1097 153 1164 146 1128 b 151 1061 146 1083 147 1071 b 282 1060 194 1061 238 1060 m 524 1060 b 531 1192 524 1101 524 1149 b 478 1200 515 1197 497 1200 b 394 1190 449 1200 417 1194 b 388 1097 394 1164 388 1128 b 393 1061 388 1083 389 1071 b 524 1060 436 1061 479 1060 m 639 683 b 636 561 639 646 636 604 b 574 83 636 447 651 192 b 297 -22 525 15 406 -22 b 39 347 13 -22 46 196 b 32 626 33 440 32 529 b 88 886 32 713 38 813 b 324 988 133 956 226 988 b 563 913 411 988 507 960 b 614 832 586 892 601 860 b 639 683 635 783 639 736 m 336 974 b 99 879 239 974 140 943 b 46 635 53 811 46 718 b 53 349 46 532 47 444 b 82 103 57 269 46 176 b 297 -8 115 24 190 -8 b 563 92 401 -8 517 28 b 624 428 615 165 624 308 b 622 547 624 472 622 514 b 626 682 622 590 626 636 b 601 826 626 732 621 781 b 336 974 557 926 471 974 m 463 585 b 464 508 463 558 464 533 b 460 289 464 435 460 364 b 328 175 460 214 386 175 b 183 449 189 175 192 326 b 181 528 182 474 181 501 b 342 793 181 639 214 793 b 463 588 456 793 446 674 l 463 585 m 422 732 b 338 781 400 765 369 781 b 194 533 229 781 194 644 b 206 379 194 482 201 429 b 232 231 210 329 208 276 b 335 189 258 204 297 189 b 446 290 386 189 446 219 b 450 508 446 365 450 436 b 449 583 450 533 449 558 b 422 732 439 633 451 686 "},"Ò":{"ha":674,"x_min":0,"x_max":0,"o":"m 192 1279 b 365 1111 256 1232 311 1169 b 424 1053 383 1092 401 1069 l 424 1042 b 311 1029 406 1032 356 1029 b 228 1039 269 1029 228 1031 b 88 1171 207 1078 88 1150 l 88 1182 b 183 1279 119 1214 151 1246 l 192 1279 m 100 1176 b 238 1047 131 1149 222 1078 b 306 1042 247 1044 275 1042 b 404 1050 340 1042 382 1044 b 356 1101 386 1065 371 1083 b 188 1264 303 1158 249 1218 m 640 683 b 638 561 640 646 638 604 b 575 83 638 447 653 192 b 299 -22 526 15 407 -22 b 40 347 14 -22 47 196 b 33 626 35 440 33 529 b 89 886 33 713 39 813 b 325 988 135 956 228 988 b 564 913 413 988 508 960 b 615 832 588 892 603 860 b 640 683 636 783 640 736 m 338 974 b 100 879 240 974 142 943 b 47 635 54 811 47 718 b 54 349 47 532 49 444 b 83 103 58 269 47 176 b 299 -8 117 24 192 -8 b 564 92 403 -8 518 28 b 625 428 617 165 625 308 b 624 547 625 472 624 514 b 628 682 624 590 628 636 b 603 826 628 732 622 781 b 338 974 558 926 472 974 m 464 585 b 465 508 464 558 465 533 b 461 289 465 435 461 364 b 329 175 461 214 388 175 b 185 449 190 175 193 326 b 182 528 183 474 182 501 b 343 793 182 639 215 793 b 464 588 457 793 447 674 l 464 585 m 424 732 b 339 781 401 765 371 781 b 196 533 231 781 196 644 b 207 379 196 482 203 429 b 233 231 211 329 210 276 b 336 189 260 204 299 189 b 447 290 388 189 447 219 b 451 508 447 365 451 436 b 450 583 451 533 450 558 b 424 732 440 633 453 686 "},"Ø":{"ha":665,"x_min":0,"x_max":0,"o":"m 631 390 b 364 -6 631 213 608 -6 b 297 -4 342 -6 319 -3 b 231 -32 272 -6 228 -18 b 157 -39 217 -36 183 -39 b 82 -35 115 -39 106 -35 b 47 -36 71 -35 58 -35 b 42 -35 46 -35 43 -35 l 40 -33 l 38 -26 b 76 94 38 -7 68 94 b 32 471 44 219 32 344 b 35 564 32 501 33 533 b 304 985 42 750 28 985 b 382 979 329 985 357 983 b 396 1011 382 979 383 1011 b 461 1008 417 1011 439 1008 b 535 1013 486 1008 510 1013 b 596 994 556 1013 579 1010 b 569 907 596 964 569 936 b 571 899 569 904 571 901 b 636 674 621 835 636 754 b 633 603 636 650 635 626 b 631 390 631 532 631 461 m 622 674 b 600 819 622 724 617 771 b 556 910 589 850 556 879 b 582 990 556 938 582 961 b 532 1000 567 999 550 1000 b 436 992 501 1000 468 992 b 400 997 424 992 411 993 b 397 992 399 996 397 993 b 386 967 397 971 393 974 b 307 971 360 969 333 971 b 56 676 78 971 60 813 b 47 507 54 619 47 564 l 47 399 b 76 156 47 313 60 229 b 89 99 79 143 89 110 l 89 93 b 51 -21 89 64 54 15 b 92 -18 64 -19 78 -18 b 174 -24 121 -18 144 -24 b 247 4 203 -24 222 -22 b 444 18 311 4 381 3 b 617 403 607 56 617 256 b 619 604 617 542 618 533 b 622 674 621 628 622 650 m 190 385 b 182 425 185 396 182 410 b 203 594 182 482 197 538 b 254 763 208 657 199 721 b 325 789 275 778 297 789 b 332 782 326 786 329 785 b 307 697 332 765 313 714 b 203 385 272 593 235 490 l 190 385 m 196 413 b 317 775 235 533 279 654 b 263 751 296 775 278 763 b 206 504 189 696 231 582 b 196 413 206 478 196 442 m 454 549 b 463 365 454 503 463 431 b 439 238 463 314 457 265 b 319 174 418 206 358 174 b 311 183 318 174 314 181 b 442 551 353 306 393 432 l 454 549 m 449 376 b 440 513 449 421 443 467 b 328 189 399 406 363 297 b 424 242 364 199 397 213 b 446 324 443 263 443 297 b 449 376 449 342 449 358 "},"Õ":{"ha":672,"x_min":0,"x_max":0,"o":"m 217 1025 b 149 1031 194 1029 169 1024 b 54 1029 117 1031 86 1029 l 47 1038 b 244 1272 72 1136 135 1272 b 421 1167 350 1272 356 1179 b 490 1250 458 1174 482 1215 b 551 1260 507 1258 529 1260 b 590 1258 565 1260 578 1258 b 611 1260 597 1258 604 1260 b 617 1257 613 1258 614 1258 l 618 1256 b 622 1221 618 1244 622 1232 b 458 1018 622 1125 564 1018 b 333 1093 404 1018 346 1043 b 294 1119 326 1106 311 1119 b 239 1108 276 1119 250 1114 l 232 1101 b 221 1068 224 1085 221 1079 b 224 1032 221 1057 224 1047 l 217 1025 m 207 1040 b 204 1064 206 1047 204 1056 b 290 1138 204 1113 254 1138 b 456 1032 349 1138 353 1032 b 610 1217 550 1032 610 1128 b 607 1246 610 1226 608 1236 b 503 1242 578 1243 506 1243 b 421 1153 492 1185 440 1153 b 329 1231 382 1153 361 1206 b 243 1257 304 1250 272 1257 b 64 1043 131 1257 92 1128 b 126 1047 83 1043 106 1047 b 156 1043 136 1047 146 1046 b 207 1040 172 1043 189 1043 m 639 683 b 636 561 639 646 636 604 b 574 83 636 447 651 192 b 297 -22 525 15 406 -22 b 39 347 13 -22 46 196 b 32 626 33 440 32 529 b 88 886 32 713 38 813 b 324 988 133 956 226 988 b 563 913 411 988 507 960 b 614 832 586 892 601 860 b 639 683 635 783 639 736 m 336 974 b 99 879 239 974 140 943 b 46 635 53 811 46 718 b 53 349 46 532 47 444 b 82 103 57 269 46 176 b 297 -8 115 24 190 -8 b 563 92 401 -8 517 28 b 624 428 615 165 624 308 b 622 547 624 472 622 514 b 626 682 622 590 626 636 b 601 826 626 732 621 781 b 336 974 557 926 471 974 m 463 585 b 464 508 463 558 464 533 b 460 289 464 435 460 364 b 328 175 460 214 386 175 b 183 449 189 175 192 326 b 181 528 182 474 181 501 b 342 793 181 639 214 793 b 463 588 456 793 446 674 l 463 585 m 422 732 b 338 781 400 765 369 781 b 194 533 229 781 194 644 b 206 379 194 482 201 429 b 232 231 210 329 208 276 b 335 189 258 204 297 189 b 446 290 386 189 446 219 b 450 508 446 365 450 436 b 449 583 450 533 449 558 b 422 732 439 633 451 686 "},"Œ":{"ha":1153,"x_min":0,"x_max":0,"o":"m 1138 114 b 1115 -3 1138 81 1139 21 b 604 -10 944 -3 775 -10 b 326 -29 522 -10 431 -29 b 26 353 71 -29 26 163 b 39 578 26 433 35 513 b 58 792 43 649 39 722 b 311 976 90 904 196 976 b 622 971 408 976 519 971 b 1126 976 790 971 958 976 b 1136 914 1133 961 1136 938 b 1129 765 1136 858 1136 813 b 1018 747 1122 750 1065 747 b 963 749 994 747 974 749 b 760 740 894 749 826 750 b 754 651 758 713 754 681 b 764 592 754 631 757 610 b 815 588 781 589 799 588 b 897 589 844 588 869 589 b 936 579 914 589 931 588 l 936 578 b 938 576 936 576 936 576 l 939 371 b 803 369 894 376 844 369 b 769 372 790 369 778 371 b 760 297 763 357 760 328 b 774 204 760 261 764 222 b 1129 197 892 204 1013 206 b 1135 190 1131 194 1133 193 l 1135 188 b 1138 114 1136 164 1138 139 m 1122 117 b 1121 183 1122 139 1122 161 b 769 190 1004 192 886 190 b 747 306 754 197 747 257 b 767 386 747 342 753 386 l 822 386 b 924 386 858 390 892 388 b 928 511 924 426 928 469 b 924 574 928 532 926 553 b 878 576 908 576 893 576 b 811 575 856 576 833 575 b 760 579 793 575 776 576 b 740 651 742 588 740 631 b 746 744 740 682 746 715 b 815 761 754 760 781 761 b 946 760 863 761 901 760 b 1117 771 1003 760 1060 763 b 1121 853 1119 797 1121 825 b 1119 963 1121 890 1119 928 b 621 957 954 963 788 957 b 308 964 515 957 403 964 b 200 940 271 964 235 958 b 54 604 58 867 61 740 b 43 351 50 519 43 435 b 325 -14 43 164 78 -14 b 604 4 432 -14 522 1 b 1110 11 772 10 940 11 b 1122 117 1119 46 1122 81 m 471 694 b 483 588 481 660 483 624 b 479 493 483 556 482 524 b 442 250 474 414 474 325 b 325 161 422 206 369 161 b 208 381 238 161 208 297 b 214 528 208 429 214 481 b 210 632 214 560 210 596 b 338 793 210 733 267 793 b 426 761 367 793 399 782 b 469 696 450 743 456 719 l 471 694 m 458 689 b 340 779 426 740 401 779 b 224 629 268 779 224 721 b 228 524 224 593 228 558 b 225 390 228 479 225 435 b 331 178 225 282 254 178 b 469 556 432 178 469 340 b 457 690 469 611 465 660 l 458 689 "},"P":{"ha":690,"x_min":0,"x_max":0,"o":"m 681 663 b 344 353 681 503 507 353 b 299 357 329 353 314 354 b 304 15 299 243 304 129 l 299 10 b 301 11 300 11 300 11 l 300 10 b 294 7 299 8 296 8 l 296 7 b 154 -8 265 -3 207 -8 b 54 7 110 -8 67 -6 b 46 275 49 96 46 185 b 51 710 46 419 51 564 b 44 964 51 794 50 879 l 51 972 b 261 999 115 988 188 999 b 679 681 450 999 679 908 b 681 663 679 676 681 669 m 250 982 b 58 960 182 982 115 974 b 64 714 63 878 64 796 b 60 272 64 567 60 419 b 67 14 60 186 61 100 b 150 7 86 8 117 7 b 290 19 200 7 258 11 b 285 364 290 111 285 254 l 293 372 b 344 367 310 368 328 367 b 663 632 493 367 638 486 b 665 656 664 638 663 650 l 665 682 b 250 982 665 910 440 982 m 479 653 b 279 556 479 557 351 556 b 243 724 235 556 243 683 b 250 776 243 744 244 765 l 251 778 b 294 785 265 778 279 785 b 433 746 343 785 392 778 b 479 653 461 726 479 688 m 328 768 b 261 765 307 768 286 765 b 260 681 261 738 260 708 b 272 569 260 639 263 599 l 288 569 b 308 572 294 571 301 572 b 338 571 318 572 328 571 b 465 671 407 574 465 590 b 425 735 457 699 450 717 b 328 768 388 763 360 768 "},"Þ":{"ha":664,"x_min":0,"x_max":0,"o":"m 44 -10 b 54 329 49 101 54 217 b 47 897 54 522 47 694 b 61 1021 47 956 50 1014 l 250 1017 b 257 1010 251 1014 254 1013 l 260 842 b 404 888 290 885 374 888 b 608 732 488 888 582 797 b 643 544 632 672 643 608 b 417 176 643 371 561 176 b 261 243 364 176 308 200 b 253 33 260 172 253 106 b 258 8 253 24 254 15 b 186 -15 249 -11 224 -15 b 72 -10 149 -15 104 -10 l 44 -10 m 260 264 b 425 192 301 222 364 192 b 628 549 553 192 628 360 b 379 871 628 713 560 871 b 260 811 331 858 279 871 l 246 815 l 243 1003 l 68 1007 b 63 782 64 932 63 857 b 68 325 63 631 68 478 b 58 4 68 217 64 111 b 186 -3 96 4 140 -3 b 243 8 207 -3 226 0 b 239 40 240 18 239 29 b 247 258 239 115 247 179 l 260 264 m 474 535 b 342 372 474 451 428 372 b 247 489 285 372 247 399 b 249 549 247 511 249 533 b 246 610 249 558 246 583 b 318 699 246 676 267 699 b 464 606 378 699 450 674 b 474 535 471 583 474 556 m 313 685 b 260 607 263 685 260 644 b 263 547 260 586 263 564 b 261 490 263 529 261 510 b 342 386 261 438 271 386 b 458 546 429 386 458 471 b 450 601 451 560 456 585 b 313 685 438 667 367 685 "},"Q":{"ha":688,"x_min":0,"x_max":0,"o":"m 603 108 b 629 65 613 92 629 83 b 529 -17 629 26 564 -17 b 469 22 508 -17 486 1 b 331 -17 436 -7 375 -17 b 74 129 228 -17 124 38 b 31 363 39 193 31 278 b 35 531 31 424 35 482 b 68 867 35 608 32 793 b 368 999 121 976 256 999 b 515 972 408 999 472 997 b 656 506 656 888 656 654 b 650 346 656 453 654 399 b 640 226 647 306 649 267 b 603 108 639 186 618 142 m 626 231 b 636 347 635 269 633 307 b 642 547 640 414 642 481 b 561 911 642 668 633 811 b 365 985 507 985 428 985 b 81 861 261 985 125 965 b 47 564 53 794 47 671 b 49 426 47 510 49 460 b 47 339 49 399 47 369 b 85 135 47 269 51 196 b 332 -1 132 47 235 -1 b 468 39 374 -1 433 4 b 521 -4 481 32 501 7 b 614 71 564 -4 614 39 l 610 79 b 589 106 601 86 593 96 l 589 111 b 626 228 603 144 626 190 l 626 231 m 390 310 b 321 254 349 268 331 272 b 379 165 321 217 356 189 b 358 151 374 153 368 151 b 200 382 208 151 200 281 b 206 454 200 408 197 431 b 201 518 206 474 201 496 b 318 794 201 714 219 794 b 483 546 481 794 483 681 b 488 426 483 503 488 476 b 469 261 488 399 469 297 b 471 253 469 258 471 254 b 460 247 467 251 463 250 b 413 315 440 267 433 294 l 403 315 b 390 310 399 314 394 311 m 460 268 b 469 358 460 294 461 333 b 468 382 469 364 468 374 b 471 483 468 403 471 436 b 329 781 471 651 479 781 b 217 581 232 781 217 725 b 222 499 217 542 222 526 b 215 350 222 450 215 401 b 358 167 215 254 232 167 b 306 250 343 182 306 219 b 363 303 306 279 339 286 b 408 329 378 314 386 329 b 460 268 438 329 446 288 "},"R":{"ha":719,"x_min":0,"x_max":0,"o":"m 718 -3 b 486 -6 640 -3 563 -6 b 481 -1 483 -4 482 -3 b 390 188 449 61 424 125 b 294 335 361 240 328 285 b 289 240 290 308 289 275 b 304 15 289 163 296 71 b 171 -10 292 -10 204 -10 b 56 -7 131 -10 92 -7 l 51 4 b 50 1 51 3 50 1 b 54 78 54 26 54 51 b 47 743 54 300 47 521 b 39 969 47 815 50 896 l 46 978 b 308 1006 124 992 217 1006 b 703 699 500 1006 703 917 b 479 418 703 565 622 426 b 725 3 561 279 668 154 b 718 8 722 4 721 7 m 707 11 b 542 297 665 113 603 204 b 463 424 518 332 469 385 l 469 432 b 689 697 608 432 689 569 b 322 990 689 928 478 990 b 231 986 292 990 261 988 l 233 986 b 54 965 174 982 114 976 b 57 933 56 954 57 944 b 69 67 57 643 69 356 b 65 7 69 46 68 26 b 178 4 100 7 139 4 b 290 19 217 4 256 7 b 275 247 283 76 275 168 b 283 356 275 289 278 328 b 296 358 288 357 292 357 b 403 193 332 303 372 253 b 490 8 433 132 460 69 b 707 11 563 8 635 11 m 246 783 b 344 806 275 796 310 806 b 463 696 418 806 463 756 b 356 592 463 642 429 592 b 256 599 319 592 281 599 b 240 647 244 610 240 628 b 244 707 240 668 244 692 b 242 731 244 714 242 722 b 243 756 242 739 243 747 l 246 783 m 346 790 b 256 771 314 790 282 782 l 256 763 b 258 724 257 760 258 743 b 257 656 258 701 257 675 b 261 613 257 628 258 626 b 340 604 281 608 311 604 b 450 692 422 604 450 640 b 406 776 450 725 435 758 b 346 790 388 786 367 790 "},"S":{"ha":674,"x_min":0,"x_max":0,"o":"m 525 640 b 431 653 493 640 461 644 l 426 661 b 428 675 428 667 428 671 b 342 750 428 721 383 750 b 264 675 307 750 264 728 b 381 600 264 604 340 611 b 649 286 551 554 649 428 b 343 -15 649 89 504 -15 b 10 261 182 -15 10 85 b 63 297 10 299 31 297 b 236 288 86 297 222 301 b 331 206 240 232 286 206 b 411 278 372 206 411 229 b 190 413 411 388 268 393 b 24 654 97 435 24 564 b 350 979 24 833 149 979 b 656 731 499 979 656 900 b 650 658 656 707 653 683 b 525 640 632 640 557 640 m 528 653 b 636 664 564 653 600 658 b 643 733 640 688 643 711 b 346 967 643 888 488 967 b 38 663 164 967 38 828 b 192 426 38 579 99 450 b 426 278 275 406 426 404 b 329 192 426 221 378 192 b 222 281 279 192 226 221 b 79 283 175 281 128 283 b 24 281 61 283 42 283 b 343 0 24 103 172 0 b 635 285 496 0 635 97 b 444 564 635 403 564 507 b 250 674 386 592 250 578 b 340 763 250 736 297 763 b 443 679 390 763 443 731 l 442 665 b 528 653 469 657 499 653 "},"Š":{"ha":674,"x_min":0,"x_max":0,"o":"m 342 1033 b 108 1269 261 1106 174 1185 l 249 1279 b 342 1210 292 1282 303 1238 b 449 1285 378 1246 393 1285 l 586 1267 b 351 1035 511 1192 426 1110 b 342 1033 347 1035 344 1035 m 242 1265 b 135 1257 208 1263 172 1256 b 346 1049 199 1179 269 1115 b 556 1257 415 1118 485 1188 b 450 1265 519 1257 486 1265 b 339 1196 382 1265 382 1218 b 279 1256 324 1201 283 1246 b 256 1265 269 1265 260 1264 l 242 1265 m 426 661 b 428 675 428 667 428 671 b 342 750 428 721 383 750 b 264 675 307 750 264 728 b 381 600 264 604 340 611 b 649 286 551 554 649 428 b 343 -15 649 89 504 -15 b 10 261 182 -15 10 85 b 63 297 10 299 31 297 b 236 288 86 297 222 301 b 331 206 240 232 286 206 b 411 278 372 206 411 229 b 190 413 411 388 268 393 b 24 654 97 435 24 564 b 350 979 24 833 149 979 b 656 731 499 979 656 900 b 650 658 656 707 653 683 b 525 640 632 640 557 640 b 431 653 493 640 461 644 m 340 763 b 443 679 390 763 443 731 l 442 665 b 528 653 469 657 499 653 b 636 664 564 653 600 658 b 643 733 640 688 643 711 b 346 967 643 888 488 967 b 38 663 164 967 38 828 b 192 426 38 579 99 450 b 426 278 275 406 426 404 b 329 192 426 221 378 192 b 222 281 279 192 226 221 b 79 283 175 281 128 283 b 24 281 61 283 42 283 b 343 0 24 103 172 0 b 635 285 496 0 635 97 b 444 564 635 403 564 507 b 250 674 386 592 250 578 b 340 763 250 736 297 763 "},"T":{"ha":615,"x_min":0,"x_max":0,"o":"m 14 985 b 608 975 208 985 413 993 l 608 833 b 594 743 608 801 607 768 b 539 749 576 747 558 749 b 426 743 501 749 463 743 b 424 578 426 688 424 632 b 433 8 424 388 433 197 b 374 -6 428 -4 396 -6 b 264 -1 338 -6 300 -1 b 200 -8 242 -1 221 -3 b 189 21 190 -3 189 10 b 193 179 189 74 193 126 b 189 729 193 363 194 544 b 104 747 167 740 131 747 b 36 746 76 747 58 746 b 4 803 7 746 4 772 b 6 839 4 817 6 831 l 6 907 b 8 976 6 929 4 953 l 7 976 l 14 985 m 589 758 b 594 872 593 796 594 835 b 593 958 594 901 594 929 b 21 971 401 976 213 971 b 15 864 18 960 15 911 b 25 763 15 819 18 776 b 64 758 36 760 50 758 b 119 760 82 758 101 760 b 206 726 146 760 206 751 b 203 564 206 694 203 607 b 207 181 203 436 207 308 b 201 50 207 147 201 94 b 204 7 201 33 203 19 b 263 11 224 11 243 11 b 360 8 294 11 328 8 b 418 14 379 8 399 10 b 410 679 408 233 410 458 l 410 725 b 413 747 410 733 411 747 l 413 746 b 522 763 413 761 483 763 b 589 758 544 763 567 763 m 414 750 b 415 753 414 750 414 751 l 417 754 l 414 750 "},"U":{"ha":701,"x_min":0,"x_max":0,"o":"m 658 929 b 664 671 661 843 664 757 b 657 389 664 576 661 483 b 601 90 653 306 654 167 b 356 -31 533 -8 443 -31 b 56 142 235 -31 100 24 b 42 253 44 171 42 211 b 51 942 42 481 50 749 b 169 956 57 957 138 956 b 260 938 193 956 250 956 b 257 610 260 828 257 719 b 263 383 257 535 263 458 b 261 336 263 372 261 354 b 353 201 261 278 271 201 b 435 376 418 201 435 236 b 442 935 435 563 433 749 b 579 951 469 949 540 951 b 656 935 604 951 631 947 l 658 929 m 650 669 b 644 924 650 754 647 839 b 578 938 624 933 601 938 b 456 926 538 938 496 926 b 446 328 446 726 451 528 b 343 186 439 235 425 186 b 244 460 225 186 250 360 b 239 664 240 528 239 596 b 246 932 239 754 242 843 b 147 939 213 938 181 939 b 64 938 119 939 92 938 b 56 250 64 704 56 482 b 68 147 56 215 58 179 b 368 -17 99 40 243 -17 b 643 390 646 -17 636 240 b 650 669 647 483 650 576 "},"Ú":{"ha":701,"x_min":0,"x_max":0,"o":"m 588 1172 b 447 1039 553 1138 464 1075 b 361 1029 440 1032 413 1029 b 250 1042 313 1029 258 1033 l 250 1053 b 482 1279 332 1122 397 1210 b 588 1181 519 1260 556 1213 l 588 1172 m 572 1176 b 486 1264 543 1206 514 1235 b 268 1050 407 1200 343 1119 b 368 1042 299 1044 333 1042 b 435 1047 392 1042 414 1043 b 572 1176 453 1082 533 1139 m 664 671 b 657 389 664 576 661 483 b 601 90 653 306 654 167 b 356 -31 533 -8 443 -31 b 56 142 235 -31 100 24 b 42 253 44 171 42 211 b 51 942 42 481 50 749 b 169 956 57 957 138 956 b 260 938 193 956 250 956 b 257 610 260 828 257 719 b 263 383 257 535 263 458 b 261 336 263 372 261 354 b 353 201 261 278 271 201 b 435 376 418 201 435 236 b 442 935 435 563 433 749 b 582 951 468 949 542 951 b 658 931 607 951 639 949 l 658 929 b 664 671 661 843 664 757 m 650 669 b 644 925 650 754 647 840 b 581 938 624 933 601 938 b 456 926 539 938 496 926 b 446 328 446 726 451 528 b 343 186 439 235 425 186 b 244 460 225 186 250 360 b 239 664 240 528 239 596 b 246 932 239 754 242 843 b 147 939 213 938 181 939 b 64 938 119 939 92 938 b 56 250 64 704 56 482 b 68 147 56 215 58 179 b 368 -17 99 40 243 -17 b 643 390 646 -17 636 240 b 650 669 647 483 650 576 "},"Û":{"ha":701,"x_min":0,"x_max":0,"o":"m 571 1043 b 460 1031 535 1043 517 1031 b 351 1092 397 1031 369 1056 l 340 1103 b 219 1033 285 1063 300 1033 b 119 1042 190 1033 150 1036 l 115 1054 b 340 1281 181 1139 261 1207 b 350 1279 343 1279 346 1279 l 576 1054 l 571 1043 m 554 1056 b 344 1265 483 1125 414 1196 b 132 1054 271 1196 194 1133 b 228 1049 143 1053 190 1049 b 336 1117 301 1049 294 1089 l 344 1117 b 399 1058 365 1103 381 1076 l 411 1050 b 494 1047 439 1049 467 1047 b 554 1056 514 1049 533 1054 m 664 671 b 657 389 664 576 661 483 b 601 90 653 306 654 167 b 356 -31 533 -8 443 -31 b 56 142 235 -31 100 24 b 42 253 44 171 42 211 b 51 942 42 481 50 749 b 169 956 57 957 138 956 b 260 938 193 956 250 956 b 257 610 260 828 257 719 b 263 383 257 535 263 458 b 261 336 263 372 261 354 b 353 201 261 278 271 201 b 435 376 418 201 435 236 b 442 935 435 563 433 749 b 582 951 468 949 542 951 b 658 931 607 951 639 949 l 658 929 b 664 671 661 843 664 757 m 650 669 b 644 925 650 754 647 840 b 581 938 624 933 601 938 b 456 926 539 938 496 926 b 446 328 446 726 451 528 b 343 186 439 235 425 186 b 244 460 225 186 250 360 b 239 664 240 528 239 596 b 246 932 239 754 242 843 b 147 939 213 938 181 939 b 64 938 119 939 92 938 b 56 250 64 704 56 482 b 68 147 56 215 58 179 b 368 -17 99 40 243 -17 b 643 390 646 -17 636 240 b 650 669 647 483 650 576 "},"Ü":{"ha":701,"x_min":0,"x_max":0,"o":"m 156 1047 b 140 1100 142 1054 140 1081 b 147 1193 140 1132 147 1167 l 151 1201 b 232 1214 168 1208 200 1214 b 313 1193 268 1214 304 1210 b 297 1046 304 1150 314 1081 b 160 1047 251 1046 206 1047 l 156 1047 m 397 1047 b 382 1100 383 1054 382 1081 b 389 1193 382 1132 389 1167 l 393 1201 b 474 1214 410 1208 442 1214 b 554 1193 510 1214 546 1210 b 539 1046 546 1150 556 1081 b 401 1047 493 1046 447 1047 l 397 1047 m 290 1060 b 297 1192 290 1101 290 1149 b 244 1200 282 1197 264 1200 b 161 1190 215 1200 183 1194 b 154 1097 161 1164 154 1128 b 160 1061 154 1083 156 1071 b 290 1060 203 1061 246 1060 m 532 1060 b 539 1192 532 1101 532 1149 b 486 1200 524 1197 506 1200 b 403 1190 457 1200 425 1194 b 396 1097 403 1164 396 1128 b 401 1061 396 1083 397 1071 b 532 1060 444 1061 488 1060 m 664 671 b 657 389 664 576 661 483 b 601 90 653 306 654 167 b 356 -31 533 -8 443 -31 b 56 142 235 -31 100 24 b 42 253 44 171 42 211 b 51 942 42 481 50 749 b 169 956 57 957 138 956 b 260 938 193 956 250 956 b 257 610 260 828 257 719 b 263 383 257 535 263 458 b 261 336 263 372 261 354 b 353 201 261 278 271 201 b 435 376 418 201 435 236 b 442 935 435 563 433 749 b 582 951 468 949 542 951 b 658 931 607 951 639 949 l 658 929 b 664 671 661 843 664 757 m 650 669 b 644 925 650 754 647 840 b 581 938 624 933 601 938 b 456 926 539 938 496 926 b 446 328 446 726 451 528 b 343 186 439 235 425 186 b 244 460 225 186 250 360 b 239 664 240 528 239 596 b 246 932 239 754 242 843 b 147 939 213 938 181 939 b 64 938 119 939 92 938 b 56 250 64 704 56 482 b 68 147 56 215 58 179 b 368 -17 99 40 243 -17 b 643 390 646 -17 636 240 b 650 669 647 483 650 576 "},"Ù":{"ha":701,"x_min":0,"x_max":0,"o":"m 232 1279 b 406 1111 296 1232 351 1169 b 464 1053 424 1092 442 1069 l 464 1042 b 351 1029 446 1032 396 1029 b 268 1039 310 1029 268 1031 b 128 1171 247 1078 128 1150 l 128 1182 b 224 1279 160 1214 192 1246 l 232 1279 m 140 1176 b 278 1047 171 1149 263 1078 b 346 1042 288 1044 315 1042 b 444 1050 381 1042 422 1044 b 396 1101 426 1065 411 1083 b 228 1264 343 1158 289 1218 m 664 671 b 657 389 664 576 661 483 b 601 90 653 306 654 167 b 356 -31 533 -8 443 -31 b 56 142 235 -31 100 24 b 42 253 44 171 42 211 b 51 942 42 481 50 749 b 169 956 57 957 138 956 b 260 938 193 956 250 956 b 257 610 260 828 257 719 b 263 383 257 535 263 458 b 261 336 263 372 261 354 b 353 201 261 278 271 201 b 435 376 418 201 435 236 b 442 935 435 563 433 749 b 582 951 468 949 542 951 b 658 931 607 951 639 949 l 658 929 b 664 671 661 843 664 757 m 650 669 b 644 925 650 754 647 840 b 581 938 624 933 601 938 b 456 926 539 938 496 926 b 446 328 446 726 451 528 b 343 186 439 235 425 186 b 244 460 225 186 250 360 b 239 664 240 528 239 596 b 246 932 239 754 242 843 b 147 939 213 938 181 939 b 64 938 119 939 92 938 b 56 250 64 704 56 482 b 68 147 56 215 58 179 b 368 -17 99 40 243 -17 b 643 390 646 -17 636 240 b 650 669 647 483 650 576 "},"V":{"ha":611,"x_min":0,"x_max":0,"o":"m 625 947 b 394 -1 563 629 486 311 b 303 -11 376 -10 338 -11 b 178 6 281 -11 204 -21 b 28 800 104 264 51 568 l 19 896 b 15 947 18 908 17 939 b 132 975 35 967 75 975 b 236 888 238 975 236 963 l 236 853 b 293 339 236 685 250 506 b 408 961 335 538 394 961 l 408 960 l 413 968 b 415 969 414 968 414 968 l 419 969 b 460 964 432 965 446 964 b 511 965 478 964 494 965 b 619 957 539 965 588 965 m 382 8 b 610 944 472 315 549 629 b 542 949 581 944 558 943 b 485 947 522 949 504 947 b 421 954 464 947 442 949 b 375 701 397 872 390 786 b 300 307 351 569 332 438 b 286 308 296 308 290 308 b 222 794 247 465 222 635 b 214 956 222 849 225 906 b 131 961 199 958 165 961 b 29 944 89 961 46 957 b 190 13 56 629 104 317 b 264 1 213 4 238 1 b 382 8 304 1 346 8 "},"W":{"ha":646,"x_min":0,"x_max":0,"o":"m 626 967 b 535 7 599 646 563 328 b 485 -7 522 -6 507 -7 b 414 -3 458 -7 431 -3 b 331 229 378 -3 354 185 b 261 6 288 174 304 57 b 213 -4 254 -1 235 -4 b 142 0 186 -4 157 -1 b 139 0 142 -3 142 -6 l 133 0 b 126 6 131 1 129 4 b 25 965 81 322 25 658 b 89 979 38 978 65 979 b 231 976 138 979 183 976 b 244 881 243 950 244 914 b 240 629 244 796 240 711 b 260 419 240 558 244 488 b 319 647 279 485 297 601 l 321 649 b 397 406 361 626 372 485 b 410 794 404 535 404 664 l 414 899 b 419 964 415 915 418 964 l 419 963 l 424 971 b 503 981 447 979 475 981 b 563 979 524 981 544 979 b 625 971 572 979 614 982 m 522 13 b 611 963 550 329 585 644 b 547 965 590 965 568 965 b 433 958 508 965 471 963 b 408 372 411 764 431 567 b 396 369 404 371 400 369 b 326 625 361 450 361 544 b 267 388 304 547 283 467 b 253 389 263 389 257 389 b 229 639 233 471 229 556 b 231 817 229 699 231 757 b 225 963 231 865 229 914 b 107 965 185 963 147 965 b 39 961 85 965 61 964 b 139 14 49 642 93 328 b 208 8 163 13 186 8 b 251 15 224 8 238 10 b 331 247 272 51 292 247 l 332 247 b 417 11 376 203 382 46 b 485 7 431 11 458 7 b 522 13 499 7 513 8 "},"X":{"ha":606,"x_min":0,"x_max":0,"o":"m 617 967 b 493 597 575 844 525 724 b 467 474 482 557 467 515 b 503 322 467 424 489 369 b 596 6 533 217 569 111 b 500 -7 588 -6 544 -7 b 399 1 457 -7 413 -8 b 368 81 385 10 372 67 b 306 306 347 153 339 235 b 208 0 263 208 256 96 b 201 -4 206 -1 203 -3 l 200 -4 b 135 -11 186 -8 161 -11 b 10 6 89 -11 35 -6 l 6 14 b 150 482 47 172 113 322 b -7 954 113 644 56 800 b 156 974 0 968 100 974 b 235 896 235 974 222 933 b 301 665 258 819 275 740 b 390 967 338 764 357 867 l 390 965 b 476 981 403 978 440 981 b 550 979 504 981 532 979 b 585 981 558 979 572 981 b 618 972 599 981 611 979 l 617 969 l 617 967 m 600 965 b 403 960 535 965 467 967 b 308 646 369 857 357 743 l 296 646 b 251 790 272 690 265 743 b 203 951 236 844 217 897 l 203 953 l 196 956 b 8 950 133 956 72 954 b 135 606 56 838 101 722 b 164 479 143 576 164 504 b 21 17 132 321 63 172 b 96 4 43 7 69 4 b 197 10 129 4 165 8 b 300 324 244 108 249 225 b 311 325 303 325 307 325 b 344 232 332 304 338 258 b 407 13 363 158 374 79 b 479 6 431 7 454 6 b 581 10 514 6 547 8 b 489 318 553 113 519 214 b 453 475 475 364 453 429 b 600 965 468 639 547 807 "},"Y":{"ha":604,"x_min":0,"x_max":0,"o":"m 224 -3 b 217 -7 221 -4 218 -6 b 206 -6 211 -7 210 -7 b 60 -11 182 -6 106 -11 l 6 -11 b 190 481 56 156 125 319 b 138 636 190 519 154 596 b 15 960 92 740 42 849 b 143 978 29 974 107 978 b 211 964 167 978 189 975 b 214 961 211 963 213 961 b 314 669 233 863 269 760 b 421 958 360 761 375 867 b 553 974 431 968 507 974 b 632 963 569 974 606 965 l 632 958 b 224 -3 521 628 336 328 m 615 956 b 535 958 589 956 563 958 b 431 950 500 958 464 957 b 321 651 386 854 368 747 l 308 651 b 201 954 263 743 219 853 b 144 963 182 960 164 963 b 31 954 107 963 68 954 b 160 618 58 838 114 728 b 204 483 174 585 204 521 b 185 428 204 463 193 447 b 25 6 128 290 69 149 b 29 4 26 6 28 4 b 172 11 50 4 125 11 b 211 7 192 11 206 10 b 615 956 324 332 506 629 "},"Ý":{"ha":603,"x_min":0,"x_max":0,"o":"m 540 1172 b 400 1039 506 1138 417 1075 b 314 1029 393 1032 365 1029 b 203 1042 265 1029 211 1033 l 203 1053 b 435 1279 285 1122 350 1210 b 540 1181 472 1260 508 1213 l 540 1172 m 525 1176 b 439 1264 496 1206 467 1235 b 221 1050 360 1200 296 1119 b 321 1042 251 1044 286 1042 b 388 1047 344 1042 367 1043 b 525 1176 406 1082 486 1139 m 222 -4 b 215 -8 219 -6 217 -7 b 158 -6 199 -6 179 -6 b 15 -10 110 -6 54 -10 l 8 -1 b 189 476 60 161 125 319 b 138 632 186 514 153 593 b 15 954 93 738 42 842 b 158 971 32 971 122 971 b 240 956 181 971 225 971 b 315 726 257 879 278 796 b 356 804 329 753 343 778 b 419 953 379 854 394 917 b 542 967 428 965 493 967 b 629 957 599 967 621 974 l 629 953 b 222 -4 519 624 335 325 m 613 951 b 567 954 600 953 585 954 b 431 944 519 954 461 949 b 321 708 392 867 364 785 b 228 947 281 708 238 900 b 156 960 201 956 178 960 b 31 949 114 960 76 949 b 164 601 60 828 124 718 b 203 479 175 571 203 514 b 156 351 203 460 168 385 b 25 4 111 236 63 122 b 167 8 63 6 121 8 b 211 7 183 8 200 8 b 613 951 321 332 503 626 "},"Ÿ":{"ha":603,"x_min":0,"x_max":0,"o":"m 125 1047 b 110 1100 111 1054 110 1081 b 117 1193 110 1132 117 1167 l 121 1201 b 201 1214 138 1208 169 1214 b 282 1193 238 1214 274 1210 b 267 1046 274 1150 283 1081 b 129 1047 221 1046 175 1047 l 125 1047 m 367 1047 b 351 1100 353 1054 351 1081 b 358 1193 351 1132 358 1167 l 363 1201 b 443 1214 379 1208 411 1214 b 524 1193 479 1214 515 1210 b 508 1046 515 1150 525 1081 b 371 1047 463 1046 417 1047 l 367 1047 m 260 1060 b 267 1192 260 1101 260 1149 b 214 1200 251 1197 233 1200 b 131 1190 185 1200 153 1194 b 124 1097 131 1164 124 1128 b 129 1061 124 1083 125 1071 b 260 1060 172 1061 215 1060 m 501 1060 b 508 1192 501 1101 501 1149 b 456 1200 493 1197 475 1200 b 372 1190 426 1200 394 1194 b 365 1097 372 1164 365 1128 b 371 1061 365 1083 367 1071 b 501 1060 414 1061 457 1060 m 222 -4 b 215 -8 219 -6 217 -7 b 158 -6 199 -6 179 -6 b 15 -10 110 -6 54 -10 l 8 -1 b 189 476 60 161 125 319 b 138 632 186 514 153 593 b 15 954 93 738 42 842 b 158 971 32 971 122 971 b 240 956 181 971 225 971 b 315 726 257 879 278 796 b 356 804 329 753 343 778 b 419 953 379 854 394 917 b 542 967 428 965 493 967 b 629 957 599 967 621 974 l 629 953 b 222 -4 519 624 335 325 m 613 951 b 567 954 600 953 585 954 b 431 944 519 954 461 949 b 321 708 392 867 364 785 b 228 947 281 708 238 900 b 156 960 201 956 178 960 b 31 949 114 960 76 949 b 164 601 60 828 124 718 b 203 479 175 571 203 514 b 156 351 203 460 168 385 b 25 4 111 236 63 122 b 167 8 63 6 121 8 b 211 7 183 8 200 8 b 613 951 321 332 503 626 "},"Z":{"ha":658,"x_min":0,"x_max":0,"o":"m 632 738 b 283 217 524 558 397 392 b 618 233 394 232 507 221 b 629 146 628 213 629 178 b 615 -10 629 118 635 31 b 319 -3 517 -4 418 -3 b 47 -8 229 -3 138 -4 b 28 204 19 4 28 131 b 101 360 28 253 74 314 b 363 738 181 492 275 613 b 40 754 257 749 147 754 b 21 828 22 763 21 808 b 22 874 21 843 22 858 b 14 951 19 882 14 940 b 13 956 14 953 13 954 b 13 965 14 958 10 963 b 264 976 94 974 182 976 b 626 971 385 976 506 971 b 638 906 636 950 638 928 b 633 742 638 850 633 794 l 632 738 m 619 743 b 624 893 619 793 624 843 b 621 957 624 914 624 936 b 258 963 500 957 379 963 b 28 953 181 963 104 960 b 39 851 38 924 39 882 b 36 807 39 838 36 822 b 44 768 36 793 38 781 b 192 761 93 769 142 761 b 381 739 229 761 371 767 b 42 219 267 578 115 403 b 43 178 43 206 43 192 b 42 103 43 153 42 128 b 53 6 42 69 43 38 b 310 13 139 10 225 13 b 608 4 410 13 508 10 b 615 158 608 56 615 107 b 611 218 615 178 614 199 b 269 201 497 207 383 217 b 264 214 268 206 265 210 b 299 265 276 228 288 247 b 621 744 406 431 521 579 l 619 743 "},"Ž":{"ha":658,"x_min":0,"x_max":0,"o":"m 336 1033 b 107 1268 256 1106 172 1183 l 243 1279 b 336 1210 286 1283 297 1238 b 443 1285 372 1246 388 1285 b 581 1269 482 1285 547 1269 l 572 1260 l 346 1035 b 336 1033 342 1035 339 1035 m 129 1257 b 340 1049 193 1179 264 1115 b 550 1257 410 1118 479 1188 b 444 1265 514 1257 481 1265 b 333 1196 376 1265 376 1218 b 274 1256 318 1201 278 1246 b 250 1265 264 1265 254 1264 l 129 1257 m 626 971 b 638 906 636 950 638 928 b 633 742 638 850 633 794 l 632 738 b 283 217 524 558 397 392 b 618 233 394 232 507 221 b 629 146 628 213 629 178 b 615 -10 629 118 635 31 b 319 -3 517 -4 418 -3 b 47 -8 229 -3 138 -4 b 28 204 19 4 28 131 b 101 360 28 253 74 314 b 363 738 181 492 275 613 b 40 754 257 749 147 754 b 21 828 22 763 21 808 b 22 874 21 843 22 858 b 14 951 19 882 14 940 b 13 956 14 953 13 954 b 13 965 14 958 10 963 b 264 976 94 974 182 976 b 626 971 385 976 506 971 m 619 743 b 624 893 619 793 624 843 b 621 957 624 914 624 936 b 258 963 500 957 379 963 b 28 953 181 963 104 960 b 39 851 38 924 39 882 b 36 807 39 838 36 822 b 44 768 36 793 38 781 b 192 761 93 769 142 761 b 381 739 229 761 371 767 b 42 219 267 578 115 403 b 43 178 43 206 43 192 b 42 103 43 153 42 128 b 53 6 42 69 43 38 b 310 13 139 10 225 13 b 608 4 410 13 508 10 b 615 158 608 56 615 107 b 611 218 615 178 614 199 b 269 201 497 207 383 217 b 264 214 268 206 265 210 b 299 265 276 228 288 247 b 621 744 406 431 521 579 "},"a":{"ha":661,"x_min":0,"x_max":0,"o":"m 618 436 b 622 83 618 318 622 201 b 579 -12 622 31 614 -12 b 551 -7 571 -12 561 -11 l 443 -7 b 428 -10 438 -8 432 -10 b 401 29 407 -10 401 8 b 404 60 401 39 403 50 b 236 -8 357 19 297 -8 b 158 8 210 -8 183 -4 b 17 367 76 47 17 221 b 274 696 17 551 121 696 b 394 651 335 696 368 688 b 400 696 396 667 400 681 l 404 704 b 450 708 415 708 432 708 b 610 699 503 708 574 699 l 617 692 l 617 686 b 621 651 618 682 621 665 b 618 614 621 638 618 622 l 618 436 m 601 14 b 608 269 601 97 608 185 b 604 681 608 406 604 544 b 603 685 603 682 603 683 b 414 692 539 685 476 692 b 406 636 414 674 406 654 b 407 628 406 633 407 631 b 408 626 407 626 408 626 b 396 624 404 625 400 624 l 394 624 b 393 626 394 625 393 625 b 274 682 365 674 331 682 b 32 368 126 682 32 544 b 236 4 32 201 97 4 b 410 83 300 4 365 39 b 421 78 413 81 417 79 b 415 31 421 63 415 46 b 426 6 415 21 415 11 l 436 6 b 497 11 449 10 472 11 b 558 6 522 11 546 10 l 593 6 l 601 14 m 335 511 b 415 318 408 511 415 493 b 324 183 415 239 394 183 b 188 349 231 183 188 267 b 200 418 188 374 192 397 l 199 417 b 335 511 211 481 274 511 m 401 300 b 400 361 401 321 400 343 b 401 415 400 378 401 396 b 350 497 401 454 400 497 b 213 413 289 497 225 479 b 201 350 204 394 201 372 b 321 197 201 272 242 197 b 401 300 372 197 401 231 "},"á":{"ha":661,"x_min":0,"x_max":0,"o":"m 414 813 b 328 803 407 806 379 803 b 217 815 279 803 225 807 l 217 826 b 449 1053 299 896 364 983 b 554 954 486 1033 522 986 l 554 946 b 414 813 519 911 431 849 m 453 1038 b 235 824 374 974 310 893 b 335 815 265 818 300 815 b 401 821 358 815 381 817 b 544 947 421 858 508 922 b 453 1038 514 979 483 1007 m 618 436 b 622 83 618 318 622 201 b 579 -12 622 31 614 -12 b 551 -7 571 -12 561 -11 l 443 -7 b 428 -10 438 -8 432 -10 b 401 29 407 -10 401 8 b 404 60 401 39 403 50 b 236 -8 357 19 297 -8 b 158 8 210 -8 183 -4 b 17 367 76 47 17 221 b 274 696 17 551 121 696 b 394 651 335 696 368 688 b 400 696 396 667 400 681 l 404 704 b 450 708 415 708 432 708 b 610 699 503 708 574 699 l 617 692 l 617 686 b 621 651 618 682 621 665 b 618 614 621 638 618 622 l 618 436 m 601 14 b 608 269 601 97 608 185 b 604 681 608 406 604 544 b 603 685 603 682 603 683 b 414 692 539 685 476 692 b 406 636 414 674 406 654 b 407 628 406 633 407 631 b 408 626 407 626 408 626 b 396 624 404 625 400 624 l 394 624 b 393 626 394 625 393 625 b 274 682 365 674 331 682 b 32 368 126 682 32 544 b 236 4 32 201 97 4 b 410 83 300 4 365 39 b 421 78 413 81 417 79 b 415 31 421 63 415 46 b 426 6 415 21 415 11 l 436 6 b 497 11 449 10 472 11 b 558 6 522 11 546 10 l 593 6 l 601 14 m 335 511 b 415 318 408 511 415 493 b 324 183 415 239 394 183 b 188 349 231 183 188 267 b 200 418 188 374 192 397 l 199 417 b 335 511 211 481 274 511 m 401 300 b 400 361 401 321 400 343 b 401 415 400 378 401 396 b 350 497 401 454 400 497 b 213 413 289 497 225 479 b 201 350 204 394 201 372 b 321 197 201 272 242 197 b 401 300 372 197 401 231 "},"â":{"ha":661,"x_min":0,"x_max":0,"o":"m 225 810 b 125 818 196 810 156 813 l 121 831 b 346 1057 186 915 267 983 b 356 1056 349 1056 351 1056 l 582 831 l 576 819 b 465 807 540 819 522 807 b 349 876 374 807 383 856 b 343 881 347 876 343 879 b 225 810 285 840 308 810 m 350 1042 b 138 831 276 972 200 910 b 233 825 149 829 196 825 b 342 893 307 825 300 865 l 350 893 b 404 835 371 879 386 853 l 417 826 b 483 824 439 825 461 824 b 551 831 525 824 521 831 l 558 832 b 350 1042 483 906 424 968 m 618 436 b 622 83 618 318 622 201 b 579 -12 622 31 614 -12 b 551 -7 571 -12 561 -11 l 443 -7 b 428 -10 438 -8 432 -10 b 401 29 407 -10 401 8 b 404 60 401 39 403 50 b 236 -8 357 19 297 -8 b 158 8 210 -8 183 -4 b 17 367 76 47 17 221 b 274 696 17 551 121 696 b 394 651 335 696 368 688 b 400 696 396 667 400 681 l 404 704 b 450 708 415 708 432 708 b 610 699 503 708 574 699 l 617 692 l 617 686 b 621 651 618 682 621 665 b 618 614 621 638 618 622 l 618 436 m 601 14 b 608 269 601 97 608 185 b 604 681 608 406 604 544 b 603 685 603 682 603 683 b 414 692 539 685 476 692 b 406 636 414 674 406 654 b 407 628 406 633 407 631 b 408 626 407 626 408 626 b 396 624 404 625 400 624 l 394 624 b 393 626 394 625 393 625 b 274 682 365 674 331 682 b 32 368 126 682 32 544 b 236 4 32 201 97 4 b 410 83 300 4 365 39 b 421 78 413 81 417 79 b 415 31 421 63 415 46 b 426 6 415 21 415 11 l 436 6 b 497 11 449 10 472 11 b 558 6 522 11 546 10 l 593 6 l 601 14 m 335 511 b 415 318 408 511 415 493 b 324 183 415 239 394 183 b 188 349 231 183 188 267 b 200 418 188 374 192 397 l 199 417 b 335 511 211 481 274 511 m 401 300 b 400 361 401 321 400 343 b 401 415 400 378 401 396 b 350 497 401 454 400 497 b 213 413 289 497 225 479 b 201 350 204 394 201 372 b 321 197 201 272 242 197 b 401 300 372 197 401 231 "},"ä":{"ha":661,"x_min":0,"x_max":0,"o":"m 281 850 b 158 865 242 850 171 851 b 151 1042 158 924 151 982 b 160 1063 151 1050 153 1058 l 349 1058 l 356 1051 l 356 1004 b 361 940 360 992 361 967 b 360 874 361 915 360 889 b 281 850 360 854 304 850 m 536 850 b 414 865 497 850 426 851 b 407 1042 414 924 407 982 b 415 1063 407 1050 408 1058 l 604 1058 l 611 1051 l 611 1004 b 617 940 615 992 617 967 b 615 874 617 915 615 889 b 536 850 615 854 560 850 m 167 1049 b 165 1024 167 1040 165 1032 b 172 871 165 972 172 922 b 286 864 196 871 244 864 b 346 876 313 864 335 867 b 343 997 346 917 343 957 b 340 1019 340 1004 340 1011 b 342 1044 340 1028 340 1036 l 167 1049 m 422 1049 b 421 1024 422 1040 421 1032 b 428 871 421 972 428 922 b 542 864 451 871 500 864 b 601 876 568 864 590 867 b 599 997 601 917 599 957 b 596 1019 596 1004 596 1011 b 597 1044 596 1028 596 1036 l 422 1049 m 618 436 b 622 83 618 318 622 201 b 579 -12 622 31 614 -12 b 551 -7 571 -12 561 -11 l 443 -7 b 428 -10 438 -8 432 -10 b 401 29 407 -10 401 8 b 404 60 401 39 403 50 b 236 -8 357 19 297 -8 b 158 8 210 -8 183 -4 b 17 367 76 47 17 221 b 274 696 17 551 121 696 b 394 651 335 696 368 688 b 400 696 396 667 400 681 l 404 704 b 450 708 415 708 432 708 b 610 699 503 708 574 699 l 617 692 l 617 686 b 621 651 618 682 621 665 b 618 614 621 638 618 622 l 618 436 m 601 14 b 608 269 601 97 608 185 b 604 681 608 406 604 544 b 603 685 603 682 603 683 b 414 692 539 685 476 692 b 406 636 414 674 406 654 b 407 628 406 633 407 631 b 408 626 407 626 408 626 b 396 624 404 625 400 624 l 394 624 b 393 626 394 625 393 625 b 274 682 365 674 331 682 b 32 368 126 682 32 544 b 236 4 32 201 97 4 b 410 83 300 4 365 39 b 421 78 413 81 417 79 b 415 31 421 63 415 46 b 426 6 415 21 415 11 l 436 6 b 497 11 449 10 472 11 b 558 6 522 11 546 10 l 593 6 l 601 14 m 335 511 b 415 318 408 511 415 493 b 324 183 415 239 394 183 b 188 349 231 183 188 267 b 200 418 188 374 192 397 l 199 417 b 335 511 211 481 274 511 m 401 300 b 400 361 401 321 400 343 b 401 415 400 378 401 396 b 350 497 401 454 400 497 b 213 413 289 497 225 479 b 201 350 204 394 201 372 b 321 197 201 272 242 197 b 401 300 372 197 401 231 "},"à":{"ha":661,"x_min":0,"x_max":0,"o":"m 294 813 b 154 944 275 851 168 914 l 154 956 b 250 1053 186 988 218 1019 l 258 1053 b 432 885 322 1006 378 943 b 490 826 450 865 468 843 l 490 815 b 378 803 472 806 422 803 b 294 813 336 803 294 804 m 246 1033 b 164 954 208 996 185 968 b 304 821 189 929 289 853 b 372 815 314 818 342 815 b 471 824 407 815 449 818 b 422 875 453 839 438 857 b 254 1039 368 933 317 992 l 246 1033 m 618 436 b 622 83 618 318 622 201 b 579 -12 622 31 614 -12 b 551 -7 571 -12 561 -11 l 443 -7 b 428 -10 438 -8 432 -10 b 401 29 407 -10 401 8 b 404 60 401 39 403 50 b 236 -8 357 19 297 -8 b 158 8 210 -8 183 -4 b 17 367 76 47 17 221 b 274 696 17 551 121 696 b 394 651 335 696 368 688 b 400 696 396 667 400 681 l 404 704 b 450 708 415 708 432 708 b 610 699 503 708 574 699 l 617 692 l 617 686 b 621 651 618 682 621 665 b 618 614 621 638 618 622 l 618 436 m 601 14 b 608 269 601 97 608 185 b 604 681 608 406 604 544 b 603 685 603 682 603 683 b 414 692 539 685 476 692 b 406 636 414 674 406 654 b 407 628 406 633 407 631 b 408 626 407 626 408 626 b 396 624 404 625 400 624 l 394 624 b 393 626 394 625 393 625 b 274 682 365 674 331 682 b 32 368 126 682 32 544 b 236 4 32 201 97 4 b 410 83 300 4 365 39 b 421 78 413 81 417 79 b 415 31 421 63 415 46 b 426 6 415 21 415 11 l 436 6 b 497 11 449 10 472 11 b 558 6 522 11 546 10 l 593 6 l 601 14 m 335 511 b 415 318 408 511 415 493 b 324 183 415 239 394 183 b 188 349 231 183 188 267 b 200 418 188 374 192 397 l 199 417 b 335 511 211 481 274 511 m 401 300 b 400 361 401 321 400 343 b 401 415 400 378 401 396 b 350 497 401 454 400 497 b 213 413 289 497 225 479 b 201 350 204 394 201 372 b 321 197 201 272 242 197 b 401 300 372 197 401 231 "},"å":{"ha":661,"x_min":0,"x_max":0,"o":"m 338 781 b 214 911 225 781 214 825 b 354 1051 214 985 214 1051 b 481 936 453 1051 481 1015 b 461 822 481 897 472 857 l 460 821 b 338 781 435 783 374 781 m 346 1039 b 226 907 260 1039 226 1013 b 339 793 226 811 256 793 b 449 828 386 793 433 804 l 447 826 b 467 949 456 850 467 904 b 346 1039 467 1019 418 1039 m 357 843 b 276 925 285 843 276 864 b 303 981 276 947 283 965 l 304 982 b 347 992 317 988 332 992 b 419 933 382 992 419 974 b 357 843 419 889 419 843 m 311 969 b 288 911 293 951 288 936 b 342 857 288 865 314 857 b 406 921 403 857 406 885 b 347 978 406 961 383 978 b 311 969 335 978 321 975 m 618 436 b 622 83 618 318 622 201 b 579 -12 622 31 614 -12 b 551 -7 571 -12 561 -11 l 443 -7 b 428 -10 438 -8 432 -10 b 401 29 407 -10 401 8 b 404 60 401 39 403 50 b 236 -8 357 19 297 -8 b 158 8 210 -8 183 -4 b 17 367 76 47 17 221 b 274 696 17 551 121 696 b 394 651 335 696 368 688 b 400 696 396 667 400 681 l 404 704 b 450 708 415 708 432 708 b 610 699 503 708 574 699 l 617 692 l 617 686 b 621 651 618 682 621 665 b 618 614 621 638 618 622 l 618 436 m 601 14 b 608 269 601 97 608 185 b 604 681 608 406 604 544 b 603 685 603 682 603 683 b 414 692 539 685 476 692 b 406 636 414 674 406 654 b 407 628 406 633 407 631 b 408 626 407 626 408 626 b 396 624 404 625 400 624 l 394 624 b 393 626 394 625 393 625 b 274 682 365 674 331 682 b 32 368 126 682 32 544 b 236 4 32 201 97 4 b 410 83 300 4 365 39 b 421 78 413 81 417 79 b 415 31 421 63 415 46 b 426 6 415 21 415 11 l 436 6 b 497 11 449 10 472 11 b 558 6 522 11 546 10 l 593 6 l 601 14 m 335 511 b 415 318 408 511 415 493 b 324 183 415 239 394 183 b 188 349 231 183 188 267 b 200 418 188 374 192 397 l 199 417 b 335 511 211 481 274 511 m 401 300 b 400 361 401 321 400 343 b 401 415 400 378 401 396 b 350 497 401 454 400 497 b 213 413 289 497 225 479 b 201 350 204 394 201 372 b 321 197 201 272 242 197 b 401 300 372 197 401 231 "},"ã":{"ha":661,"x_min":0,"x_max":0,"o":"m 160 817 b 65 815 128 817 97 815 l 58 824 b 256 1058 83 922 146 1058 b 432 953 361 1058 367 965 b 501 1036 469 960 493 1001 b 563 1046 518 1044 540 1046 b 601 1044 576 1046 589 1044 b 622 1046 608 1044 615 1046 b 628 1043 624 1044 625 1044 l 629 1042 b 632 1036 629 1039 631 1036 b 465 804 632 913 582 804 b 293 906 353 804 371 906 b 229 850 263 906 229 889 b 235 818 229 839 235 829 l 228 811 b 160 817 206 815 181 810 m 254 1043 b 75 829 142 1043 103 914 b 138 833 94 829 117 833 b 167 829 147 833 157 832 b 218 826 183 829 200 829 b 215 844 217 832 215 839 b 294 922 215 888 250 922 b 465 818 385 922 349 818 b 618 1031 569 818 618 915 b 514 1028 582 1029 521 1029 b 432 939 503 971 451 939 b 340 1017 393 939 372 992 b 254 1043 315 1036 283 1043 m 618 436 b 622 83 618 318 622 201 b 579 -12 622 31 614 -12 b 551 -7 571 -12 561 -11 l 443 -7 b 428 -10 438 -8 432 -10 b 401 29 407 -10 401 8 b 404 60 401 39 403 50 b 236 -8 357 19 297 -8 b 158 8 210 -8 183 -4 b 17 367 76 47 17 221 b 274 696 17 551 121 696 b 394 651 335 696 368 688 b 400 696 396 667 400 681 l 404 704 b 450 708 415 708 432 708 b 610 699 503 708 574 699 l 617 692 l 617 686 b 621 651 618 682 621 665 b 618 614 621 638 618 622 m 601 14 b 608 269 601 97 608 185 b 604 681 608 406 604 544 b 603 685 603 682 603 683 b 414 692 539 685 476 692 b 406 636 414 674 406 654 b 407 628 406 633 407 631 b 408 626 407 626 408 626 b 396 624 404 625 400 624 l 394 624 b 393 626 394 625 393 625 b 274 682 365 674 331 682 b 32 368 126 682 32 544 b 236 4 32 201 97 4 b 410 83 300 4 365 39 b 421 78 413 81 417 79 b 415 31 421 63 415 46 b 426 6 415 21 415 11 l 436 6 b 497 11 449 10 472 11 b 558 6 522 11 546 10 l 593 6 l 601 14 m 335 511 b 415 318 408 511 415 493 b 324 183 415 239 394 183 b 188 349 231 183 188 267 b 200 418 188 374 192 397 l 199 417 b 335 511 211 481 274 511 m 401 300 b 400 361 401 321 400 343 b 401 415 400 378 401 396 b 350 497 401 454 400 497 b 213 413 289 497 225 479 b 201 350 204 394 201 372 b 321 197 201 272 242 197 b 401 300 372 197 401 231 "},"æ":{"ha":976,"x_min":0,"x_max":0,"o":"m 701 161 b 775 267 756 161 775 203 l 783 275 b 806 274 790 274 799 274 b 901 279 836 274 871 279 b 953 263 922 279 944 279 b 921 61 944 221 951 96 b 739 -10 874 7 807 -10 b 681 -6 719 -10 700 -8 b 483 72 590 4 543 -6 b 258 -19 421 21 346 -19 b 6 197 144 -19 6 61 b 218 410 6 318 97 410 b 381 385 278 410 324 404 b 382 451 381 403 382 428 b 306 544 382 504 357 544 b 224 471 264 544 224 515 b 135 453 210 457 175 453 b 36 492 76 453 36 453 b 324 689 36 622 189 689 b 492 636 393 689 456 671 b 689 699 540 678 614 699 b 960 421 871 699 960 586 b 956 357 960 399 958 378 b 739 332 935 336 822 332 b 604 336 583 332 646 326 l 604 322 b 701 161 604 263 611 161 m 599 353 b 669 347 621 346 647 347 b 942 363 694 347 897 344 b 944 421 943 381 944 401 b 694 685 944 581 861 685 b 496 621 619 685 544 663 l 488 621 b 319 675 451 657 388 675 b 50 494 192 675 50 613 b 129 465 50 465 82 465 b 210 475 161 465 193 468 b 310 561 213 524 263 561 b 396 442 375 561 396 492 b 394 394 396 426 394 411 b 396 372 394 388 394 379 b 386 365 393 369 389 368 b 249 396 346 390 289 396 b 19 199 110 396 19 322 b 260 -6 19 71 144 -6 b 481 88 349 -6 418 38 b 490 86 483 86 486 86 b 699 6 535 26 578 6 b 938 260 981 6 915 136 b 900 264 928 263 914 264 b 804 258 869 264 832 258 b 789 260 799 258 793 260 b 701 146 789 203 761 146 b 590 321 601 146 590 258 l 590 344 m 761 554 b 818 461 779 542 818 494 b 783 438 818 438 803 438 b 754 440 774 438 763 438 l 682 440 b 633 436 669 439 650 436 b 592 463 611 436 592 442 b 701 569 592 525 640 569 b 758 556 724 569 740 563 l 761 554 m 754 542 b 697 551 735 549 715 551 b 606 456 646 551 606 522 b 639 450 613 451 625 450 b 735 456 668 450 706 456 b 800 451 763 456 778 451 b 753 543 800 492 786 521 l 754 542 m 154 203 b 269 304 154 269 215 304 b 386 217 328 304 386 281 b 278 122 386 146 325 122 b 235 128 264 122 250 124 b 154 203 186 136 154 161 m 276 138 b 371 213 322 138 371 156 b 271 290 371 274 317 290 b 167 192 215 290 167 258 b 236 142 178 157 203 147 b 276 138 249 139 263 138 "},"b":{"ha":644,"x_min":0,"x_max":0,"o":"m 540 664 b 624 369 619 600 624 467 b 368 -7 624 189 571 -7 b 247 60 318 -7 271 13 b 244 40 243 56 246 44 l 244 6 b 243 1 244 4 243 3 l 242 0 b 238 -4 240 0 238 -1 b 168 -10 215 -8 192 -10 b 49 -6 129 -10 88 -6 b 35 96 38 0 35 50 b 50 976 35 390 50 682 l 54 985 b 132 993 71 990 101 993 b 239 976 169 993 232 990 l 239 961 b 247 819 239 933 247 871 b 243 679 247 776 243 708 b 375 704 279 701 333 704 b 540 664 429 704 496 700 m 354 10 b 610 376 525 10 610 122 b 561 619 610 469 594 564 b 364 690 521 685 436 690 b 243 660 326 690 264 688 l 229 661 b 231 711 229 674 231 692 b 224 924 231 778 226 872 b 225 960 224 939 225 953 l 225 971 b 143 979 199 976 171 979 b 64 972 115 979 89 976 b 50 169 64 704 50 438 b 56 8 50 115 51 61 b 172 4 93 8 132 4 b 231 8 192 4 211 6 b 229 32 231 15 229 24 b 249 76 229 32 229 76 b 354 10 278 47 285 10 m 454 440 b 467 347 463 413 467 378 b 329 168 467 256 403 168 b 219 421 218 168 219 301 b 315 543 219 483 231 543 b 454 438 383 543 444 510 m 329 183 b 450 375 422 183 450 286 b 440 436 444 394 447 417 b 315 532 432 496 374 532 b 236 433 244 532 236 488 b 238 376 236 411 238 392 b 236 328 238 361 236 344 b 329 183 236 269 244 183 "},"c":{"ha":614,"x_min":0,"x_max":0,"o":"m 592 264 b 557 51 578 203 594 104 b 368 -24 513 -11 440 -24 b 261 -21 331 -24 294 -21 b 26 290 72 -21 26 136 b 28 364 26 315 28 339 b 25 463 28 397 25 429 b 71 656 25 499 25 606 b 356 717 142 731 290 717 b 542 654 424 717 468 708 b 594 401 606 607 589 467 b 524 386 588 388 551 386 b 408 401 475 386 426 392 b 310 496 382 454 369 496 b 219 264 239 496 219 449 b 307 186 219 206 260 186 b 368 199 329 186 351 190 b 410 276 382 213 399 271 b 433 275 417 275 425 275 b 539 281 467 275 504 281 b 589 272 557 281 575 279 l 592 264 m 576 263 b 540 267 567 265 554 267 b 433 260 507 267 465 260 b 414 261 426 260 419 260 b 318 171 406 217 385 171 b 207 256 254 171 207 200 b 211 317 207 276 211 297 b 208 389 211 338 208 364 b 307 511 208 471 256 511 b 417 413 356 511 406 474 b 514 403 432 406 475 403 b 579 407 542 403 568 404 b 533 643 579 479 590 590 b 344 703 475 696 413 703 b 81 646 264 703 144 714 b 39 467 40 603 39 500 b 42 363 39 431 42 397 b 40 269 42 335 40 303 b 368 -10 40 6 190 -10 b 546 58 424 -10 510 0 b 576 263 579 119 564 197 "},"ç":{"ha":615,"x_min":0,"x_max":0,"o":"m 396 -24 b 333 -206 383 -75 333 -162 b 247 -217 324 -215 279 -217 b 169 -201 236 -217 181 -224 b 232 -19 192 -142 204 -75 b 25 289 64 -1 25 154 b 28 407 25 329 28 369 b 26 475 28 428 26 450 b 85 669 26 544 33 622 b 253 717 128 708 193 717 b 303 715 269 717 286 715 b 361 718 321 715 340 718 b 574 607 439 718 542 688 b 594 401 599 542 589 468 b 524 386 588 388 551 386 b 408 401 475 386 426 392 b 310 496 382 454 369 496 b 219 264 239 496 219 449 b 307 186 219 206 260 186 b 368 199 329 186 351 190 b 410 276 382 213 399 271 b 433 275 417 275 425 275 b 539 281 467 275 504 281 b 592 264 561 281 583 281 b 472 -10 572 161 606 28 b 396 -24 447 -15 422 -21 m 390 -10 b 576 263 601 1 557 143 b 540 267 567 265 554 267 b 433 260 507 267 465 260 b 414 261 426 260 419 260 b 318 171 406 217 385 171 b 207 256 254 171 207 200 b 211 317 207 276 211 297 b 208 389 211 338 208 364 b 307 511 208 471 256 511 b 417 413 356 511 406 474 b 514 403 432 406 475 403 b 579 407 542 403 568 404 b 561 601 575 471 585 540 b 247 703 513 722 325 703 b 75 639 199 703 113 690 b 40 447 46 599 40 518 b 243 -7 40 240 19 10 b 249 -17 244 -10 247 -12 b 185 -199 247 -19 221 -106 b 229 -201 199 -200 214 -201 b 319 -199 260 -201 290 -199 b 383 -15 335 -136 372 -78 l 390 -10 "},"d":{"ha":643,"x_min":0,"x_max":0,"o":"m 413 983 b 511 993 435 989 474 993 b 594 978 544 993 588 992 b 606 218 594 725 606 471 b 603 1 606 146 606 74 b 464 -11 593 -8 517 -11 b 400 6 424 -11 407 -8 l 400 22 b 397 38 399 25 397 31 b 399 57 397 44 399 53 b 397 60 399 57 397 58 b 289 -4 374 13 335 -4 b 22 400 44 -4 22 233 b 121 676 22 499 38 628 b 268 704 163 700 219 704 b 400 679 308 704 367 704 b 396 818 400 700 396 767 b 406 975 396 911 406 918 l 413 983 m 497 978 b 419 971 471 978 444 976 b 414 776 418 946 414 815 b 415 660 414 739 414 699 b 403 657 411 658 407 657 b 281 690 386 686 321 690 b 82 618 207 690 125 685 b 33 383 49 565 33 475 b 293 10 33 119 121 10 b 346 22 313 10 329 13 b 396 76 364 32 382 76 l 397 76 b 414 18 415 56 414 43 b 471 4 414 1 454 4 b 589 8 510 4 550 8 b 592 222 592 79 592 151 b 581 972 592 472 581 722 b 497 978 554 975 525 978 m 329 543 b 424 424 413 543 424 488 b 315 168 424 289 419 168 b 178 360 226 168 178 267 b 190 439 178 388 182 415 b 329 543 201 511 260 543 m 204 435 b 192 357 196 413 192 385 b 319 182 192 261 243 182 b 408 410 406 182 408 289 b 326 532 408 483 407 532 b 204 438 269 532 213 497 l 204 435 "},"ð":{"ha":738,"x_min":0,"x_max":0,"o":"m 386 1089 b 535 1194 424 1113 493 1181 b 543 1192 538 1193 540 1193 b 667 1092 574 1146 628 1131 b 542 1007 667 1071 569 1025 b 685 674 636 926 667 790 b 715 365 697 585 715 474 b 371 -40 715 161 644 -40 b 15 282 179 -40 15 50 b 293 633 15 467 56 633 b 454 601 351 633 410 622 b 358 874 438 700 444 801 b 203 769 306 839 254 804 b 139 731 189 760 156 731 b 133 735 136 732 135 733 b 31 826 104 771 57 790 b 188 947 31 844 135 908 b 36 1024 139 960 83 1003 l 32 1031 b 57 1058 32 1038 46 1051 b 222 1172 88 1089 181 1172 b 386 1089 279 1161 328 1106 m 388 1075 b 217 1158 349 1085 239 1158 b 49 1033 158 1158 65 1046 b 206 957 100 1010 150 968 b 208 944 207 953 207 949 b 46 828 154 906 99 868 b 142 746 75 799 115 781 b 354 888 214 789 283 840 l 363 888 b 461 685 422 838 453 761 b 471 593 465 653 464 624 b 464 583 468 589 465 586 b 294 619 407 597 368 619 b 31 325 71 619 31 468 b 376 -26 31 146 75 -26 b 701 363 643 -26 701 172 b 682 594 701 444 690 526 b 526 1001 664 732 647 911 l 526 1013 b 650 1089 565 1040 610 1063 b 535 1178 614 1124 565 1138 b 392 1076 494 1163 422 1094 l 388 1075 m 196 322 b 314 439 196 383 228 439 b 511 279 426 439 511 368 b 361 168 511 206 438 168 b 200 265 290 168 215 201 b 196 322 197 283 196 303 m 214 269 b 363 182 228 211 297 182 b 497 279 432 182 497 214 b 313 428 497 360 411 428 b 208 324 250 428 208 386 b 214 267 208 304 211 285 l 214 269 "},"e":{"ha":617,"x_min":0,"x_max":0,"o":"m 324 153 b 404 265 394 153 404 217 l 413 274 b 436 272 419 272 428 272 b 540 278 468 272 507 278 b 593 261 563 278 585 278 b 372 -25 568 132 619 -25 l 319 -25 b 117 36 246 -25 165 -19 b 19 350 43 121 19 236 b 36 533 19 414 26 476 b 311 721 58 665 189 721 b 501 672 364 721 449 711 b 600 425 575 617 600 517 b 596 360 600 403 599 381 b 349 336 572 336 414 336 b 268 333 324 336 301 333 b 224 339 251 333 236 335 l 224 324 b 324 153 224 249 240 153 m 210 347 b 221 354 214 350 217 353 b 268 347 231 349 249 347 b 329 350 293 347 318 350 b 582 365 375 350 538 349 b 585 424 583 385 585 404 b 501 654 585 508 564 594 b 307 708 456 699 369 708 b 69 593 214 708 118 676 b 35 386 38 538 35 450 b 126 46 35 267 44 138 b 319 -11 171 -6 247 -11 l 381 -11 b 578 258 599 -11 561 146 b 538 264 567 263 553 264 b 432 257 503 264 461 257 l 418 258 b 326 135 418 192 378 135 b 210 322 229 135 210 250 l 210 347 m 446 457 b 417 444 446 447 428 444 b 382 450 403 444 389 447 l 306 450 b 256 446 293 449 274 446 b 211 472 232 446 211 451 b 326 583 211 547 261 583 b 389 569 349 583 369 579 b 446 457 432 547 446 503 m 322 572 b 225 467 268 572 225 532 b 265 458 236 461 250 458 b 358 467 294 458 329 467 b 432 461 386 467 408 461 b 382 557 432 500 419 539 b 322 572 361 567 342 572 "},"é":{"ha":617,"x_min":0,"x_max":0,"o":"m 533 946 b 393 813 499 911 410 849 b 307 803 386 806 358 803 b 196 815 258 803 204 807 l 196 826 b 428 1053 278 896 343 983 b 533 954 465 1033 501 986 l 533 946 m 518 950 b 432 1038 489 979 460 1008 b 214 824 353 974 289 893 b 314 815 244 818 279 815 b 381 821 338 815 360 817 b 518 950 399 856 479 913 m 264 333 b 224 338 249 333 235 335 b 331 154 224 239 239 154 b 404 265 394 154 404 221 l 413 274 b 436 272 419 272 428 272 b 540 278 468 272 507 278 b 593 261 563 278 585 278 b 372 -25 568 132 619 -25 l 319 -25 b 117 36 246 -25 165 -19 b 19 350 43 121 19 236 b 36 533 19 414 26 476 b 311 721 58 665 189 721 b 501 672 364 721 449 711 b 600 425 575 617 600 517 b 596 360 600 403 599 381 b 329 336 568 332 340 336 b 264 333 314 336 288 333 m 221 354 b 268 347 231 349 249 347 b 329 350 293 347 318 350 b 582 365 375 350 538 349 b 585 424 583 385 585 404 b 501 654 585 508 564 594 b 307 708 456 699 369 708 b 69 593 214 708 118 676 b 35 386 38 538 35 450 b 126 46 35 267 44 138 b 319 -11 171 -6 247 -11 l 381 -11 b 578 258 599 -11 561 146 b 538 264 567 263 553 264 b 432 257 503 264 461 257 l 418 258 b 326 136 418 188 378 136 b 210 347 224 136 210 264 l 221 354 m 446 457 b 417 444 446 447 428 444 b 382 450 403 444 389 447 l 306 450 b 256 446 293 449 274 446 b 211 472 232 446 211 451 b 326 583 211 547 261 583 b 389 569 349 583 369 579 b 446 457 432 547 446 503 m 322 572 b 225 467 268 572 225 532 b 265 458 236 461 250 458 b 358 467 294 458 329 467 b 432 461 386 467 408 461 b 382 557 432 500 419 539 b 322 572 361 567 342 572 "},"ê":{"ha":617,"x_min":0,"x_max":0,"o":"m 551 819 b 440 807 515 819 497 807 b 332 868 378 807 350 832 l 321 879 b 200 810 265 839 281 810 b 100 818 171 810 131 813 l 96 831 b 321 1057 161 915 242 983 b 331 1056 324 1056 326 1056 l 557 831 l 551 819 m 535 832 b 325 1042 464 901 394 972 b 113 831 251 972 175 910 b 208 825 124 829 171 825 b 317 893 282 825 275 865 l 325 893 b 379 835 346 879 361 853 l 392 826 b 475 824 419 825 447 824 b 535 832 494 825 514 831 m 264 333 b 224 338 249 333 235 335 b 331 154 224 239 239 154 b 404 265 394 154 404 221 l 413 274 b 436 272 419 272 428 272 b 540 278 468 272 507 278 b 593 261 563 278 585 278 b 372 -25 568 132 619 -25 l 319 -25 b 117 36 246 -25 165 -19 b 19 350 43 121 19 236 b 36 533 19 414 26 476 b 311 721 58 665 189 721 b 501 672 364 721 449 711 b 600 425 575 617 600 517 b 596 360 600 403 599 381 b 329 336 568 332 340 336 b 264 333 314 336 288 333 m 221 354 b 268 347 231 349 249 347 b 329 350 293 347 318 350 b 582 365 375 350 538 349 b 585 424 583 385 585 404 b 501 654 585 508 564 594 b 307 708 456 699 369 708 b 69 593 214 708 118 676 b 35 386 38 538 35 450 b 126 46 35 267 44 138 b 319 -11 171 -6 247 -11 l 381 -11 b 578 258 599 -11 561 146 b 538 264 567 263 553 264 b 432 257 503 264 461 257 l 418 258 b 326 136 418 188 378 136 b 210 347 224 136 210 264 l 221 354 m 446 457 b 417 444 446 447 428 444 b 382 450 403 444 389 447 l 306 450 b 256 446 293 449 274 446 b 211 472 232 446 211 451 b 326 583 211 547 261 583 b 389 569 349 583 369 579 b 446 457 432 547 446 503 m 322 572 b 225 467 268 572 225 532 b 265 458 236 461 250 458 b 358 467 294 458 329 467 b 432 461 386 467 408 461 b 382 557 432 500 419 539 b 322 572 361 567 342 572 "},"ë":{"ha":617,"x_min":0,"x_max":0,"o":"m 282 1004 b 288 940 286 992 288 967 b 286 874 288 915 286 889 b 207 850 286 854 231 850 b 85 865 168 850 97 851 b 78 1042 85 924 78 982 b 86 1063 78 1050 79 1058 l 275 1058 l 282 1051 m 538 1004 b 543 940 542 992 543 967 b 542 874 543 915 542 889 b 463 850 542 854 486 850 b 340 865 424 850 353 851 b 333 1042 340 924 333 982 b 342 1063 333 1050 335 1058 l 531 1058 l 538 1051 m 267 1019 b 268 1044 267 1028 267 1036 l 93 1049 b 92 1024 93 1040 92 1032 b 99 871 92 972 99 922 b 213 864 122 871 171 864 b 272 876 239 864 261 867 b 269 997 272 917 269 957 b 267 1019 267 1004 267 1011 m 522 1019 b 524 1044 522 1028 522 1036 l 349 1049 b 347 1024 349 1040 347 1032 b 354 871 347 972 354 922 b 468 864 378 871 426 864 b 528 876 494 864 517 867 b 525 997 528 917 525 957 b 522 1019 522 1004 522 1011 m 263 333 b 224 338 249 333 235 335 b 331 154 224 239 239 154 b 404 265 394 154 404 221 l 413 274 b 436 272 419 272 428 272 b 540 278 468 272 507 278 b 593 261 563 278 585 278 b 372 -25 568 132 619 -25 l 319 -25 b 117 36 246 -25 165 -19 b 19 350 43 121 19 236 b 36 533 19 414 26 476 b 311 721 58 665 189 721 b 501 672 364 721 449 711 b 600 425 575 617 600 517 b 596 360 600 403 599 381 b 329 336 568 332 340 336 b 263 333 313 336 286 333 m 221 354 b 268 347 231 349 249 347 b 329 350 293 347 318 350 b 582 365 375 350 538 349 b 585 424 583 385 585 404 b 501 654 585 508 564 594 b 307 708 456 699 369 708 b 69 593 214 708 118 676 b 35 386 38 538 35 450 b 126 46 35 267 44 138 b 319 -11 171 -6 247 -11 l 381 -11 b 578 258 599 -11 561 146 b 538 264 567 263 553 264 b 432 257 503 264 461 257 l 418 258 b 326 136 418 188 378 136 b 210 347 224 136 210 264 l 221 354 m 446 457 b 417 444 446 447 428 444 b 382 450 403 444 389 447 l 306 450 b 256 446 293 449 274 446 b 211 472 232 446 211 451 b 326 583 211 547 261 583 b 389 569 349 583 369 579 b 446 457 432 547 446 503 m 322 572 b 225 467 268 572 225 532 b 265 458 236 461 250 458 b 358 467 294 458 329 467 b 432 461 386 467 408 461 b 382 557 432 500 419 539 b 322 572 361 567 342 572 "},"è":{"ha":617,"x_min":0,"x_max":0,"o":"m 228 1053 b 401 885 292 1006 347 943 b 460 826 419 865 438 843 l 460 815 b 347 803 442 806 392 803 b 264 813 306 803 264 804 b 124 944 243 851 124 924 l 124 956 b 219 1053 156 988 188 1019 l 228 1053 m 136 950 b 274 821 167 922 258 851 b 342 815 283 818 311 815 b 440 824 376 815 418 818 b 392 875 422 839 407 857 b 224 1038 339 932 285 992 m 263 333 b 224 338 249 333 235 335 b 331 154 224 239 239 154 b 404 265 394 154 404 221 l 413 274 b 436 272 419 272 428 272 b 540 278 468 272 507 278 b 593 261 563 278 585 278 b 372 -25 568 132 619 -25 l 319 -25 b 117 36 246 -25 165 -19 b 19 350 43 121 19 236 b 36 533 19 414 26 476 b 311 721 58 665 189 721 b 501 672 364 721 449 711 b 600 425 575 617 600 517 b 596 360 600 403 599 381 b 329 336 568 332 340 336 b 263 333 313 336 286 333 m 221 354 b 268 347 231 349 249 347 b 329 350 293 347 318 350 b 582 365 375 350 538 349 b 585 424 583 385 585 404 b 501 654 585 508 564 594 b 307 708 456 699 369 708 b 69 593 214 708 118 676 b 35 386 38 538 35 450 b 126 46 35 267 44 138 b 319 -11 171 -6 247 -11 l 381 -11 b 578 258 599 -11 561 146 b 538 264 567 263 553 264 b 432 257 503 264 461 257 l 418 258 b 326 136 418 188 378 136 b 210 347 224 136 210 264 l 221 354 m 446 457 b 417 444 446 447 428 444 b 382 450 403 444 389 447 l 306 450 b 256 446 293 449 274 446 b 211 472 232 446 211 451 b 326 583 211 547 261 583 b 389 569 349 583 369 579 b 446 457 432 547 446 503 m 322 572 b 225 467 268 572 225 532 b 265 458 236 461 250 458 b 358 467 294 458 329 467 b 432 461 386 467 408 461 b 382 557 432 500 419 539 b 322 572 361 567 342 572 "},"f":{"ha":526,"x_min":0,"x_max":0,"o":"m 300 -1 b 274 0 290 -1 282 0 b 153 -7 232 0 192 -7 b 106 49 108 -7 106 13 b 111 486 106 194 111 339 b 19 485 81 486 50 485 b 7 585 10 489 7 539 b 15 668 7 626 6 658 b 107 667 46 668 76 667 b 506 963 107 960 313 963 b 536 900 535 963 536 925 b 526 768 536 857 526 813 b 336 742 514 756 375 756 b 308 686 313 733 308 707 b 311 664 308 679 310 671 l 518 664 b 526 594 525 665 526 619 l 526 582 b 510 476 526 569 521 481 b 307 486 442 483 374 482 l 307 6 l 300 -1 m 158 7 b 293 13 203 7 249 13 l 293 493 l 301 501 b 503 492 368 496 435 497 b 507 550 506 497 507 524 b 506 625 507 583 506 618 b 508 650 506 633 507 642 l 306 650 b 293 699 293 656 293 689 b 513 775 293 768 417 772 b 522 890 514 813 522 851 b 514 949 522 910 519 929 b 251 919 433 949 328 954 b 118 704 171 883 118 793 b 122 663 118 690 119 676 b 115 653 119 658 117 656 b 22 654 83 653 53 654 l 26 499 b 118 500 57 499 88 500 b 125 493 119 497 122 496 b 126 8 125 332 126 169 b 158 7 136 7 147 7 "},"g":{"ha":649,"x_min":0,"x_max":0,"o":"m 404 -286 b 64 -137 278 -286 106 -294 b 53 -79 58 -118 53 -99 b 156 -40 53 -43 89 -40 b 244 -51 193 -40 228 -43 b 324 -131 244 -106 289 -131 b 401 -36 365 -131 401 -100 b 396 8 401 -17 396 -6 b 397 17 396 11 397 14 b 292 -8 367 -4 329 -8 b 19 300 147 -8 19 10 b 272 699 19 532 86 699 b 399 640 322 699 372 682 l 399 657 b 396 669 397 661 396 665 b 444 703 396 699 418 703 l 478 703 b 533 704 490 703 511 704 b 603 693 564 704 594 701 b 608 442 606 610 608 525 l 608 215 b 600 -79 608 117 603 19 b 526 -250 597 -164 604 -194 b 404 -286 489 -276 447 -286 m 518 -239 b 586 -78 589 -189 583 -156 b 594 217 589 18 594 117 l 594 438 b 589 686 594 521 593 604 b 479 689 553 686 515 689 b 411 675 461 689 411 692 b 415 640 411 663 415 653 b 404 617 415 626 413 625 l 401 617 b 349 668 388 615 367 657 b 272 686 325 681 297 686 b 33 301 97 686 33 525 b 275 6 33 33 142 6 b 404 39 321 6 369 4 b 415 31 407 36 411 33 b 413 14 414 25 413 19 b 417 -26 413 1 417 -12 b 319 -144 417 -106 378 -144 b 233 -62 276 -144 233 -117 b 133 -51 207 -58 168 -51 b 67 -79 103 -51 67 -51 b 78 -133 67 -99 72 -117 b 365 -272 115 -265 250 -272 b 428 -271 386 -272 408 -274 b 518 -239 460 -271 492 -258 m 181 318 b 300 526 181 390 203 522 b 421 289 417 526 421 433 b 319 149 421 194 413 149 b 181 315 224 149 181 240 l 181 318 m 322 160 b 411 282 394 160 411 210 b 403 383 411 321 404 360 b 308 514 397 440 397 514 b 194 317 218 514 194 392 b 322 160 194 235 247 160 "},"h":{"ha":622,"x_min":0,"x_max":0,"o":"m 585 472 b 578 69 585 339 578 204 b 582 3 578 47 579 25 b 510 -10 576 -8 540 -10 b 392 24 488 -10 392 -32 b 393 213 392 86 393 149 b 388 325 393 250 392 288 b 360 447 382 367 388 413 b 317 460 357 447 344 449 b 228 342 238 460 228 393 b 235 108 228 264 235 186 b 229 4 235 72 229 39 b 156 -14 222 -8 179 -14 b 79 -8 129 -14 106 -8 l 44 -8 b 38 924 44 300 38 614 b 50 1011 38 965 40 1006 b 99 1007 65 1011 82 1007 b 199 1017 129 1007 139 1017 b 238 1007 221 1017 238 1015 l 238 997 b 240 956 240 989 240 974 b 239 897 240 929 239 900 l 239 632 b 258 642 244 635 251 638 b 408 694 294 678 365 694 b 585 472 572 694 585 603 m 567 8 b 564 60 565 25 564 43 b 571 479 564 199 571 339 b 410 681 571 600 561 681 b 236 614 344 681 290 649 l 225 621 l 225 990 b 224 1003 224 996 224 997 b 110 990 185 1003 149 990 b 57 996 90 990 71 994 b 53 840 54 944 53 892 b 57 4 53 560 57 282 b 96 7 68 6 82 7 b 132 3 108 7 122 6 b 215 10 160 3 188 1 b 219 146 215 54 219 100 b 211 318 219 200 211 260 b 310 472 211 406 228 472 b 360 461 321 472 350 472 b 406 239 407 451 406 310 l 406 153 b 403 60 406 125 403 92 b 407 4 403 40 404 21 b 478 3 431 4 454 3 b 567 8 507 3 538 4 "},"i":{"ha":288,"x_min":0,"x_max":0,"o":"m 244 950 b 250 886 249 938 250 913 b 249 819 250 861 249 835 b 169 796 249 800 193 796 b 47 811 131 796 60 797 b 40 988 47 869 40 928 b 49 1008 40 996 42 1004 l 238 1004 l 244 997 m 229 965 b 231 990 229 974 229 982 l 56 994 b 54 969 56 986 54 978 b 61 817 54 918 61 868 b 175 810 85 817 133 810 b 235 822 201 810 224 813 b 232 943 235 863 232 903 b 229 965 229 950 229 957 m 250 699 b 243 224 250 540 243 382 b 249 8 243 153 244 81 b 185 -11 249 -7 210 -11 b 74 -6 149 -11 106 -6 b 47 -7 64 -6 54 -6 l 39 1 b 43 143 43 49 43 96 b 39 515 43 267 39 390 b 47 706 39 517 40 706 l 47 701 b 54 710 50 704 51 707 b 243 706 117 710 179 706 l 250 699 m 229 224 b 236 692 229 381 236 536 b 61 696 176 692 118 696 b 54 501 56 631 54 567 b 58 169 54 390 58 281 b 54 8 58 115 57 63 b 181 1 93 8 139 1 b 235 11 200 1 218 4 b 229 224 231 82 229 153 "},"í":{"ha":288,"x_min":0,"x_max":0,"o":"m 265 1053 b 371 954 303 1033 339 986 l 371 946 b 231 813 336 911 247 849 b 144 803 224 806 196 803 b 33 815 96 803 42 807 l 33 826 b 265 1053 115 896 181 983 m 218 821 b 356 950 236 856 317 913 b 269 1038 326 979 297 1008 b 51 824 190 974 126 893 b 151 815 82 818 117 815 b 218 821 175 815 197 817 m 240 703 b 249 540 240 649 249 596 b 243 163 249 414 243 289 b 249 0 243 108 244 54 b 242 -7 246 -3 243 -4 b 235 -6 239 -7 238 -6 b 101 -11 199 -6 146 -11 b 39 10 68 -11 47 -8 b 43 219 42 79 43 149 b 38 697 43 378 38 538 l 44 706 l 68 706 b 96 704 78 706 86 704 b 233 710 142 704 188 710 b 240 703 235 707 238 706 m 106 3 b 233 8 146 3 196 8 b 228 181 229 65 228 124 b 232 511 228 292 232 401 b 226 696 232 572 231 633 b 94 690 182 696 139 690 b 68 692 86 690 76 692 l 51 692 b 56 215 51 533 56 375 b 53 11 56 147 56 79 b 106 3 67 4 85 3 "},"î":{"ha":288,"x_min":0,"x_max":0,"o":"m 376 819 b 265 807 340 819 322 807 b 157 868 203 807 175 832 l 146 879 b 25 810 90 839 106 810 b -75 818 -4 810 -44 813 l -79 831 b 146 1057 -14 915 67 983 b 156 1056 149 1056 151 1056 l 382 831 l 376 819 m 360 832 b 150 1042 289 901 219 972 b -62 831 76 972 0 910 b 33 825 -51 829 -4 825 b 142 893 107 825 100 865 l 150 893 b 204 835 171 879 186 853 l 217 826 b 300 824 244 825 272 824 b 360 832 319 825 339 831 m 250 699 b 243 224 250 540 243 382 b 249 8 243 153 244 81 b 185 -11 249 -7 210 -11 b 74 -6 149 -11 106 -6 b 47 -7 64 -6 54 -6 l 39 1 b 43 143 43 49 43 96 b 39 515 43 267 39 390 b 47 706 39 517 40 706 l 47 701 b 54 710 50 704 51 707 b 243 706 117 710 179 706 l 250 699 m 229 224 b 236 692 229 381 236 536 b 61 696 176 692 118 696 b 54 501 56 631 54 567 b 58 169 54 390 58 281 b 54 8 58 115 57 63 b 181 1 93 8 139 1 b 235 11 200 1 218 4 b 229 224 231 82 229 153 "},"ï":{"ha":288,"x_min":0,"x_max":0,"o":"m 125 940 b 124 874 126 915 124 889 b 44 850 124 854 68 850 b -78 865 6 850 -65 851 b -85 1042 -78 924 -85 982 b -76 1063 -85 1050 -83 1058 l 113 1058 l 121 1058 m 381 940 b 379 874 382 915 379 889 b 300 850 379 854 324 850 b 178 865 261 850 190 851 b 171 1042 178 924 171 982 b 179 1063 171 1050 172 1058 l 368 1058 l 375 1058 m -69 1049 b -71 1024 -69 1040 -71 1032 b -64 871 -71 972 -64 922 b 50 864 -40 871 8 864 b 110 876 76 864 99 867 l 106 1044 m 186 1049 b 185 1024 186 1040 185 1032 b 192 871 185 972 192 922 b 306 864 215 871 264 864 b 365 876 332 864 354 867 l 361 1044 m 250 699 b 243 224 250 540 243 382 b 249 8 243 153 244 81 b 185 -11 249 -7 210 -11 b 74 -6 149 -11 106 -6 b 47 -7 64 -6 54 -6 l 39 1 b 43 143 43 49 43 96 b 39 515 43 267 39 390 b 47 706 39 517 40 706 l 47 701 b 54 710 50 704 51 707 b 243 706 117 710 179 706 l 250 699 m 229 224 b 236 692 229 381 236 536 b 61 696 176 692 118 696 b 54 501 56 631 54 567 b 58 169 54 390 58 281 b 54 8 58 115 57 63 b 181 1 93 8 139 1 b 235 11 200 1 218 4 b 229 224 231 82 229 153 "},"ì":{"ha":288,"x_min":0,"x_max":0,"o":"m 22 1053 b 196 885 86 1006 142 943 b 254 826 214 865 232 843 l 254 815 b 142 803 236 806 186 803 b 58 813 100 803 58 804 b -82 944 38 851 -82 924 l -82 956 b 14 1053 -50 988 -18 1019 l 22 1053 m -69 950 b 68 821 -39 922 53 851 b 136 815 78 818 106 815 b 235 824 171 815 213 818 b 186 875 217 839 201 857 b 18 1038 133 932 79 992 m 250 699 b 243 224 250 540 243 382 b 249 8 243 153 244 81 b 185 -11 249 -7 210 -11 b 74 -6 149 -11 106 -6 b 47 -7 64 -6 54 -6 l 39 1 b 43 143 43 49 43 96 b 39 515 43 267 39 390 b 47 706 39 517 40 706 l 47 701 b 54 710 50 704 51 707 b 243 706 117 710 179 706 l 250 699 m 229 224 b 236 692 229 381 236 536 b 61 696 176 692 118 696 b 54 501 56 631 54 567 b 58 169 54 390 58 281 b 54 8 58 115 57 63 b 181 1 93 8 139 1 b 235 11 200 1 218 4 b 229 224 231 82 229 153 "},"ĳ":{"ha":694,"x_min":0,"x_max":0,"o":"m 250 886 b 249 819 251 861 249 835 b 169 796 249 800 193 796 b 47 811 131 796 60 797 b 40 988 47 869 40 928 b 49 1008 40 996 42 1004 b 246 1007 111 1007 182 1008 l 250 886 m 649 906 b 653 846 649 893 653 868 b 574 796 653 806 632 796 b 454 811 538 796 467 797 b 447 988 454 869 447 928 b 456 1008 447 996 449 1004 b 646 1006 517 1007 583 1007 l 649 906 m 229 965 b 231 990 229 974 229 982 l 56 994 b 54 969 56 986 54 978 b 61 817 54 918 61 868 b 175 810 85 817 133 810 b 235 822 201 810 224 813 b 232 943 235 863 232 903 b 229 965 229 950 229 957 m 463 994 b 461 969 463 986 461 978 b 468 817 461 918 468 868 b 575 810 499 817 539 810 b 638 821 599 810 619 813 l 638 822 l 633 990 m 243 224 b 249 8 242 153 244 81 b 185 -11 249 -7 210 -11 b 40 -7 138 -11 92 -11 b 43 143 44 40 43 96 b 39 515 43 267 39 390 b 54 710 39 515 42 725 b 249 708 117 710 185 708 l 243 224 m 465 697 b 501 692 476 693 489 692 b 625 703 540 692 588 703 b 657 646 653 703 657 675 b 651 419 657 568 651 490 b 653 235 651 358 653 297 b 642 -72 653 132 654 29 b 618 -165 638 -103 638 -139 b 307 -268 550 -258 396 -268 b 244 -267 286 -268 265 -268 b 225 -172 228 -258 225 -203 b 238 -71 225 -133 229 -99 b 451 -14 281 -50 411 -76 l 451 700 l 465 697 m 229 224 b 236 692 229 381 236 536 b 61 696 176 692 118 696 b 54 501 56 631 54 567 b 58 169 54 390 58 281 b 54 8 58 115 57 63 b 181 1 93 8 139 1 b 235 11 200 1 218 4 b 229 224 231 82 229 153 m 619 689 b 500 678 581 689 538 678 b 471 681 489 678 479 679 b 467 247 471 536 467 393 l 467 110 b 464 -21 467 103 469 -10 b 249 -79 435 -76 310 -79 b 238 -167 242 -104 238 -136 b 250 -253 238 -201 243 -233 b 314 -254 269 -254 290 -254 b 618 -136 425 -254 568 -236 b 638 172 635 -33 638 69 b 636 389 638 244 636 317 b 642 633 636 471 642 551 b 638 688 642 651 640 671 b 619 689 632 688 625 689 "},"j":{"ha":283,"x_min":0,"x_max":0,"o":"m 242 846 b 163 796 242 806 221 796 b 43 811 126 796 56 797 b 36 988 43 869 36 928 b 44 1008 36 996 38 1004 l 229 1004 l 236 997 m 221 965 b 222 990 221 974 221 982 l 51 994 b 50 969 51 986 50 978 b 57 817 50 918 57 868 b 164 810 88 817 128 810 b 226 821 188 810 208 813 l 226 822 b 224 943 226 863 224 903 b 221 965 221 950 221 957 m 54 697 b 90 692 65 693 78 692 b 214 703 129 692 176 703 b 246 646 242 703 246 675 b 240 419 246 568 240 490 b 242 235 240 358 242 297 b 231 -72 242 132 243 29 b 207 -165 226 -103 226 -139 b -104 -268 139 -258 -15 -268 b -167 -267 -125 -268 -146 -268 b -186 -172 -183 -258 -186 -203 b -174 -71 -186 -133 -182 -99 b 40 -14 -131 -50 0 -76 b 46 689 40 219 46 454 l 54 697 m 208 689 b 89 678 169 689 126 678 b 60 681 78 678 68 679 b 56 247 60 536 56 393 l 56 110 b 53 -21 56 103 58 -10 b -162 -79 24 -76 -101 -79 b -174 -167 -169 -104 -174 -136 b -161 -253 -174 -201 -168 -233 b -97 -254 -142 -254 -121 -254 b 207 -136 14 -254 157 -236 b 226 172 224 -33 226 69 b 225 389 226 244 225 317 b 231 633 225 471 231 551 b 226 688 231 651 229 671 b 208 689 221 688 214 689 "},"k":{"ha":604,"x_min":0,"x_max":0,"o":"m 243 581 b 246 538 243 567 244 551 b 385 729 299 596 328 672 b 463 717 408 719 435 717 b 603 725 510 717 560 725 b 608 714 604 721 606 718 b 382 407 539 607 457 510 b 622 3 463 272 547 142 b 450 -15 613 -11 511 -15 b 347 65 364 -15 368 19 b 249 246 318 126 289 190 b 253 99 249 199 253 149 b 243 -3 253 64 251 31 b 167 -12 226 -11 196 -12 b 46 -1 119 -12 76 -17 b 39 335 42 111 39 222 b 46 1007 39 558 46 783 b 133 1019 57 1018 97 1019 b 249 1008 156 1019 238 1028 l 249 704 b 243 581 249 664 243 622 m 235 1003 b 183 1006 218 1006 200 1006 b 60 1001 142 1006 99 1001 b 53 338 60 781 53 558 b 60 6 53 226 56 117 b 114 3 76 3 96 3 b 231 7 153 3 193 6 b 240 108 238 40 240 74 b 235 267 240 161 235 215 b 247 272 239 268 243 271 b 396 6 307 189 340 92 b 461 -3 417 -1 439 -3 b 604 7 508 -3 558 7 b 368 404 531 143 447 271 l 368 410 b 590 711 442 511 522 607 b 456 703 550 711 500 703 b 385 714 429 703 406 706 b 314 606 358 682 339 631 b 246 518 293 574 272 543 b 229 567 231 524 229 546 b 235 703 229 611 235 658 l 235 1003 "},"l":{"ha":286,"x_min":0,"x_max":0,"o":"m 254 1011 b 240 153 254 726 240 439 b 249 8 240 104 243 56 b 183 -11 249 -7 208 -11 b 36 -6 139 -11 86 -6 b 46 264 40 82 46 176 b 35 751 46 426 35 589 b 46 1015 35 838 36 929 b 54 1017 49 1017 51 1015 l 243 1013 l 254 1011 m 60 1003 b 47 761 50 922 47 842 b 60 267 47 597 60 432 b 53 8 60 181 57 94 b 74 10 60 8 67 10 b 181 1 107 10 146 1 b 233 11 200 1 218 4 b 226 146 228 56 226 100 b 229 317 226 203 229 260 b 236 999 229 543 236 771 "},"m":{"ha":950,"x_min":0,"x_max":0,"o":"m 913 467 b 906 69 913 332 906 203 b 910 3 906 47 907 25 b 838 -10 904 -8 868 -10 b 719 24 815 -10 719 -32 b 721 213 719 86 721 149 b 681 450 721 243 722 450 l 679 451 b 640 460 668 457 654 460 b 586 443 621 460 600 454 b 578 78 586 322 578 201 b 583 6 578 53 579 29 b 507 -10 578 -8 539 -10 b 393 24 488 -10 393 -32 b 394 213 393 86 394 149 b 389 325 394 250 393 288 b 361 447 383 367 389 413 b 318 460 358 447 346 449 b 229 342 239 460 229 393 b 236 108 229 264 236 186 b 231 4 236 72 231 39 b 157 -14 224 -8 181 -14 b 81 -8 131 -14 107 -8 l 46 -8 b 38 592 46 193 38 388 b 50 699 38 643 39 693 b 99 694 65 699 82 694 b 199 704 129 694 139 704 b 236 699 217 704 232 703 b 239 631 236 676 238 653 b 418 694 282 663 340 694 b 564 631 478 694 538 675 b 736 694 619 657 658 694 b 913 467 904 694 913 606 m 894 8 b 892 60 893 25 892 43 b 899 479 892 199 899 339 b 738 681 899 600 889 681 b 565 615 674 681 617 650 l 554 619 b 422 678 538 674 453 678 b 238 614 354 678 296 653 l 226 618 b 224 690 224 642 226 667 b 110 678 185 690 149 678 b 57 683 90 678 71 682 b 53 461 54 610 53 536 b 58 4 53 308 57 156 b 97 7 69 6 83 7 b 133 3 110 7 124 6 b 217 10 161 3 189 1 b 221 146 217 54 221 100 b 213 318 221 200 213 260 b 311 472 213 406 229 472 b 361 461 322 472 351 472 b 407 239 408 451 407 310 l 407 153 b 404 60 407 125 404 92 b 408 4 404 40 406 21 b 479 3 432 4 456 3 b 568 8 508 3 539 4 b 564 75 565 31 564 53 b 572 446 564 199 572 322 b 639 474 582 465 615 474 b 733 239 732 474 733 368 l 733 153 b 731 60 733 125 731 92 b 735 4 731 40 732 21 b 806 3 758 4 782 3 b 894 8 835 3 865 4 "},"n":{"ha":625,"x_min":0,"x_max":0,"o":"m 588 472 b 581 69 588 339 581 204 b 585 3 581 47 582 25 b 513 -10 579 -8 543 -10 b 394 24 490 -10 394 -32 b 396 213 394 86 396 149 b 390 325 396 250 394 288 b 363 447 385 367 390 413 b 319 460 360 447 347 449 b 231 342 240 460 231 393 b 238 108 231 264 238 186 b 232 4 238 72 232 39 b 158 -14 225 -8 182 -15 l 47 -10 b 39 592 47 192 39 388 b 51 699 39 643 40 693 b 100 694 67 699 83 694 b 200 704 131 694 140 704 b 238 699 218 704 233 703 b 240 631 238 676 239 653 b 411 694 289 667 354 694 b 588 472 575 694 588 603 m 569 8 b 567 60 568 25 567 43 b 574 479 567 199 574 339 b 413 681 574 600 564 681 b 239 614 347 681 293 649 l 228 618 b 225 690 225 642 228 667 b 111 678 186 690 150 678 b 58 683 92 678 72 682 b 54 461 56 610 54 536 b 60 4 54 308 58 156 b 99 7 71 6 85 7 b 135 3 111 7 125 6 b 218 10 163 3 190 1 b 222 146 218 54 222 100 b 214 318 222 200 214 260 b 313 472 214 406 231 472 b 363 461 324 472 353 472 b 408 239 410 451 408 310 l 408 153 b 406 60 408 125 406 92 b 410 4 406 40 407 21 b 481 3 433 4 457 3 b 569 8 510 3 540 4 "},"ñ":{"ha":625,"x_min":0,"x_max":0,"o":"m 197 811 b 129 817 175 815 150 810 b 35 815 97 817 67 815 l 28 824 b 225 1058 53 922 115 1058 b 401 953 331 1058 336 965 b 471 1036 439 960 463 1001 b 532 1046 488 1044 510 1046 b 571 1044 546 1046 558 1044 b 607 1044 581 1044 589 1047 b 435 804 607 921 551 804 b 263 906 322 804 340 906 b 199 850 232 906 199 889 b 204 818 199 839 204 829 l 197 811 m 44 829 b 136 829 74 829 107 839 b 188 826 153 829 169 829 b 185 844 186 832 185 839 b 264 922 185 888 219 922 b 435 818 354 922 318 818 b 588 1031 539 818 588 915 b 483 1028 551 1029 490 1029 b 401 939 472 971 421 939 b 310 1017 363 939 342 992 b 224 1043 285 1036 253 1043 b 44 829 111 1043 72 914 m 411 694 b 588 472 575 694 588 603 b 581 69 588 339 581 204 b 585 3 581 47 582 25 b 513 -10 579 -8 543 -10 b 394 24 490 -10 394 -32 b 396 213 394 86 396 149 b 390 325 396 250 394 288 b 363 447 385 367 390 413 b 319 460 360 447 347 449 b 231 342 240 460 231 393 b 238 108 231 264 238 186 b 232 4 238 72 232 39 b 158 -14 225 -8 182 -14 b 82 -8 132 -14 108 -8 l 44 -12 b 39 592 44 189 39 385 b 51 699 39 643 40 693 b 100 694 67 699 83 694 b 200 704 131 694 140 704 b 238 699 218 704 233 703 b 240 631 238 676 239 653 b 411 694 289 667 354 694 m 569 8 b 567 60 568 25 567 43 b 574 479 567 199 574 339 b 413 681 574 600 564 681 b 239 614 347 681 293 649 l 228 618 b 225 690 225 642 228 667 b 111 678 186 690 150 678 b 58 683 92 678 72 682 b 54 461 56 610 54 536 b 60 4 54 308 58 156 b 99 7 71 6 85 7 b 135 3 111 7 125 6 b 218 10 163 3 190 1 b 222 146 218 54 222 100 b 214 318 222 200 214 260 b 313 472 214 406 231 472 b 363 461 324 472 353 472 b 408 239 410 451 408 310 l 408 153 b 406 60 408 125 406 92 b 410 4 406 40 407 21 b 481 3 433 4 457 3 b 569 8 510 3 540 4 "},"o":{"ha":622,"x_min":0,"x_max":0,"o":"m 242 719 b 332 721 274 719 304 721 b 519 674 400 721 456 714 b 599 440 588 631 599 531 b 572 93 599 307 600 203 b 364 -22 549 3 450 -22 b 300 -18 343 -22 321 -19 b 79 67 183 -10 163 -19 b 28 272 32 117 28 217 l 28 403 b 33 560 28 456 28 508 b 56 635 36 585 50 610 b 242 719 79 706 199 719 m 47 557 b 40 357 40 492 40 424 b 172 13 40 244 31 63 b 311 -6 219 -4 263 1 b 365 -10 326 -8 344 -10 b 572 189 542 -10 563 82 b 585 397 576 240 585 319 b 539 640 585 492 574 586 b 343 707 464 699 418 707 b 243 706 315 707 282 706 b 69 631 224 706 89 700 b 47 557 64 607 50 582 m 318 513 b 425 336 393 513 425 454 b 321 175 425 226 396 175 b 208 251 265 175 208 201 b 210 294 208 267 210 279 b 208 371 210 314 208 342 b 232 475 208 413 213 456 b 318 513 251 499 285 513 m 222 363 b 224 288 222 333 224 306 b 221 251 224 276 221 264 b 319 189 221 211 271 189 b 410 339 392 189 410 239 b 317 497 410 457 381 497 b 242 465 289 497 260 486 b 222 363 225 449 222 406 "},"ó":{"ha":622,"x_min":0,"x_max":0,"o":"m 533 946 b 393 813 499 911 410 849 b 307 803 386 806 358 803 b 196 815 258 803 204 807 l 196 826 b 428 1053 278 896 343 983 b 533 954 465 1033 501 986 l 533 946 m 518 950 b 432 1038 489 979 460 1008 b 214 824 353 974 289 893 b 314 815 244 818 279 815 b 381 821 338 815 360 817 b 518 950 399 856 479 913 m 242 719 b 332 721 274 719 304 721 b 519 674 400 721 456 714 b 599 440 588 631 599 531 b 572 93 599 307 600 203 b 364 -22 549 3 450 -22 b 300 -18 343 -22 321 -19 b 79 67 183 -10 163 -19 b 28 272 32 117 28 217 l 28 403 b 33 560 28 456 28 508 b 56 635 36 585 50 610 b 242 719 79 706 199 719 m 47 557 b 40 357 40 492 40 424 b 172 13 40 244 31 63 b 311 -6 219 -4 263 1 b 365 -10 326 -8 344 -10 b 572 189 542 -10 563 82 b 585 397 576 240 585 319 b 539 640 585 492 574 586 b 343 707 464 699 418 707 b 243 706 315 707 282 706 b 69 631 224 706 89 700 b 47 557 64 607 50 582 m 318 513 b 425 336 393 513 425 454 b 321 175 425 226 396 175 b 208 251 265 175 208 201 b 210 294 208 267 210 279 b 208 371 210 314 208 342 b 232 475 208 413 213 456 b 318 513 251 499 285 513 m 222 363 b 224 288 222 333 224 306 b 221 251 224 276 221 264 b 319 189 221 211 271 189 b 410 339 392 189 410 239 b 317 497 410 457 381 497 b 242 465 289 497 260 486 b 222 363 225 449 222 406 "},"ô":{"ha":622,"x_min":0,"x_max":0,"o":"m 549 819 b 438 807 513 819 494 807 b 329 868 375 807 347 832 l 318 879 b 197 810 263 839 278 810 b 97 818 168 810 128 813 l 93 831 b 318 1057 158 915 239 983 b 328 1056 321 1056 324 1056 l 554 831 l 549 819 m 532 832 b 322 1042 461 901 392 972 b 110 831 249 972 172 910 b 206 825 121 829 168 825 b 314 893 279 825 272 865 l 322 893 b 376 835 343 879 358 853 l 389 826 b 472 824 417 825 444 824 b 532 832 492 825 511 831 m 242 719 b 332 721 274 719 304 721 b 519 674 400 721 456 714 b 599 440 588 631 599 531 b 572 93 599 307 600 203 b 364 -22 549 3 450 -22 b 300 -18 343 -22 321 -19 b 79 67 183 -10 163 -19 b 28 272 32 117 28 217 l 28 403 b 33 560 28 456 28 508 b 56 635 36 585 50 610 b 242 719 79 706 199 719 m 47 557 b 40 357 40 492 40 424 b 172 13 40 244 31 63 b 311 -6 219 -4 263 1 b 365 -10 326 -8 344 -10 b 572 189 542 -10 563 82 b 585 397 576 240 585 319 b 539 640 585 492 574 586 b 343 707 464 699 418 707 b 243 706 315 707 282 706 b 69 631 224 706 89 700 b 47 557 64 607 50 582 m 318 513 b 425 336 393 513 425 454 b 321 175 425 226 396 175 b 208 251 265 175 208 201 b 210 294 208 267 210 279 b 208 371 210 314 208 342 b 232 475 208 413 213 456 b 318 513 253 497 285 513 m 222 363 b 224 288 222 333 224 306 b 221 251 224 276 221 264 b 319 189 221 211 271 189 b 410 339 392 189 410 239 b 317 497 410 457 381 497 b 242 465 289 497 260 486 b 222 363 225 449 222 406 "},"ö":{"ha":622,"x_min":0,"x_max":0,"o":"m 276 1004 b 282 940 281 992 282 967 b 281 874 282 915 281 889 b 201 850 281 854 225 850 b 79 865 163 850 92 851 b 72 1042 79 924 72 982 b 81 1063 72 1050 74 1058 l 269 1058 l 276 1051 m 532 1004 b 538 940 536 992 538 967 b 536 874 538 915 536 889 b 457 850 536 854 481 850 b 335 865 418 850 347 851 b 328 1042 335 924 328 982 b 336 1063 328 1050 329 1058 l 525 1058 l 532 1051 m 261 1019 b 263 1044 261 1028 261 1036 l 88 1049 b 86 1024 88 1040 86 1032 b 93 871 86 972 93 922 b 207 864 117 871 165 864 b 267 876 233 864 256 867 b 264 997 267 917 264 957 b 261 1019 261 1004 261 1011 m 517 1019 b 518 1044 517 1028 517 1036 l 343 1049 b 342 1024 343 1040 342 1032 b 349 871 342 972 349 922 b 463 864 372 871 421 864 b 522 876 489 864 511 867 b 519 997 522 917 519 957 b 517 1019 517 1004 517 1011 m 242 719 b 332 721 274 719 304 721 b 519 674 400 721 456 714 b 599 440 588 631 599 531 b 572 93 599 307 600 203 b 364 -22 549 3 450 -22 b 300 -18 343 -22 321 -19 b 79 67 183 -10 163 -19 b 28 272 32 117 28 217 l 28 403 b 33 560 28 456 28 508 b 56 635 36 585 50 610 b 242 719 79 706 199 719 m 47 557 b 40 357 40 492 40 424 b 172 13 40 244 31 63 b 311 -6 219 -4 263 1 b 365 -10 326 -8 344 -10 b 572 189 542 -10 563 82 b 585 397 576 240 585 319 b 539 640 585 492 574 586 b 343 707 464 699 418 707 b 243 706 315 707 282 706 b 69 631 224 706 89 700 b 47 557 64 607 50 582 m 318 513 b 425 336 393 513 425 454 b 321 175 425 226 396 175 b 208 251 265 175 208 201 b 210 294 208 267 210 279 b 208 371 210 314 208 342 b 232 475 208 413 213 456 b 318 513 251 499 285 513 m 222 363 b 224 288 222 333 224 306 b 221 251 224 276 221 264 b 319 189 221 211 271 189 b 410 339 392 189 410 239 b 317 497 410 457 381 497 b 242 465 289 497 260 486 b 222 363 225 449 222 406 "},"ò":{"ha":622,"x_min":0,"x_max":0,"o":"m 210 1053 b 383 885 274 1006 329 943 b 442 826 401 865 419 843 l 442 815 b 329 803 424 806 374 803 b 246 813 288 803 246 804 b 106 944 225 851 106 924 l 106 956 b 201 1053 138 988 169 1019 l 210 1053 m 118 950 b 256 821 149 922 240 851 b 324 815 265 818 293 815 b 422 824 358 815 400 818 b 374 875 404 839 389 857 b 206 1038 321 932 267 992 m 242 719 b 332 721 274 719 304 721 b 519 674 400 721 456 714 b 599 440 588 631 599 531 b 572 93 599 307 600 203 b 364 -22 549 3 450 -22 b 300 -18 343 -22 321 -19 b 79 67 183 -10 163 -19 b 28 272 32 117 28 217 l 28 403 b 33 560 28 456 28 508 b 56 635 36 585 50 610 b 242 719 79 706 199 719 m 47 557 b 40 357 40 492 40 424 b 172 13 40 244 31 63 b 311 -6 219 -4 263 1 b 365 -10 326 -8 344 -10 b 572 189 542 -10 563 82 b 585 397 576 240 585 319 b 539 640 585 492 574 586 b 343 707 464 699 418 707 b 243 706 315 707 282 706 b 69 631 224 706 89 700 b 47 557 64 607 50 582 m 318 513 b 425 336 393 513 425 454 b 321 175 425 226 396 175 b 208 251 265 175 208 201 b 210 294 208 267 210 279 b 208 371 210 314 208 342 b 232 475 208 413 213 456 b 318 513 251 499 285 513 m 222 363 b 224 288 222 333 224 306 b 221 251 224 276 221 264 b 319 189 221 211 271 189 b 410 339 392 189 410 239 b 317 497 410 457 381 497 b 242 465 289 497 260 486 b 222 363 225 449 222 406 "},"ø":{"ha":488,"x_min":0,"x_max":0,"o":"m 457 263 b 325 -14 457 156 447 19 b 171 -40 300 -21 168 -21 b 117 -46 154 -44 135 -46 b 31 -31 89 -46 31 -49 b 57 53 31 -14 44 25 b 25 328 38 143 25 236 b 35 483 25 381 35 432 b 236 688 35 625 103 688 b 276 686 250 688 264 688 b 288 707 276 692 278 707 b 315 704 296 707 306 704 b 379 707 336 704 358 707 b 432 692 399 707 418 706 b 414 632 432 671 414 653 b 415 625 414 631 414 628 b 461 467 450 583 461 524 b 458 414 461 449 460 431 b 457 263 458 363 457 314 m 444 415 b 447 468 446 432 447 450 b 433 563 447 501 443 535 b 400 632 425 585 400 610 b 418 688 400 651 415 669 b 389 692 408 690 399 692 b 322 686 367 692 344 686 b 290 693 311 686 300 688 l 290 679 b 289 675 290 678 289 676 l 288 674 b 282 671 285 672 283 672 b 222 675 263 674 243 675 b 49 465 57 675 54 556 b 42 385 47 439 42 413 l 42 267 b 49 171 42 235 46 203 b 71 56 51 136 71 89 l 72 53 b 71 49 72 51 71 50 l 69 47 b 44 -29 58 22 56 -1 b 118 -32 68 -29 94 -32 b 164 -28 135 -32 149 -31 l 176 -15 b 239 -4 188 -4 219 -4 b 264 -6 247 -4 256 -6 b 443 264 439 -6 443 151 b 444 413 443 314 444 363 l 444 415 m 140 258 b 135 293 136 264 135 278 b 147 397 133 353 144 364 b 238 549 150 458 149 549 b 244 542 239 546 242 544 b 226 481 244 526 231 496 b 153 258 203 407 176 333 l 140 258 m 149 293 b 228 535 175 374 201 453 b 163 429 168 525 163 478 b 164 404 163 421 164 413 b 154 342 164 381 163 358 b 149 293 154 326 150 310 m 332 375 b 339 244 332 335 339 288 b 235 106 339 178 322 119 l 229 111 b 226 117 228 114 226 115 b 319 378 254 176 279 299 l 332 375 m 322 251 b 318 342 322 281 319 311 l 243 121 b 313 167 272 128 297 142 b 322 251 319 194 322 222 "},"õ":{"ha":622,"x_min":0,"x_max":0,"o":"m 194 811 b 126 817 172 815 147 810 b 32 815 94 817 64 815 l 25 824 b 222 1058 50 922 113 1058 b 399 953 328 1058 333 965 b 468 1036 436 960 460 1001 b 529 1046 485 1044 507 1046 b 568 1044 543 1046 556 1044 b 589 1046 575 1044 582 1046 b 594 1043 590 1044 592 1044 l 596 1042 b 599 1036 596 1039 597 1036 b 432 804 599 913 549 804 b 260 906 319 804 338 906 b 196 850 229 906 196 889 b 201 818 196 839 201 829 l 194 811 m 185 826 b 182 844 183 832 182 839 b 261 922 182 888 217 922 b 432 818 351 922 315 818 b 585 1031 536 818 585 915 b 481 1028 549 1029 488 1029 b 399 939 469 971 418 939 b 307 1017 360 939 339 992 b 221 1043 282 1036 250 1043 b 42 829 108 1043 69 914 b 104 833 61 829 83 833 b 133 829 114 833 124 832 b 185 826 150 829 167 829 m 242 719 b 332 721 274 719 304 721 b 519 674 400 721 456 714 b 599 440 588 631 599 531 b 572 93 599 307 600 203 b 364 -22 549 3 450 -22 b 300 -18 343 -22 321 -19 b 79 67 183 -10 163 -19 b 28 272 32 117 28 217 l 28 403 b 33 560 28 456 28 508 b 56 635 36 585 50 610 b 242 719 79 706 199 719 m 47 557 b 40 357 40 492 40 424 b 172 13 40 244 31 63 b 311 -6 219 -4 263 1 b 365 -10 326 -8 344 -10 b 572 189 542 -10 563 82 b 585 397 576 240 585 319 b 539 640 585 492 574 586 b 343 707 464 699 418 707 b 243 706 315 707 282 706 b 69 631 224 706 89 700 b 47 557 64 607 50 582 m 318 513 b 425 336 393 513 425 454 b 321 175 425 226 396 175 b 208 251 265 175 208 201 b 210 294 208 267 210 279 b 208 371 210 314 208 342 b 232 475 208 413 213 456 b 318 513 251 499 285 513 m 222 363 b 224 288 222 333 224 306 b 221 251 224 276 221 264 b 319 189 221 211 271 189 b 410 339 392 189 410 239 b 317 497 410 457 381 497 b 242 465 289 497 260 486 b 222 363 225 449 222 406 "},"œ":{"ha":976,"x_min":0,"x_max":0,"o":"m 492 94 b 235 -8 443 -1 332 -8 b 10 350 76 -8 10 196 b 61 575 10 432 28 511 b 317 701 117 683 208 701 b 500 631 379 701 468 699 b 704 699 553 689 629 699 b 879 650 781 699 828 704 b 958 414 936 590 958 499 b 956 357 958 394 958 375 b 708 333 932 333 774 333 b 628 331 683 333 661 331 b 583 336 611 331 596 332 b 690 151 583 236 597 151 b 761 271 754 151 761 226 l 772 271 b 796 269 779 269 788 269 b 900 275 828 269 867 275 b 953 258 922 275 944 275 b 918 46 942 203 947 79 b 735 -11 897 1 804 -11 b 651 -6 699 -11 668 -8 b 492 94 569 6 538 36 m 751 0 b 907 54 815 0 894 26 b 938 256 938 117 928 189 b 897 261 926 260 913 261 b 792 254 863 261 821 254 l 778 256 b 686 133 778 185 738 133 b 568 328 594 133 568 246 b 581 351 568 339 571 347 b 628 344 590 346 608 344 b 689 347 653 344 678 347 b 942 363 735 347 897 346 b 944 413 943 379 944 396 b 869 640 944 494 924 582 b 733 685 831 682 786 685 b 501 603 647 685 563 671 b 493 615 497 603 496 614 b 314 688 443 692 378 688 b 72 569 214 688 125 671 b 24 351 40 508 24 431 b 231 6 24 206 86 6 b 483 107 325 6 440 6 b 492 114 485 108 486 114 b 653 8 550 56 565 19 b 751 0 681 4 715 0 m 806 454 b 615 443 806 438 625 443 b 571 469 592 443 571 449 b 686 581 571 544 621 581 b 749 567 708 581 729 576 b 806 454 792 544 806 500 m 296 578 b 403 417 390 578 403 501 b 272 125 403 261 399 125 b 151 349 179 125 151 247 b 171 486 151 399 158 447 b 296 578 182 542 240 578 m 682 569 b 585 464 628 569 585 529 b 625 456 596 458 610 456 b 792 458 679 456 713 465 b 742 554 792 497 779 536 b 682 569 721 564 701 569 m 165 351 b 272 135 165 251 197 135 b 388 331 356 135 388 226 b 297 564 388 469 394 564 b 185 482 247 564 194 532 b 165 351 171 443 165 397 "},"p":{"ha":644,"x_min":0,"x_max":0,"o":"m 233 -289 b 129 -299 208 -294 167 -299 b 64 -293 104 -299 81 -297 l 54 -290 l 50 -282 b 36 529 50 -11 36 257 b 42 694 36 585 38 639 b 108 704 56 701 82 704 b 168 703 131 704 151 703 l 190 703 b 243 692 213 703 238 701 l 243 690 b 247 635 247 678 243 656 b 360 699 264 683 311 699 b 622 317 557 699 622 544 b 410 -8 622 106 572 -8 b 243 13 390 -8 282 -10 b 246 -114 244 -21 246 -74 b 239 -282 246 -142 243 -225 l 233 -289 m 131 -285 b 225 -276 164 -285 199 -282 b 224 -236 224 -271 224 -256 b 229 33 224 -153 229 24 l 232 33 b 243 35 235 33 239 35 l 243 33 b 375 3 271 4 336 3 b 561 74 444 3 522 13 b 607 293 601 135 607 226 b 360 685 607 463 590 685 b 244 617 265 685 282 635 b 229 664 229 625 229 650 b 231 685 229 672 231 681 b 171 689 211 689 192 689 b 56 686 132 689 93 686 b 50 525 51 633 50 579 b 64 -278 50 258 64 -10 b 131 -285 81 -283 106 -285 m 454 257 b 315 151 444 185 383 151 b 218 269 231 151 218 206 b 329 526 218 394 218 526 b 467 346 401 526 467 439 b 454 254 467 317 463 282 l 454 257 m 450 319 b 322 513 450 404 422 513 b 236 368 253 513 236 433 b 238 318 236 350 238 333 b 236 261 238 303 236 282 b 313 161 236 207 243 161 b 440 258 371 161 432 199 b 450 319 447 278 444 300 "},"þ":{"ha":653,"x_min":0,"x_max":0,"o":"m 35 -244 b 42 153 40 -114 42 22 b 40 582 42 296 40 439 b 50 1010 40 725 42 867 b 253 1004 113 1018 190 1017 b 250 654 253 888 250 771 b 394 700 281 697 364 700 b 599 544 478 700 572 610 b 633 357 622 485 633 421 b 406 -11 633 183 553 -11 b 251 56 354 -11 299 13 l 251 -126 b 250 -172 251 -142 250 -157 b 256 -228 250 -192 251 -210 b 189 -250 246 -246 224 -250 l 35 -244 m 250 76 b 415 4 292 35 354 4 b 618 361 543 4 618 172 b 369 683 618 525 550 683 b 250 624 349 686 269 683 l 236 628 b 239 997 236 751 239 874 l 64 1001 b 54 561 56 854 54 708 b 56 154 54 426 56 290 b 49 -228 56 26 54 -101 b 183 -236 82 -228 132 -236 b 240 -228 206 -236 226 -235 b 236 -176 238 -211 236 -194 b 238 -125 236 -160 238 -142 l 238 71 l 250 76 m 464 347 b 332 185 464 264 418 185 b 238 301 275 185 238 211 b 239 361 238 324 239 346 b 236 422 239 371 236 396 b 308 511 236 489 257 511 b 454 418 368 511 440 486 b 464 347 461 396 464 368 m 303 497 b 250 419 253 497 250 457 b 253 360 250 399 253 376 b 251 303 253 342 251 322 b 332 199 251 250 261 199 b 449 358 419 199 449 283 b 440 414 447 376 446 397 b 303 497 428 479 357 497 "},"q":{"ha":643,"x_min":0,"x_max":0,"o":"m 400 15 b 283 -10 371 -7 321 -10 b 71 68 203 -10 115 -4 b 21 285 32 131 21 208 b 272 700 21 450 43 700 b 397 635 324 700 374 682 b 399 638 399 635 399 636 b 397 657 399 639 397 647 b 447 703 397 697 410 703 l 476 703 b 526 703 488 703 507 703 b 603 693 558 703 593 701 b 604 513 604 633 604 572 b 594 -283 604 247 594 -18 b 511 -299 588 -297 544 -299 b 406 -281 468 -299 421 -297 l 406 -265 b 400 -133 399 -214 400 -178 m 419 -276 b 494 -285 443 -282 468 -285 b 581 -278 524 -285 554 -282 b 590 507 581 -17 590 246 b 589 686 590 567 590 626 b 471 690 551 686 510 690 b 414 686 451 690 432 689 b 393 618 414 633 417 631 b 274 688 367 636 371 688 b 33 311 108 688 33 542 b 82 75 33 219 49 129 b 254 4 117 18 189 4 b 401 36 297 4 367 1 l 415 35 b 414 -74 414 -1 414 -37 b 419 -267 414 -107 419 -228 l 419 -276 m 192 254 b 178 335 182 278 178 306 b 315 525 178 429 229 525 b 424 314 389 525 424 472 b 338 151 424 203 417 151 b 190 256 264 151 201 179 l 192 254 m 204 257 b 343 165 215 183 276 165 b 410 272 401 165 410 217 b 314 513 410 392 408 513 b 192 332 236 513 192 417 b 204 260 192 307 196 281 l 204 257 "},"r":{"ha":511,"x_min":0,"x_max":0,"o":"m 46 -3 b 39 592 46 199 39 385 b 51 699 39 643 40 693 b 100 694 67 699 83 694 b 211 703 131 694 140 703 b 246 694 235 703 242 703 l 246 657 b 449 703 299 681 381 703 b 504 690 468 703 497 703 b 500 526 504 636 500 582 b 504 446 500 500 501 472 b 494 439 501 443 497 442 b 329 467 431 463 382 467 b 239 372 257 467 239 419 b 246 4 239 250 246 126 b 190 -10 240 -8 210 -10 b 100 -7 161 -10 129 -7 l 46 -3 m 233 651 b 231 667 232 656 231 661 b 232 689 231 675 232 683 l 197 689 b 111 678 179 682 140 678 b 58 683 92 678 72 682 b 54 461 56 610 54 536 b 60 4 54 308 58 156 b 92 6 71 6 81 6 b 174 3 119 6 146 3 b 232 10 193 3 213 4 b 226 361 232 126 226 244 b 333 481 226 426 240 481 b 489 456 390 481 438 472 b 485 525 486 478 485 501 b 490 685 485 578 490 632 b 244 640 404 685 322 679 l 233 647 "},"s":{"ha":625,"x_min":0,"x_max":0,"o":"m 607 474 b 496 464 571 468 533 464 b 401 483 469 464 411 463 l 401 485 b 324 557 401 532 364 557 b 254 508 293 557 261 544 b 446 404 254 413 381 421 b 606 213 549 378 606 306 b 328 -29 606 18 449 -29 b 8 217 165 -29 8 31 b 68 229 19 228 44 229 l 90 229 b 153 231 104 229 128 231 b 228 219 185 231 219 228 l 228 214 b 232 213 229 214 231 213 l 228 213 b 313 151 232 171 272 151 b 392 215 360 151 392 175 b 256 296 392 274 307 288 b 22 514 139 315 22 389 b 300 731 22 693 181 731 b 535 682 378 731 472 729 b 613 481 594 636 613 551 l 607 474 m 496 476 b 599 486 529 476 565 481 b 329 715 599 693 457 715 b 38 515 213 715 38 703 b 232 314 38 413 119 338 b 403 219 286 303 403 300 b 318 135 403 160 360 135 b 214 213 271 135 219 165 b 92 215 174 214 132 215 b 22 213 68 215 44 215 b 314 -17 22 46 171 -17 b 589 211 444 -17 589 22 b 443 390 589 296 544 363 b 240 503 379 407 240 400 b 319 572 240 549 279 572 b 415 486 365 572 415 543 b 496 476 442 479 468 476 "},"š":{"ha":625,"x_min":0,"x_max":0,"o":"m 301 760 b 60 999 225 835 135 924 l 201 1010 b 310 938 265 1015 261 968 l 319 946 b 401 1007 329 965 369 1007 b 538 996 443 1007 486 1007 b 310 760 471 910 389 835 m 96 982 b 306 775 165 913 236 844 b 515 985 379 844 453 907 b 490 983 507 985 499 983 b 408 992 468 983 436 994 b 307 922 356 992 344 942 b 239 990 278 938 265 974 b 151 992 210 990 181 992 m 496 464 b 401 483 469 464 411 463 l 401 485 b 324 557 401 532 364 557 b 254 508 293 557 261 544 b 446 404 254 413 381 421 b 606 213 549 378 606 306 b 328 -29 606 18 449 -29 b 8 217 165 -29 8 31 b 68 229 19 228 44 229 l 90 229 b 153 231 104 229 128 231 b 228 219 185 231 219 228 l 228 214 b 232 213 229 214 231 213 l 228 213 b 313 151 232 171 272 151 b 392 215 360 151 392 175 b 256 296 392 274 307 288 b 22 514 139 315 22 389 b 300 731 22 693 181 731 b 535 682 378 731 472 729 b 613 481 594 636 613 551 l 607 474 b 496 464 571 468 533 464 m 319 572 b 415 486 365 572 415 543 b 496 476 442 479 468 476 b 599 486 529 476 565 481 b 329 715 599 693 457 715 b 38 515 213 715 38 703 b 232 314 38 413 119 338 b 403 219 286 303 403 300 b 318 135 403 160 360 135 b 214 213 271 135 219 165 b 92 215 174 214 132 215 b 22 213 68 215 44 215 b 314 -17 22 46 171 -17 b 589 211 444 -17 589 22 b 443 390 589 296 544 363 b 240 503 379 407 240 400 b 319 572 240 549 279 572 "},"ß":{"ha":653,"x_min":0,"x_max":0,"o":"m 324 494 b 353 571 331 522 338 546 b 424 678 376 611 424 640 b 279 760 424 728 357 760 b 231 751 263 760 244 757 b 225 667 226 724 225 694 b 239 131 225 488 239 310 l 239 83 b 192 -10 239 3 239 -10 b 117 -7 174 -10 150 -7 b 82 -8 107 -7 94 -8 b 46 3 65 -8 56 -7 b 42 256 43 88 42 171 b 44 707 42 407 44 557 b 42 960 44 792 44 875 b 168 993 51 979 133 989 b 261 999 197 996 229 999 b 608 714 425 999 608 940 b 575 556 608 660 596 607 b 536 478 564 529 547 504 b 539 471 538 475 538 472 b 646 235 608 401 646 315 b 379 -11 646 125 561 -11 b 318 -7 358 -11 338 -8 b 300 111 306 -1 300 63 b 378 210 300 200 329 199 b 411 281 406 231 411 260 b 324 492 411 353 324 403 l 324 494 m 426 279 b 404 214 426 260 419 238 b 313 103 374 168 313 224 b 324 7 313 68 318 31 b 363 4 336 6 350 4 b 632 249 499 4 632 76 b 522 476 632 358 557 406 b 563 561 521 500 553 539 b 594 701 581 606 594 653 b 267 985 594 919 432 985 b 56 957 196 985 122 974 b 58 715 57 876 58 796 b 56 278 58 569 56 424 b 60 8 56 188 57 99 b 217 7 111 8 164 7 b 228 104 225 28 228 64 b 211 664 228 321 211 475 b 218 757 211 696 213 726 b 279 772 233 772 257 772 b 436 681 401 772 436 715 b 364 564 436 640 394 606 b 338 490 349 543 343 515 b 426 279 339 406 426 354 "},"t":{"ha":538,"x_min":0,"x_max":0,"o":"m 307 693 b 510 704 375 693 442 701 b 529 642 526 686 529 664 b 522 551 529 611 522 581 b 524 531 522 544 522 538 l 526 514 l 310 517 b 311 246 310 426 308 336 b 485 193 339 203 425 193 b 518 194 497 193 508 193 b 535 61 533 164 535 99 b 525 -3 535 39 532 18 b 483 -8 515 -8 500 -8 b 132 119 357 -8 192 -1 b 110 322 111 160 111 272 b 107 433 108 360 107 396 b 108 513 107 460 107 486 b 54 511 92 510 74 511 b 8 521 36 511 17 513 l 8 535 b 8 594 8 550 8 572 b 21 696 8 640 10 690 b 111 694 50 693 79 694 b 104 894 111 754 104 829 b 142 963 104 929 107 963 b 258 953 179 963 219 953 b 292 956 269 953 281 953 l 307 958 l 307 693 m 292 940 b 263 938 282 939 272 938 b 144 949 224 938 183 949 b 122 929 125 949 122 940 b 125 688 122 849 125 768 b 85 678 117 679 101 678 b 26 681 61 678 46 681 l 22 526 b 124 532 53 526 94 529 b 121 419 121 496 121 457 b 132 206 121 347 124 276 b 160 94 136 172 136 124 b 453 6 221 18 351 6 b 513 7 474 6 494 6 b 521 63 518 25 521 43 b 511 181 521 103 515 140 b 481 179 503 179 492 179 b 294 257 419 179 294 197 b 296 283 294 267 296 275 b 296 531 299 525 293 528 l 508 531 b 506 553 507 538 506 544 b 514 644 506 581 514 613 b 506 690 514 660 513 676 b 292 679 433 686 361 679 l 292 940 "},"u":{"ha":625,"x_min":0,"x_max":0,"o":"m 382 33 b 383 63 382 43 382 53 b 215 0 335 17 260 0 b 67 50 161 0 106 10 b 39 164 42 76 42 132 b 35 288 36 206 35 246 b 42 633 35 403 42 517 b 40 690 42 651 40 671 b 108 704 53 703 81 704 l 221 704 b 231 649 229 686 231 668 b 228 436 231 578 228 513 b 256 254 228 369 232 301 l 263 247 b 304 233 263 246 293 236 b 394 354 383 233 394 299 b 386 594 394 435 386 515 b 393 689 386 626 393 657 l 397 697 b 467 708 417 703 443 708 b 540 703 493 708 514 703 b 572 706 551 703 561 704 b 579 699 574 703 576 701 b 583 211 579 536 583 374 b 581 3 583 142 583 72 b 564 -4 574 -4 571 -4 b 426 -10 553 -4 539 -6 b 386 1 394 -10 390 -8 l 386 0 b 382 33 383 10 382 22 m 397 75 b 400 4 397 51 400 28 b 526 14 439 4 481 14 b 567 10 539 14 553 10 b 569 214 569 78 569 146 b 565 690 569 372 565 532 b 522 688 553 689 538 688 b 461 692 500 688 482 692 b 407 685 443 692 425 690 b 400 593 407 654 400 624 b 408 351 400 519 408 440 b 315 219 408 294 394 219 b 258 233 289 219 269 226 l 257 235 b 214 407 215 254 214 369 b 218 603 214 472 218 536 b 214 690 218 632 217 661 b 54 686 161 690 106 693 b 56 632 56 668 56 650 b 47 219 56 494 47 353 b 210 14 47 99 63 14 b 388 82 286 14 325 50 l 397 75 "},"ú":{"ha":624,"x_min":0,"x_max":0,"o":"m 532 946 b 392 813 497 911 408 849 b 306 803 385 806 357 803 b 194 815 257 803 203 807 l 194 826 b 426 1053 276 896 342 983 b 532 954 464 1033 500 986 l 532 946 m 517 950 b 431 1038 488 979 458 1008 b 213 824 351 974 288 893 b 313 815 243 818 278 815 b 379 821 336 815 358 817 b 517 950 397 856 478 913 m 382 33 b 383 63 382 43 382 53 b 215 0 335 17 260 0 b 67 50 161 0 106 10 b 39 164 40 78 42 132 b 35 288 36 206 35 246 b 42 633 35 403 42 517 b 40 690 42 651 40 671 b 108 704 53 703 81 704 l 221 704 b 231 649 229 686 231 668 b 228 436 231 578 228 513 b 256 254 228 369 232 301 l 263 247 b 304 233 263 246 293 236 b 394 354 383 233 394 299 b 386 594 394 435 386 515 b 393 689 386 626 393 657 l 397 697 b 467 708 417 703 443 708 b 540 703 493 708 514 703 b 572 706 551 703 561 704 b 579 699 574 703 576 701 b 583 211 579 536 583 374 b 581 3 583 142 583 72 b 564 -4 574 -4 571 -4 b 532 -1 553 -4 539 -6 l 518 -1 b 426 -10 513 -3 507 -10 b 386 1 394 -10 390 -8 l 386 0 b 382 33 383 10 382 22 m 397 75 b 400 4 397 51 400 28 b 526 14 439 4 481 14 b 567 10 539 14 553 10 b 569 214 569 78 569 146 b 565 690 569 372 565 532 b 522 688 553 689 538 688 b 461 692 500 688 482 692 b 407 685 443 692 425 690 b 400 593 407 654 400 624 b 408 351 400 519 408 440 b 315 219 408 294 394 219 b 258 233 296 219 276 233 l 257 235 b 222 340 225 250 222 311 b 214 407 215 360 214 383 b 218 603 214 472 218 536 b 214 690 218 632 217 661 b 54 686 161 690 106 693 b 56 632 56 668 56 650 b 47 217 56 494 47 351 b 210 14 47 97 63 14 b 388 82 286 14 325 50 l 397 75 "},"û":{"ha":625,"x_min":0,"x_max":0,"o":"m 547 819 b 436 807 511 819 493 807 b 328 868 374 807 346 832 l 317 879 b 196 810 261 839 276 810 b 96 818 167 810 126 813 l 92 831 b 317 1057 157 915 238 983 b 326 1056 319 1056 322 1056 l 553 831 l 547 819 m 531 832 b 321 1042 460 901 390 972 b 108 831 247 972 171 910 b 204 825 119 829 167 825 b 313 893 278 825 271 865 l 321 893 b 375 835 342 879 357 853 l 388 826 b 471 824 415 825 443 824 b 531 832 490 825 510 831 m 382 33 b 383 63 382 43 382 53 b 215 0 335 17 260 0 b 67 50 161 0 106 10 b 39 164 40 78 42 132 b 35 288 36 206 35 246 b 42 633 35 403 42 517 b 40 690 42 651 40 671 b 108 704 53 703 81 704 l 221 704 b 231 649 229 686 231 668 b 228 436 231 578 228 513 b 256 254 228 369 232 301 l 263 247 b 304 233 263 246 293 236 b 394 354 383 233 394 299 b 386 594 394 435 386 515 b 393 689 386 626 393 657 l 397 697 b 467 708 417 703 443 708 b 540 703 493 708 514 703 b 572 706 551 703 561 704 b 579 699 574 703 576 701 b 583 211 579 536 583 374 b 581 3 583 142 583 72 b 564 -4 574 -4 571 -4 b 532 -1 553 -4 539 -6 l 518 -1 b 426 -10 513 -3 507 -10 b 386 1 394 -10 390 -8 l 386 0 b 382 33 383 10 382 22 m 397 75 b 400 4 397 51 400 28 b 526 14 439 4 481 14 b 567 10 539 14 553 10 b 569 214 569 78 569 146 b 565 690 569 372 565 532 b 522 688 553 689 538 688 b 461 692 500 688 482 692 b 407 685 443 692 425 690 b 400 593 407 654 400 624 b 408 351 400 519 408 440 b 315 219 408 294 394 219 b 258 233 296 219 276 233 l 257 235 b 222 340 225 250 222 311 b 214 407 215 360 214 383 b 218 603 214 472 218 536 b 214 690 218 632 217 661 b 54 686 161 690 106 693 b 56 632 56 668 56 650 b 47 217 56 494 47 351 b 210 14 47 97 63 14 b 388 82 286 14 325 50 l 397 75 "},"ü":{"ha":624,"x_min":0,"x_max":0,"o":"m 281 940 b 279 874 281 915 279 889 b 200 850 279 854 224 850 b 78 865 161 850 90 851 b 71 1042 78 924 71 982 b 79 1063 71 1050 72 1058 l 278 1058 l 281 940 m 536 940 b 535 874 538 915 535 889 b 456 850 535 854 479 850 b 333 865 417 850 346 851 b 326 1042 333 924 326 982 b 335 1063 326 1050 328 1058 l 531 1058 l 536 940 m 86 1049 b 92 871 82 989 92 931 b 206 864 115 871 164 864 b 265 876 232 864 254 867 l 261 1044 m 342 1049 b 340 1024 342 1040 340 1032 b 347 871 340 972 347 922 b 461 864 371 871 419 864 b 521 876 488 864 510 867 l 517 1044 m 382 33 b 383 63 382 43 382 53 b 215 0 335 17 260 0 b 67 50 161 0 106 10 b 39 164 40 78 42 132 b 35 288 36 206 35 246 b 42 633 35 403 42 517 b 40 690 42 651 40 671 b 108 704 53 703 81 704 l 221 704 b 231 649 229 686 231 668 b 228 436 231 578 228 513 b 304 233 228 358 224 246 b 394 354 383 233 394 299 b 386 594 394 435 386 515 b 393 689 386 626 393 657 l 394 700 b 540 703 439 719 494 703 b 579 699 554 703 569 710 b 583 211 579 536 583 374 b 581 3 583 142 583 72 b 564 -4 574 -4 571 -4 b 426 -10 553 -4 539 -6 b 386 1 394 -10 390 -8 l 386 0 b 382 33 383 10 382 22 m 396 89 b 400 4 396 65 400 28 b 526 14 439 4 481 14 b 567 10 539 14 553 10 b 569 214 569 78 569 146 b 565 690 569 372 565 532 b 522 688 553 689 538 688 b 461 692 500 688 482 692 b 407 685 443 692 425 690 b 400 593 407 654 400 624 b 408 351 400 519 408 440 b 315 219 408 294 394 219 b 258 233 296 219 283 221 l 257 235 b 214 407 215 254 214 369 b 218 603 214 472 218 536 b 214 690 218 632 217 661 b 54 686 161 690 106 693 b 56 632 56 668 56 650 b 47 217 56 494 47 351 b 210 14 47 97 63 14 b 388 82 286 14 325 50 l 396 89 "},"ù":{"ha":625,"x_min":0,"x_max":0,"o":"m 208 1053 b 382 885 272 1006 328 943 b 440 826 400 865 418 843 l 440 815 b 328 803 422 806 372 803 b 244 813 286 803 244 804 b 104 944 224 851 104 924 l 104 956 b 200 1053 136 988 168 1019 l 208 1053 m 117 950 b 254 821 147 922 239 851 b 322 815 264 818 292 815 b 421 824 357 815 399 818 b 372 875 403 839 388 857 b 204 1038 319 932 265 992 m 382 33 b 383 63 382 43 382 53 b 215 0 335 17 260 0 b 67 50 161 0 106 10 b 39 164 40 78 42 132 b 35 288 36 206 35 246 b 42 633 35 403 42 517 b 40 690 42 651 40 671 b 108 704 53 703 81 704 l 221 704 b 231 649 229 686 231 668 b 228 436 231 578 228 513 b 256 254 228 369 232 301 l 263 247 b 304 233 263 246 293 236 b 394 354 383 233 394 299 b 386 594 394 435 386 515 b 393 689 386 626 393 657 l 397 697 b 467 708 417 703 443 708 b 540 703 493 708 514 703 b 572 706 551 703 561 704 b 579 699 574 703 576 701 b 583 211 579 536 583 374 b 581 3 583 142 583 72 b 564 -4 574 -4 571 -4 b 532 -1 553 -4 539 -6 l 518 -1 b 426 -10 513 -3 507 -10 b 386 1 394 -10 390 -8 l 386 0 b 382 33 383 10 382 22 m 397 75 b 400 4 397 51 400 28 b 526 14 439 4 481 14 b 567 10 539 14 553 10 b 569 214 569 78 569 146 b 565 690 569 372 565 532 b 522 688 553 689 538 688 b 461 692 500 688 482 692 b 407 685 443 692 425 690 b 400 593 407 654 400 624 b 408 351 400 519 408 440 b 315 219 408 294 394 219 b 258 233 296 219 276 233 l 257 235 b 222 340 225 250 222 311 b 214 407 215 360 214 383 b 218 603 214 472 218 536 b 214 690 218 632 217 661 b 54 686 161 690 106 693 b 56 632 56 668 56 650 b 47 217 56 494 47 351 b 210 14 47 97 63 14 b 388 82 286 14 325 50 l 397 75 "},"v":{"ha":596,"x_min":0,"x_max":0,"o":"m 215 690 b 299 236 235 543 260 376 b 403 692 346 385 346 546 b 408 696 404 693 406 694 b 594 700 469 696 532 700 b 601 690 596 697 599 694 b 428 -4 519 467 488 226 b 261 -17 407 -25 329 -17 b 153 -6 217 -17 171 -15 b 8 693 115 231 67 463 l 17 701 b 72 697 35 699 54 697 b 161 700 101 697 132 700 b 210 697 178 700 193 699 l 215 690 m 201 683 b 160 685 188 685 174 685 b 72 683 131 685 101 683 b 25 686 57 683 40 683 b 165 3 81 460 129 233 b 338 -1 203 3 278 -1 b 415 4 372 -1 400 0 b 585 686 475 231 504 465 b 413 682 528 686 471 682 b 307 213 356 532 357 365 l 294 213 b 242 443 264 283 254 367 b 201 683 228 524 214 603 "},"w":{"ha":949,"x_min":0,"x_max":0,"o":"m 217 690 b 235 588 219 656 229 622 b 300 235 249 469 267 349 b 382 583 339 347 354 467 b 411 701 390 618 390 692 b 439 697 419 699 429 697 b 526 706 469 697 497 706 b 571 693 543 706 565 704 b 607 460 582 615 599 538 b 653 233 614 394 628 297 b 761 692 708 365 703 546 b 767 696 763 693 764 694 b 919 703 817 696 868 703 b 954 690 933 703 950 701 b 781 -4 872 467 840 226 b 703 -17 769 -15 732 -17 b 529 -11 643 -17 579 -11 b 522 -6 526 -10 525 -7 b 475 279 506 89 492 185 b 428 -4 457 186 453 89 b 261 -17 407 -25 329 -17 b 153 -6 217 -17 171 -15 b 8 693 115 231 67 463 l 17 701 b 68 697 33 699 51 697 b 160 700 99 697 129 700 b 211 697 176 700 194 700 l 217 690 m 203 683 b 160 685 189 685 175 685 b 72 683 131 685 101 683 b 25 686 57 683 40 683 b 165 3 81 460 129 233 b 338 -1 203 3 278 -1 b 415 4 372 -1 400 0 b 468 319 443 107 444 215 b 483 321 472 319 478 321 b 482 317 483 319 482 318 b 535 3 501 213 518 107 b 696 -1 569 3 639 -1 b 768 4 728 -1 754 0 b 938 688 828 231 857 467 b 904 689 926 689 915 689 b 771 682 861 689 815 682 b 660 213 713 533 721 363 l 647 213 b 593 458 615 289 606 378 b 557 688 581 535 568 611 b 511 690 542 690 526 690 b 467 685 497 686 482 685 b 414 686 449 685 431 686 b 307 213 383 529 360 367 l 294 213 b 240 457 263 289 253 376 b 203 683 228 533 214 607 "},"x":{"ha":574,"x_min":0,"x_max":0,"o":"m 579 692 b 465 342 543 575 485 464 b 564 3 485 225 533 117 b 557 -7 561 -1 558 -4 b 517 -6 543 -7 531 -6 b 372 -7 496 -11 388 -7 b 307 142 319 -7 319 96 b 285 203 303 156 290 182 b 221 -4 257 136 250 63 b 214 -8 218 -6 215 -7 l 1 -10 l 6 7 b 60 172 17 64 40 118 b 113 343 81 228 97 286 b -3 688 89 463 39 574 b 140 704 4 703 78 704 b 218 697 192 704 208 703 l 219 697 b 250 606 233 683 243 629 b 285 474 263 561 269 515 b 344 693 306 546 321 621 b 351 699 347 694 349 697 l 363 699 b 483 703 369 703 429 703 b 581 696 549 703 572 704 l 581 694 b 574 689 578 692 575 690 m 563 689 b 357 685 493 689 424 685 b 292 451 331 608 324 525 l 279 451 b 206 686 251 518 226 686 b 197 685 203 686 200 685 b 100 688 165 685 132 688 b 13 685 71 688 42 688 b 106 432 44 600 81 518 b 126 340 111 410 126 364 b 21 10 104 226 49 122 b 76 1 33 4 54 1 b 210 6 136 1 161 14 b 282 228 239 76 246 158 b 357 11 326 186 319 58 b 547 7 344 1 446 19 b 475 238 526 85 499 160 b 450 335 467 263 450 304 b 451 343 450 338 451 340 b 563 689 468 464 526 574 "},"y":{"ha":624,"x_min":0,"x_max":0,"o":"m 217 690 b 265 435 228 604 250 518 b 317 211 279 360 293 283 b 404 696 363 369 344 542 b 410 700 406 697 407 699 b 579 703 467 700 522 703 b 619 690 597 703 615 701 b 528 314 585 567 557 440 b 44 -254 468 54 425 -254 b -8 -253 26 -254 8 -254 b -32 -142 -29 -243 -32 -169 b -17 -54 -32 -119 -32 -61 b 71 -58 11 -54 43 -58 b 160 17 119 -58 160 -47 b 153 65 160 33 156 49 b -3 693 111 278 51 485 l 6 701 b 60 697 24 699 42 697 b 157 700 93 697 125 700 b 211 697 175 700 193 700 l 217 690 m 203 683 b 156 686 188 685 171 686 b 61 683 124 686 93 683 b 14 686 46 683 29 683 b 139 204 53 526 106 367 b 167 69 147 158 157 114 b 174 25 167 68 174 36 b 72 -71 174 -58 131 -71 b -11 -68 46 -71 17 -68 b -18 -140 -15 -92 -18 -117 b -3 -239 -18 -174 -14 -208 b 49 -240 14 -240 31 -240 b 514 318 418 -240 456 67 b 604 688 543 442 569 565 b 558 690 589 689 574 690 b 414 686 510 690 461 686 b 325 188 354 528 378 349 l 313 188 b 251 431 282 265 268 349 b 203 683 235 515 215 599 "},"ý":{"ha":624,"x_min":0,"x_max":0,"o":"m 508 946 b 368 813 474 911 385 849 b 282 803 361 806 333 803 b 171 815 233 803 179 807 l 171 826 b 403 1053 253 896 318 983 b 508 954 440 1033 476 986 l 508 946 m 493 950 b 407 1038 464 979 435 1008 b 189 824 328 974 264 893 b 289 815 219 818 254 815 b 356 821 313 815 335 817 b 493 950 374 856 454 913 m 217 690 b 265 435 228 604 250 518 b 317 211 279 360 293 283 b 404 696 363 369 344 542 b 410 700 406 697 407 699 b 579 703 467 700 522 703 b 619 690 597 703 615 701 b 528 314 585 567 557 440 b 44 -254 468 54 425 -254 b -8 -253 26 -254 8 -254 b -32 -142 -29 -243 -32 -169 b -17 -54 -32 -119 -32 -61 b 71 -58 11 -54 43 -58 b 160 17 119 -58 160 -47 b 153 65 160 33 156 49 b -8 700 111 278 46 492 l 60 697 b 157 700 93 696 125 700 b 211 697 175 700 193 700 l 217 690 m 203 683 b 156 686 188 685 171 686 b 61 683 124 686 93 683 b 14 686 46 683 29 683 b 139 204 53 526 106 367 b 167 69 147 158 157 114 b 174 25 167 68 174 36 b 72 -71 174 -58 131 -71 b -11 -68 46 -71 17 -68 b -18 -140 -15 -92 -18 -117 b -3 -239 -18 -174 -14 -208 b 49 -240 14 -240 31 -240 b 514 318 418 -240 456 67 b 604 688 543 442 569 565 b 558 690 589 689 574 690 b 414 686 510 690 461 686 b 325 188 354 528 378 349 l 313 188 b 251 431 282 265 268 349 b 203 683 235 515 215 599 "},"ÿ":{"ha":624,"x_min":0,"x_max":0,"o":"m 293 940 b 292 874 293 915 292 889 b 213 850 292 854 236 850 b 90 865 174 850 103 851 b 83 1042 90 924 83 982 b 92 1063 83 1050 85 1058 b 290 1061 154 1061 226 1063 l 293 940 m 549 940 b 547 874 549 915 547 889 b 468 850 547 854 492 850 b 346 865 429 850 358 851 b 339 1042 346 924 339 982 b 347 1063 339 1050 340 1058 l 546 1058 l 549 940 m 99 1049 b 97 1024 99 1040 97 1032 b 104 871 97 972 104 922 b 218 864 128 871 176 864 b 278 876 244 864 267 867 l 274 1044 m 354 1049 b 353 1024 354 1040 353 1032 b 360 871 353 972 360 922 b 474 864 383 871 432 864 b 533 876 500 864 522 867 l 529 1044 m 265 435 b 317 211 279 360 293 283 b 410 700 365 371 340 549 b 579 703 467 700 522 703 b 619 690 597 703 615 701 b 528 314 585 567 557 440 b 44 -254 468 54 425 -254 b -8 -253 26 -254 8 -254 b -32 -142 -29 -243 -32 -169 b -17 -54 -32 -119 -32 -61 b 71 -58 11 -54 43 -58 b 160 17 119 -58 160 -47 b 153 65 160 33 156 49 b -4 699 111 278 50 490 l 60 697 b 157 700 93 696 125 700 b 211 697 175 700 193 700 l 265 435 m 203 683 b 156 686 188 685 171 686 b 61 683 124 686 93 683 b 14 686 46 683 29 683 b 139 204 53 526 106 367 b 167 69 147 158 157 114 b 174 25 167 68 174 36 b 72 -71 174 -58 131 -71 b -11 -68 46 -71 17 -68 b -18 -140 -15 -92 -18 -117 b -3 -239 -18 -174 -14 -208 b 49 -240 14 -240 31 -240 b 514 318 418 -240 456 67 b 604 688 543 442 569 565 b 558 690 589 689 574 690 b 414 686 510 690 461 686 b 325 188 354 528 378 349 l 313 188 b 251 431 282 265 268 349 b 203 683 235 515 215 599 "},"z":{"ha":633,"x_min":0,"x_max":0,"o":"m 610 690 b 606 567 610 650 606 608 b 610 507 606 547 607 526 b 608 500 608 504 608 501 b 311 203 514 396 407 306 b 360 204 326 204 343 204 b 488 201 401 204 444 201 b 603 213 524 201 567 206 b 603 203 604 210 600 206 b 606 10 603 139 606 74 b 599 3 603 7 600 6 b 83 -8 426 -7 256 -8 b 26 3 58 -8 35 -6 l 18 136 b 333 496 18 239 226 371 b 40 475 242 492 129 497 b 25 539 26 482 25 515 b 39 697 25 557 22 681 b 267 699 114 697 190 699 b 438 696 324 699 381 696 b 560 701 471 696 519 701 b 613 701 576 701 600 704 l 610 690 m 592 571 b 596 685 592 608 594 647 b 575 686 589 686 582 686 b 424 685 528 686 501 682 b 46 683 297 685 172 683 b 40 547 46 639 40 592 b 44 490 40 528 42 508 b 349 511 143 511 249 501 b 354 500 350 507 351 504 b 38 176 257 383 135 293 b 36 156 36 169 36 163 b 42 61 36 122 42 103 b 40 8 42 39 40 15 b 592 17 224 8 408 7 b 589 194 592 75 589 135 b 493 186 557 189 525 186 b 357 190 449 186 403 190 b 296 188 336 190 315 189 b 290 200 294 192 292 196 b 596 507 388 307 499 399 b 592 571 592 528 592 549 "},"ž":{"ha":633,"x_min":0,"x_max":0,"o":"m 122 993 b 240 1010 144 997 201 1010 b 349 938 304 1010 300 968 l 358 946 b 440 1007 368 965 408 1007 b 565 999 482 1007 524 999 l 582 997 b 575 988 590 997 583 994 b 349 760 508 901 428 835 l 340 760 b 114 985 264 835 189 910 l 122 993 m 135 982 b 344 775 204 913 275 844 b 554 985 418 844 492 907 b 529 983 546 985 538 983 b 447 992 497 983 476 990 b 346 922 394 992 383 942 b 278 990 317 938 304 974 b 185 992 231 1000 208 992 l 190 992 l 135 982 m 610 690 b 606 567 610 650 606 608 b 610 507 606 547 607 526 b 608 500 608 504 608 501 b 311 203 514 396 407 306 b 360 204 326 204 343 204 b 488 201 401 204 444 201 b 603 213 524 201 567 206 b 603 203 604 210 600 206 b 606 10 603 139 606 74 b 599 3 603 7 600 6 b 83 -8 426 -7 256 -8 b 26 3 58 -8 35 -6 l 18 136 b 333 496 18 239 226 371 b 40 475 242 492 129 497 b 25 539 26 482 25 515 b 39 697 25 557 22 681 b 267 699 114 697 190 699 b 438 696 324 699 381 696 b 560 701 471 696 519 701 b 613 701 576 701 600 704 l 610 690 m 592 571 b 596 685 592 608 594 647 b 575 686 589 686 582 686 b 424 685 528 686 501 682 b 46 683 297 685 172 683 b 40 547 46 639 40 592 b 44 490 40 528 42 508 b 349 511 143 511 249 501 b 354 500 350 507 351 504 b 38 176 257 383 135 293 b 36 156 36 169 36 163 b 42 61 36 122 42 103 b 40 8 42 39 40 15 b 592 17 224 8 408 7 b 589 194 592 75 589 135 b 493 186 557 189 525 186 b 357 190 449 186 403 190 b 296 188 336 190 315 189 b 290 200 294 192 292 196 b 596 507 388 307 499 399 b 592 571 592 528 592 549 "},"ﬀ":{"ha":1096,"x_min":0,"x_max":0,"o":"m 392 699 b 663 700 482 699 572 700 b 661 721 661 707 661 714 b 667 774 661 739 664 757 b 1083 1014 704 1011 878 1014 b 1117 908 1117 1014 1117 954 b 1097 801 1117 868 1115 819 b 896 775 1042 801 946 800 l 886 765 b 872 711 878 750 872 731 b 876 688 872 703 874 694 l 1100 688 l 1099 622 b 1088 508 1099 568 1093 519 b 874 513 1018 515 944 507 l 874 -6 b 813 -3 856 -4 831 -3 b 724 -11 790 -8 767 -11 b 671 0 697 -11 682 -12 b 658 511 671 169 658 342 b 321 513 546 511 433 513 l 321 -6 b 258 -3 301 -4 276 -3 b 169 -11 236 -8 213 -11 b 108 43 113 -11 108 4 b 114 511 108 200 114 354 b 11 507 81 511 43 507 b 6 694 8 508 13 514 b 100 701 11 708 78 706 l 110 701 b 544 1014 110 1025 342 1014 b 561 942 561 997 561 964 b 544 801 561 901 560 832 b 321 731 474 801 321 804 b 325 699 321 718 322 707 l 392 699 m 319 685 b 307 733 307 690 307 724 b 538 815 307 808 431 813 b 549 939 539 856 549 897 b 539 1000 549 960 546 979 b 122 732 363 1000 122 1008 b 126 688 122 724 124 688 b 93 689 121 688 99 688 l 19 689 l 24 524 b 133 526 60 525 97 524 b 129 6 133 356 129 175 b 153 4 138 4 144 4 b 275 13 194 4 240 13 b 307 10 285 13 296 11 l 307 525 b 672 524 432 528 556 533 b 685 4 672 354 685 175 b 701 3 690 3 696 3 b 828 13 746 3 792 13 b 860 10 838 13 849 11 l 860 528 b 915 525 875 526 899 525 b 1001 526 943 525 972 526 b 1081 522 1028 526 1054 525 b 1082 661 1081 569 1082 615 b 1081 674 1081 667 1081 668 l 865 669 l 863 688 b 860 710 860 694 860 701 b 1092 815 860 817 974 813 b 1104 911 1099 842 1104 876 b 1092 1000 1104 944 1100 976 b 675 722 908 1000 675 1006 b 678 696 675 714 676 704 l 679 685 "},"ﬃ":{"ha":1325,"x_min":0,"x_max":0,"o":"m 1103 997 b 1110 940 1107 978 1110 958 b 1093 800 1110 900 1108 831 b 894 778 1035 800 950 797 b 871 717 876 763 871 740 b 874 688 871 707 871 697 l 1075 688 l 1075 690 b 1072 708 1074 693 1072 700 b 1082 746 1072 746 1076 740 b 1290 742 1150 746 1222 742 b 1281 236 1290 575 1281 401 b 1286 10 1281 160 1282 85 b 1217 -11 1286 -7 1242 -11 b 1071 0 1169 -11 1114 -4 b 1067 1 1069 0 1068 0 b 1075 508 1076 171 1075 339 b 869 513 1003 515 932 507 l 872 0 b 718 -8 817 7 778 -8 b 667 3 697 -8 679 -10 b 654 507 667 171 654 339 b 318 513 542 507 431 513 l 318 7 b 311 0 315 4 313 3 b 257 1 293 1 275 1 b 167 -8 233 -4 199 -8 b 110 64 111 -8 110 0 b 113 511 110 214 113 363 b 17 510 81 511 49 510 b 4 615 7 514 4 567 b 65 703 4 682 -15 703 b 99 700 78 703 90 703 l 108 700 b 514 1011 108 1004 317 1011 b 557 997 547 1011 546 997 l 551 997 b 558 940 556 978 558 958 b 542 800 558 900 557 831 b 318 729 471 800 318 803 b 322 697 318 717 319 706 b 658 699 435 697 546 699 b 657 719 657 706 657 713 b 663 772 657 738 660 756 b 1072 1011 701 1007 871 1011 b 1108 997 1101 1011 1096 997 l 1103 997 m 675 685 b 317 683 558 685 433 683 b 304 732 304 689 304 722 b 535 814 304 807 428 811 b 543 936 536 854 543 896 b 536 997 543 957 542 976 b 121 725 367 997 121 1007 b 124 696 121 715 122 706 b 108 685 117 688 113 685 b 92 688 103 685 97 686 l 19 688 l 24 524 b 128 525 58 524 94 525 b 122 57 128 371 122 211 b 143 6 122 32 125 6 b 272 17 188 6 235 17 b 304 14 282 17 293 15 l 304 526 b 669 519 424 525 551 522 b 681 7 669 351 681 176 l 694 6 b 824 17 738 6 786 17 b 856 14 833 17 844 15 l 856 518 l 863 526 b 922 525 882 525 901 525 l 1035 525 b 1089 515 1058 525 1085 524 b 1081 11 1089 347 1090 179 b 1092 13 1085 11 1088 13 b 1211 1 1132 13 1167 1 b 1272 13 1233 1 1254 4 b 1267 235 1268 86 1267 161 b 1274 728 1267 399 1274 564 b 1088 732 1211 728 1150 732 b 1086 721 1088 729 1086 725 b 1089 689 1086 708 1089 694 b 1082 674 1089 678 1085 678 l 868 674 b 856 721 857 679 856 706 b 1086 814 856 806 965 810 b 1094 936 1088 854 1094 896 b 1088 997 1094 957 1093 976 b 676 768 892 997 715 1004 b 671 719 674 753 671 736 b 674 694 671 711 671 703 l 675 685 "},"ﬄ":{"ha":1403,"x_min":0,"x_max":0,"o":"m 886 765 b 872 711 878 750 872 731 b 876 688 872 703 874 694 l 1099 688 l 1099 622 b 1088 508 1099 568 1093 519 b 874 513 1018 515 944 507 l 875 -3 b 813 -3 856 -6 833 -1 b 724 -11 790 -8 767 -11 b 671 0 697 -11 682 -12 b 658 507 671 169 658 338 b 321 513 546 507 433 513 l 324 -3 b 258 -3 303 -6 279 -1 b 169 -11 236 -8 213 -11 b 108 43 113 -11 108 4 b 114 511 108 200 114 354 b 8 510 78 511 43 510 l 6 694 b 65 704 15 704 32 704 b 100 701 79 704 92 704 l 110 701 b 544 1014 110 1025 342 1014 b 561 942 561 997 561 964 b 544 801 561 901 560 832 b 321 731 474 801 321 804 b 325 699 321 718 322 707 l 392 699 b 663 700 482 699 572 700 b 661 721 661 707 661 714 b 667 774 661 739 664 757 b 1083 1014 704 1011 878 1014 b 1117 908 1117 1014 1117 954 b 1097 801 1117 868 1115 819 b 896 775 1042 801 946 800 m 1357 268 b 1368 6 1357 181 1358 92 b 1300 -14 1368 -10 1326 -14 b 1160 -7 1253 -14 1193 -7 l 1147 -8 b 1151 154 1150 43 1151 103 b 1135 747 1151 351 1135 550 b 1144 1014 1135 835 1135 926 l 1363 1010 b 1357 268 1363 763 1357 514 m 860 710 b 1092 815 860 817 974 813 b 1104 911 1099 842 1104 876 b 1092 1000 1104 944 1100 976 b 675 722 908 1000 675 1006 b 678 696 675 714 676 704 l 678 685 l 319 685 b 307 733 307 690 307 724 b 538 815 307 808 431 813 b 549 939 539 856 549 897 b 539 1000 549 960 546 979 b 122 732 363 1000 122 1008 b 125 697 122 719 122 708 b 110 686 118 689 114 686 b 93 689 104 686 99 688 l 19 689 l 24 524 b 133 525 60 524 97 525 b 129 6 133 354 129 175 b 153 4 138 4 144 4 b 275 13 194 4 240 13 b 307 10 285 13 296 11 l 306 525 b 671 519 424 528 550 518 b 685 4 685 353 681 176 b 701 3 690 3 696 3 b 828 13 746 3 792 13 b 860 10 838 13 849 11 l 860 526 b 915 525 875 525 899 525 b 1001 526 943 525 972 526 b 1081 522 1028 526 1054 525 b 1082 661 1081 569 1082 615 b 1081 674 1081 667 1081 668 b 861 674 914 682 869 676 b 860 710 858 681 860 701 m 1294 -1 b 1353 8 1315 -1 1336 1 b 1346 313 1343 108 1347 211 b 1344 482 1344 369 1344 425 b 1347 996 1344 653 1347 825 l 1160 1000 b 1150 789 1153 929 1150 860 b 1165 204 1150 594 1165 399 b 1161 7 1165 139 1164 72 b 1294 -1 1199 7 1247 -1 m 861 672 b 861 674 860 671 857 672 l 861 672 "},"ﬁ":{"ha":771,"x_min":0,"x_max":0,"o":"m 546 1007 b 556 936 550 988 556 956 b 546 804 556 892 546 847 b 338 772 532 790 378 793 b 315 710 324 758 315 733 b 319 685 315 701 317 692 l 522 685 b 519 706 521 690 519 697 b 529 743 519 743 524 738 l 733 743 b 724 239 733 576 724 408 b 732 10 724 163 725 86 b 663 -11 732 -7 688 -11 b 513 1 615 -11 560 -4 b 522 507 522 171 522 336 b 317 511 454 510 385 507 l 317 0 b 256 1 299 1 274 1 b 167 -8 232 -4 197 -8 b 107 58 110 -8 107 8 b 111 510 107 208 111 358 b 11 504 79 510 43 504 b 4 681 8 506 11 513 b 64 690 14 690 32 690 b 97 688 76 690 89 690 l 107 688 b 519 1008 107 1003 314 1008 l 546 1007 m 539 521 b 526 11 539 351 535 179 b 538 13 531 11 533 13 b 654 1 578 13 611 1 b 717 13 676 1 699 4 b 710 226 711 83 710 156 b 719 725 710 393 719 558 b 535 729 658 725 596 729 b 533 718 535 726 533 722 b 536 686 533 706 536 692 b 529 671 536 675 532 675 l 315 671 b 304 699 318 671 304 671 b 329 783 304 729 304 761 b 532 811 351 803 485 810 b 542 933 533 851 542 892 b 533 994 542 953 539 974 b 119 714 344 994 119 1000 b 90 675 119 699 129 672 l 18 675 l 22 522 b 126 522 57 521 93 525 b 121 192 126 413 121 300 b 128 8 121 131 128 69 b 147 7 135 7 142 7 b 271 17 189 7 235 17 b 303 14 281 17 292 15 l 303 526 l 539 521 "},"ﬂ":{"ha":781,"x_min":0,"x_max":0,"o":"m 529 515 b 321 519 457 518 390 515 l 322 0 b 260 1 303 0 281 1 b 164 -10 236 -4 201 -10 b 121 -4 147 -10 132 -8 b 108 72 111 15 108 42 b 114 518 108 225 114 368 b 15 517 81 518 47 517 b 3 617 6 521 3 571 b 11 700 3 658 1 690 b 110 699 43 700 76 699 b 247 989 110 806 132 943 b 400 1021 296 1008 347 1015 b 553 1022 444 1025 475 1024 b 749 1019 618 1022 685 1019 b 736 165 749 738 736 449 b 743 10 736 113 738 61 b 678 -11 743 -7 701 -11 b 556 -4 639 -11 590 -4 b 519 -8 546 -4 526 -7 l 529 515 m 543 528 b 535 10 543 356 544 181 b 556 11 542 10 549 11 b 669 1 593 11 632 1 b 728 13 690 1 710 4 b 722 157 724 60 722 108 b 732 1006 722 440 732 722 b 122 729 507 989 122 1101 b 126 683 122 714 124 697 b 18 686 93 683 51 686 l 22 531 b 131 532 57 531 96 532 b 122 50 131 372 122 213 b 151 6 122 26 125 6 b 275 17 193 6 239 17 b 307 14 285 17 296 15 l 306 532 l 543 528 m 319 682 b 308 711 303 688 308 697 b 419 829 308 811 350 829 b 543 817 450 829 529 829 l 543 689 l 542 681 m 529 696 l 529 810 b 419 815 494 810 454 815 b 322 728 365 815 322 801 b 324 696 322 718 321 704 "},"ª":{"ha":383,"x_min":0,"x_max":0,"o":"m 342 688 b 292 643 342 653 338 643 b 242 639 286 643 279 644 b 224 672 226 639 224 656 b 147 643 204 653 175 643 b 25 838 61 643 25 749 b 171 1013 25 926 76 1013 b 218 994 189 1013 206 1007 b 222 1013 219 997 213 997 b 315 1011 231 1013 310 1013 l 339 1011 l 342 725 m 235 1001 b 218 969 235 986 238 969 b 161 999 211 990 185 999 b 39 838 79 999 39 914 b 149 656 39 757 69 656 b 225 692 178 656 208 668 l 225 693 b 226 694 225 693 226 693 b 239 692 231 694 235 693 b 235 675 239 685 238 681 l 235 664 b 238 658 236 663 236 660 l 325 660 b 328 989 325 769 328 879 b 326 994 326 990 326 992 b 235 1001 311 994 256 1000 m 192 915 b 238 831 235 915 238 899 b 192 740 238 792 231 740 b 119 871 119 740 106 811 b 192 915 131 906 158 915 m 192 756 b 225 839 218 756 225 799 b 218 894 225 864 221 886 b 192 903 208 900 200 903 b 153 892 178 903 164 897 l 138 876 b 192 756 103 806 153 756 "},"º":{"ha":353,"x_min":0,"x_max":0,"o":"m 176 904 b 326 694 264 904 326 826 b 169 457 326 567 278 457 b 31 693 35 457 31 599 b 64 844 31 747 32 796 b 176 904 92 883 146 904 m 75 838 b 43 656 32 775 43 718 b 174 471 43 550 79 471 b 314 690 264 471 314 572 b 178 892 314 788 272 892 b 76 839 139 892 86 857 l 75 838 m 121 672 b 178 810 121 724 118 810 b 225 688 226 810 225 689 l 225 689 b 176 556 225 657 224 556 b 121 672 124 556 121 628 m 157 572 b 193 579 168 567 185 568 b 211 717 207 610 213 703 b 176 794 206 744 219 781 l 171 794 b 133 701 143 789 133 758 b 157 572 133 661 128 588 "},"¹":{"ha":260,"x_min":0,"x_max":0,"o":"m 206 896 b 218 819 217 874 218 846 b 208 475 218 703 208 590 l 208 472 b 161 454 208 458 178 454 b 100 471 135 454 113 458 b 108 744 100 563 107 653 b 85 728 101 735 94 728 b 10 757 69 728 19 736 b 82 893 10 794 58 861 b 81 890 82 892 82 892 l 81 889 l 88 897 l 206 896 m 83 894 b 82 893 83 894 83 893 m 194 476 b 204 832 194 596 204 714 b 189 883 204 854 203 878 b 92 883 181 883 165 879 b 24 758 74 858 24 788 b 82 742 42 750 64 749 l 89 742 b 113 775 94 753 101 769 b 122 768 115 772 119 771 b 114 475 122 669 114 572 b 144 472 124 472 133 472 b 192 474 160 472 175 474 b 194 475 193 474 193 475 l 194 476 "},"²":{"ha":367,"x_min":0,"x_max":0,"o":"m 38 464 b 138 682 38 578 33 622 b 217 761 172 701 217 728 b 208 790 217 771 214 781 l 203 796 l 193 800 b 171 794 185 800 179 799 l 163 786 b 150 729 153 767 150 751 b 93 717 143 717 111 717 b 42 753 46 717 42 726 b 89 890 42 797 40 846 b 193 918 117 915 174 918 b 335 739 293 918 335 864 b 160 563 335 636 186 646 l 160 558 b 311 560 210 558 260 560 b 325 522 322 549 325 539 b 317 460 325 510 325 489 l 289 460 b 74 456 217 460 144 456 l 44 456 m 307 474 b 306 478 307 475 306 476 b 310 510 306 479 307 500 b 306 546 310 521 311 533 b 156 544 256 546 206 544 b 151 546 154 544 153 546 l 149 549 l 146 556 b 319 749 146 658 319 629 b 201 904 314 794 318 914 b 53 769 101 904 53 856 b 94 731 53 731 57 731 b 136 733 108 731 122 731 b 188 815 136 764 147 815 b 229 756 213 815 229 783 b 72 617 229 700 119 667 b 51 469 40 582 57 503 l 74 469 b 307 474 150 471 228 474 "},"³":{"ha":353,"x_min":0,"x_max":0,"o":"m 32 597 b 124 610 46 611 96 610 b 186 571 156 578 154 571 b 207 603 199 576 207 590 b 156 638 207 631 174 638 b 135 636 149 638 142 638 l 133 636 b 115 674 117 636 115 663 b 118 729 115 692 118 710 l 122 738 b 146 742 129 742 138 742 b 207 779 200 742 207 749 b 122 761 190 821 146 786 b 89 756 108 757 99 756 b 32 768 65 756 43 757 b 26 800 28 786 26 793 b 179 914 26 875 107 917 b 317 647 339 908 317 815 b 154 451 317 535 306 451 b 61 482 135 451 85 458 b 32 597 32 510 32 549 m 74 488 b 164 464 74 483 110 464 b 303 638 292 464 303 554 b 301 833 303 704 301 767 b 176 901 282 878 229 901 b 44 785 110 901 44 864 b 46 774 46 781 46 778 l 110 774 b 179 814 133 785 153 814 b 221 767 206 814 221 789 b 132 726 221 729 189 726 b 129 672 132 710 129 692 b 133 650 129 664 131 657 b 164 651 143 651 154 651 b 219 603 203 651 219 626 b 179 554 219 578 204 554 b 119 596 154 554 129 574 b 57 589 99 596 78 589 l 47 590 b 63 500 54 557 47 532 l 75 488 l 74 488 "},"½":{"ha":836,"x_min":0,"x_max":0,"o":"m 304 6 b 257 -11 290 -8 281 -11 b 167 3 228 -11 179 -10 b 500 986 276 331 407 651 b 596 993 514 989 582 990 b 642 979 614 993 629 992 b 625 926 642 961 631 944 l 542 681 b 307 8 465 456 393 229 l 304 6 m 294 15 b 626 975 418 331 517 656 b 600 979 618 978 610 979 b 536 974 575 979 561 974 b 511 975 528 974 518 974 b 183 8 421 647 292 332 b 289 7 218 8 254 7 b 294 15 292 10 293 13 m 243 431 b 194 411 243 417 208 411 b 119 426 169 411 131 415 b 128 749 119 535 126 640 b 100 725 119 735 114 725 b 14 757 85 725 25 735 b 89 899 14 792 68 874 b 104 918 90 904 97 918 l 225 917 l 239 917 b 251 831 250 892 251 860 b 239 489 251 711 239 619 b 243 436 239 469 240 450 l 243 431 m 229 433 b 225 489 226 449 225 468 b 238 815 225 611 238 704 b 233 903 238 844 236 874 b 107 904 226 904 196 903 b 28 761 75 872 46 804 l 28 760 b 106 739 50 749 81 739 l 108 742 b 131 778 114 753 118 771 b 140 771 133 775 138 774 l 140 769 b 144 733 143 758 144 746 b 133 432 144 626 133 532 b 193 428 153 431 172 428 b 224 431 203 428 214 431 b 229 433 225 432 228 432 m 496 -4 b 488 35 488 3 488 17 b 515 182 488 83 489 156 b 685 326 601 268 685 272 b 654 374 685 338 681 374 b 611 297 617 374 611 325 b 536 281 604 285 556 281 b 492 343 493 281 492 292 b 539 471 492 388 499 442 b 654 507 574 496 615 507 b 811 332 747 507 811 447 b 621 115 811 176 653 211 l 621 110 b 663 108 635 108 649 108 b 788 111 704 108 746 111 b 803 57 800 99 803 79 b 799 26 803 44 801 33 l 799 14 l 801 10 b 800 3 800 7 800 4 l 799 1 b 793 -1 796 0 794 0 l 754 -1 b 528 -4 679 -1 603 -4 l 496 -4 m 785 13 b 783 21 783 15 783 18 b 788 64 783 33 788 49 b 782 97 788 76 786 88 b 671 94 744 96 708 94 b 607 107 629 94 615 89 b 746 226 607 179 697 194 b 796 351 792 257 796 297 b 793 365 793 354 793 360 b 669 490 793 442 744 486 b 503 335 567 490 503 449 b 551 299 503 307 507 299 b 597 303 567 299 582 300 b 653 389 597 336 608 389 b 700 331 679 389 700 361 b 581 219 700 268 622 247 b 501 57 522 181 501 149 b 503 10 501 39 503 22 l 528 10 b 785 13 613 11 699 13 "},"¼":{"ha":826,"x_min":0,"x_max":0,"o":"m 542 681 b 307 8 465 456 393 229 l 304 6 b 257 -11 290 -8 281 -11 b 167 3 228 -11 179 -10 b 500 986 276 331 407 651 b 511 989 504 988 508 988 l 510 990 b 528 989 515 989 521 989 b 596 993 551 989 574 993 b 642 979 614 993 629 992 b 625 926 642 961 631 944 m 508 990 b 510 990 508 990 508 990 m 294 15 b 626 975 418 331 517 656 b 600 979 618 978 610 979 b 536 974 575 979 561 974 b 511 975 528 974 518 974 b 183 8 421 647 292 332 b 289 7 218 8 254 7 b 294 15 292 10 293 13 m 194 411 b 119 426 169 411 131 415 b 128 749 119 535 126 640 b 100 725 119 735 114 725 b 14 757 85 725 25 735 b 89 899 14 792 68 874 b 104 918 90 904 97 918 l 239 917 b 251 831 250 892 251 860 b 239 489 251 711 239 619 b 243 436 239 469 240 450 l 243 431 b 194 411 243 417 208 411 m 108 742 b 131 778 114 753 118 771 b 144 733 142 767 144 756 b 133 432 144 626 133 532 b 193 428 153 431 172 428 b 229 433 204 428 219 428 b 225 489 226 449 225 468 b 238 815 225 611 238 704 b 233 903 238 844 236 874 b 107 904 226 904 196 903 b 28 761 75 872 46 804 l 28 760 b 108 742 50 749 81 739 m 769 263 b 806 250 786 263 799 256 l 801 144 b 761 135 786 133 775 133 b 751 8 756 94 751 49 b 701 -7 751 -3 724 -7 b 633 6 661 -7 643 -4 b 635 146 633 53 635 100 b 629 147 633 146 632 146 l 500 147 b 496 149 499 147 497 149 l 494 150 b 483 214 483 161 483 199 b 533 336 483 275 506 290 b 639 496 567 390 604 442 b 644 500 640 497 642 499 l 675 500 b 703 504 682 503 692 504 b 764 494 725 504 754 504 b 760 336 764 447 760 389 b 764 261 760 310 761 283 b 769 263 765 261 767 263 m 792 243 b 749 286 750 243 749 254 b 750 488 749 303 750 318 l 649 486 b 544 329 615 433 578 383 b 497 233 526 300 497 261 b 504 161 497 214 496 178 b 590 165 529 161 561 165 b 649 153 608 165 633 165 b 647 11 649 106 647 58 b 699 10 661 11 679 10 b 738 13 713 10 725 11 b 756 149 738 42 738 139 b 788 151 765 149 778 150 m 669 358 b 676 351 671 356 674 354 l 676 350 b 674 251 675 317 674 285 b 619 242 667 244 654 242 b 589 253 610 242 600 242 b 669 358 592 264 657 358 m 660 258 b 661 335 661 283 661 308 b 607 257 642 311 622 283 b 638 256 617 257 626 256 b 660 258 644 256 653 257 "},"¾":{"ha":869,"x_min":0,"x_max":0,"o":"m 588 681 b 353 8 511 456 439 229 l 350 6 b 303 -11 336 -8 326 -11 b 213 3 274 -11 225 -10 b 546 986 322 331 453 651 b 557 989 550 988 554 988 l 556 990 b 574 989 561 989 567 989 b 642 993 597 989 619 993 b 688 979 660 993 675 992 b 671 926 688 961 676 944 m 554 990 b 556 990 554 990 554 990 m 340 15 b 672 975 464 331 563 656 b 646 979 664 978 656 979 b 582 974 621 979 607 974 b 557 975 574 974 564 974 b 229 8 467 647 338 332 b 335 7 264 8 300 7 b 340 15 338 10 339 13 m 338 636 b 168 410 338 499 318 410 b 57 444 124 410 81 421 b 25 571 26 475 25 511 b 125 585 39 585 96 585 b 194 540 150 560 156 540 b 217 583 214 550 217 563 b 161 617 208 610 186 617 b 132 614 151 617 142 615 b 117 658 118 621 117 644 b 121 715 117 676 121 696 l 125 724 b 206 735 150 733 182 722 l 214 743 b 217 760 217 747 217 754 b 211 785 217 769 215 778 l 208 788 b 186 792 201 790 193 792 b 124 753 157 792 143 772 l 118 753 b 89 747 110 749 100 747 b 25 760 63 747 36 749 l 28 801 b 186 919 28 882 118 919 b 336 801 254 919 336 886 b 335 756 336 785 335 768 b 338 636 335 728 338 683 m 167 424 b 325 650 313 424 325 508 b 321 764 325 701 321 744 b 322 807 321 776 322 792 b 182 904 322 875 251 904 b 38 779 97 904 38 864 b 39 765 39 774 39 771 l 113 765 b 188 807 140 779 149 807 b 232 765 213 807 232 792 b 131 678 232 690 131 739 b 135 628 131 663 129 643 b 161 631 143 629 153 631 b 231 576 210 631 231 604 b 185 525 231 550 213 525 b 119 571 168 525 135 539 b 40 565 93 569 68 565 b 67 454 46 528 36 485 b 167 424 88 433 126 424 m 847 144 l 842 139 l 843 139 b 819 133 836 135 828 133 b 807 135 815 133 811 135 b 797 8 801 94 797 49 b 747 -7 797 -3 769 -7 b 679 6 707 -7 689 -4 b 681 146 679 53 681 100 b 675 147 679 146 678 146 l 546 147 b 542 149 544 147 543 149 l 540 150 b 529 214 529 161 529 199 b 579 336 529 275 551 290 b 685 496 613 390 650 442 b 690 500 686 497 688 499 l 749 504 b 810 494 771 504 800 504 b 806 336 810 447 806 389 b 810 261 806 310 807 283 b 851 250 826 265 844 256 m 838 243 b 794 286 796 243 794 254 b 796 325 794 303 796 318 l 796 488 l 694 486 b 590 329 661 433 624 383 b 542 206 567 292 542 263 b 550 161 542 189 543 172 b 636 165 575 161 607 165 b 682 160 653 165 668 164 l 688 160 b 694 153 689 157 692 156 b 693 11 694 106 693 58 b 744 10 707 11 725 10 b 783 13 758 10 771 11 b 801 149 783 42 783 139 b 833 151 811 149 824 150 m 715 358 b 722 351 717 356 719 354 l 722 350 l 722 336 b 722 307 722 326 722 317 b 713 244 722 283 721 260 l 711 244 b 639 244 689 240 660 238 l 635 253 b 715 358 638 264 703 358 m 706 258 b 707 335 707 283 707 308 b 653 257 688 311 668 283 b 683 256 663 257 672 256 b 706 258 690 256 699 257 "},"⅛":{"ha":817,"x_min":0,"x_max":0,"o":"m 542 681 b 307 8 465 456 393 229 l 304 6 b 257 -11 290 -8 281 -11 b 167 3 228 -11 179 -10 b 500 986 276 331 407 651 b 511 989 504 988 508 988 l 510 990 b 528 989 515 989 521 989 b 596 993 551 989 574 993 b 642 979 614 993 629 992 b 625 926 642 961 631 944 m 508 990 b 510 990 508 990 508 990 m 294 15 b 626 975 418 331 517 656 b 600 979 618 978 610 979 b 536 974 575 979 561 974 b 511 975 528 974 518 974 b 183 8 421 647 292 332 b 289 7 218 8 254 7 b 294 15 292 10 293 13 m 194 411 b 119 426 169 411 131 415 b 128 749 119 535 126 640 b 100 725 119 735 114 725 b 14 757 85 725 25 735 b 104 918 18 779 78 918 l 225 917 l 239 917 b 251 831 250 892 251 860 b 239 489 251 711 239 619 b 243 436 239 469 240 450 l 243 431 b 194 411 243 417 208 411 m 106 739 b 131 778 114 753 118 771 b 144 733 143 781 144 746 b 133 432 144 626 133 532 b 193 428 153 431 172 428 b 224 431 203 428 214 431 b 229 433 225 432 228 432 b 225 489 226 449 225 468 b 238 815 225 611 238 704 b 233 903 238 844 236 874 b 107 904 226 904 196 903 b 28 761 75 872 46 804 l 28 760 b 106 739 50 749 81 739 m 789 347 b 746 246 789 308 774 274 b 788 142 774 218 788 179 b 653 -6 788 43 728 -6 b 510 143 560 -6 510 61 b 544 250 510 171 518 224 b 514 351 525 275 514 313 b 650 504 514 435 558 504 b 789 347 735 504 789 449 m 775 131 b 732 240 775 174 758 211 l 732 251 b 775 346 757 278 775 308 l 775 349 b 653 489 775 415 746 489 b 525 349 575 489 525 421 b 560 254 525 317 536 282 l 560 246 b 525 142 533 219 525 176 b 646 8 525 50 583 8 b 775 131 710 8 775 53 m 644 417 b 703 357 672 417 703 393 b 654 297 703 315 675 297 b 600 358 628 297 600 322 b 603 378 600 365 601 371 b 644 417 608 406 626 417 m 658 313 b 688 356 679 319 688 339 b 668 399 688 371 681 386 l 656 403 b 617 374 639 403 621 400 b 614 358 615 368 614 364 b 625 324 614 346 619 335 l 632 317 l 644 313 l 658 313 m 642 206 b 697 144 669 206 697 178 b 651 86 697 104 667 86 b 597 156 625 86 597 118 b 600 175 597 163 599 168 l 601 176 b 642 206 611 197 626 206 m 654 101 b 682 143 675 108 682 128 b 661 189 682 160 674 176 l 649 193 l 636 193 b 625 188 632 192 629 189 l 618 181 l 614 171 b 611 153 613 165 611 158 b 642 101 611 132 621 110 l 654 101 "}}}
